<svg width="331" height="159" viewBox="0 0 331 159" fill="none" xmlns="http://www.w3.org/2000/svg">
<path d="M142.729 149.414H146.64V5.9536H142.729V149.414Z" fill="white"/>
<path d="M142.729 149.414H319.061L319.169 157.842H15.5778V149.414H21.2904H25.2079H36.4178H40.3353H51.5423H55.4599H66.6675H70.5873H76.1911H82.0101H85.9277H97.1353H101.055H112.263H116.173H127.382H131.3H136.903" fill="#EDEDED"/>
<path d="M197.731 149.414L197.623 5.95364Z" fill="#C4D5E0"/>
<path d="M197.731 5.95363H15.6872L15.5778 2.69072H319.169V5.95363H313.457H309.539H298.331H294.413H283.206H279.288H268.08H264.162H258.558H252.738H248.82H237.612H233.694H222.487H218.568H207.361H203.443H197.839" fill="#EDEDED"/>
<path d="M197.731 149.414V5.95364L197.839 149.414" fill="#C4D5E0"/>
<path d="M192.019 149.414H197.622V5.9536H192.019V149.414Z" fill="#EDEDED"/>
<path d="M188.101 149.414H192.018V5.9536H188.101V149.414Z" fill="white"/>
<path d="M157.849 149.414H161.769V5.9536H157.849V149.414Z" fill="white"/>
<path d="M137.012 5.95364L137.126 149.414Z" fill="#C4D5E0"/>
<path d="M137.126 149.414H142.729V5.9536H137.126V149.414Z" fill="#EDEDED"/>
<path d="M137.012 5.95364V149.414L136.903 5.95364" fill="#C4D5E0"/>
<path d="M172.975 149.414H176.892V5.9536H172.975V149.414Z" fill="white"/>
<path d="M176.893 149.414H188.1V5.9536H176.893V149.414Z" fill="#EDEDED"/>
<path d="M161.767 149.414H172.975V5.9536H161.767V149.414Z" fill="#EDEDED"/>
<path d="M146.642 149.414H157.849V5.9536H146.642V149.414Z" fill="#EDEDED"/>
<path d="M15.5779 2.69073V158.554H1V147.018H4.26377V142.558H1V103.493H4.26377V99.0356H1V59.9711H4.26377V55.513H1V16.4553H4.26377V11.9909H1V1.00005H15.5779" fill="#EDEDED"/>
<path d="M319.169 5.95365V1.00005H330.593V158.554H319.169V157.842V149.414" fill="#EDEDED"/>
<path d="M203.443 149.414H207.36V5.9536H203.443V149.414Z" fill="white"/>
<path d="M258.342 5.95364L258.45 149.414Z" fill="#C4D5E0"/>
<path d="M258.45 149.414V5.95364L258.558 149.414" fill="white"/>
<path d="M252.738 149.414H258.342V5.9536H252.738V149.414Z" fill="#EDEDED"/>
<path d="M197.839 149.414H203.443V5.9536H197.839V149.414Z" fill="#EDEDED"/>
<path d="M248.82 149.414H252.737V5.9536H248.82V149.414Z" fill="white"/>
<path d="M218.568 149.414H222.486V5.9536H218.568V149.414Z" fill="white"/>
<path d="M233.694 149.414H237.612V5.9536H233.694V149.414Z" fill="white"/>
<path d="M237.612 149.414H248.82V5.9536H237.612V149.414Z" fill="#EDEDED"/>
<path d="M222.486 149.414H233.696V5.9536H222.486V149.414Z" fill="#EDEDED"/>
<path d="M207.361 149.414H218.568V5.9536H207.361V149.414Z" fill="#EDEDED"/>
<path d="M82.0101 149.414H85.9276V5.9536H82.0101V149.414Z" fill="white"/>
<path d="M131.3 149.414H136.903V5.9536H131.3V149.414Z" fill="#EDEDED"/>
<path d="M127.381 149.414H131.301V5.9536H127.381V149.414Z" fill="white"/>
<path d="M97.1352 149.414H101.055V5.9536H97.1352V149.414Z" fill="white"/>
<path d="M76.2975 5.95364L76.4069 149.414Z" fill="#C4D5E0"/>
<path d="M76.4069 149.414H82.0106V5.9536H76.4069V149.414Z" fill="#EDEDED"/>
<path d="M76.2975 5.95364V149.414L76.191 5.95364" fill="#C4D5E0"/>
<path d="M112.263 149.414H116.173V5.9536H112.263V149.414Z" fill="white"/>
<path d="M116.173 149.414H127.381V5.9536H116.173V149.414Z" fill="#EDEDED"/>
<path d="M101.055 149.414H112.263V5.9536H101.055V149.414Z" fill="#EDEDED"/>
<path d="M85.9276 149.414H97.1351V5.9536H85.9276V149.414Z" fill="#EDEDED"/>
<path d="M21.2903 149.414H25.2079V5.9536H21.2903V149.414Z" fill="white"/>
<path d="M70.5872 149.414H76.1909V5.9536H70.5872V149.414Z" fill="#EDEDED"/>
<path d="M15.5778 149.414V5.95364L15.6872 149.414" fill="#C4D5E0"/>
<path d="M15.6872 149.414H21.2909V5.9536H15.6872V149.414Z" fill="#EDEDED"/>
<path d="M66.6674 149.414H70.5871V5.9536H66.6674V149.414Z" fill="white"/>
<path d="M36.4177 149.414H40.3352V5.9536H36.4177V149.414Z" fill="white"/>
<path d="M51.5423 149.414H55.4598V5.9536H51.5423V149.414Z" fill="white"/>
<path d="M55.4599 149.414H66.6672V5.9536H55.4599V149.414Z" fill="#EDEDED"/>
<path d="M40.3354 149.414H51.5428V5.9536H40.3354V149.414Z" fill="#EDEDED"/>
<path d="M25.2079 149.414H36.4175V5.9536H25.2079V149.414Z" fill="#EDEDED"/>
<path d="M264.162 149.414H268.082V5.9536H264.162V149.414Z" fill="white"/>
<path d="M319.061 5.95364L319.169 149.414Z" fill="white"/>
<path d="M313.457 149.414H319.061V5.9536H313.457V149.414Z" fill="#EDEDED"/>
<path d="M258.558 149.414H264.162V5.9536H258.558V149.414Z" fill="#EDEDED"/>
<path d="M309.539 149.414H313.457V5.9536H309.539V149.414Z" fill="white"/>
<path d="M279.288 149.414H283.205V5.9536H279.288V149.414Z" fill="white"/>
<path d="M294.413 149.414H298.331V5.9536H294.413V149.414Z" fill="white"/>
<path d="M298.331 149.414H309.541V5.9536H298.331V149.414Z" fill="#EDEDED"/>
<path d="M283.206 149.414H294.413V5.9536H283.206V149.414Z" fill="#EDEDED"/>
<path d="M268.08 149.414H279.288V5.9536H268.08V149.414Z" fill="#EDEDED"/>
<path d="M146.642 149.414H142.729" stroke="black" stroke-width="0.008" stroke-miterlimit="10"/>
<path d="M197.731 149.414V5.95364" stroke="black" stroke-width="0.008" stroke-miterlimit="10"/>
<path d="M197.623 149.414V5.95364" stroke="black" stroke-width="0.004" stroke-miterlimit="10"/>
<path d="M137.126 5.95364V149.414" stroke="black" stroke-width="0.004" stroke-miterlimit="10"/>
<path d="M137.012 5.95364V149.414" stroke="black" stroke-width="0.008" stroke-miterlimit="10"/>
<path d="M192.019 149.414H188.101" stroke="black" stroke-width="0.008" stroke-miterlimit="10"/>
<path d="M197.623 5.95363H192.019" stroke="black" stroke-width="0.008" stroke-miterlimit="10"/>
<path d="M161.767 149.414H157.849" stroke="black" stroke-width="0.008" stroke-miterlimit="10"/>
<path d="M142.729 5.95363H146.642" stroke="black" stroke-width="0.008" stroke-miterlimit="10"/>
<path d="M157.849 5.95363H161.767" stroke="black" stroke-width="0.008" stroke-miterlimit="10"/>
<path d="M137.126 149.414H142.729" stroke="black" stroke-width="0.008" stroke-miterlimit="10"/>
<path d="M172.975 5.95363H176.893" stroke="black" stroke-width="0.008" stroke-miterlimit="10"/>
<path d="M192.019 149.414H197.623" stroke="black" stroke-width="0.008" stroke-miterlimit="10"/>
<path d="M192.019 5.95363H188.101" stroke="black" stroke-width="0.008" stroke-miterlimit="10"/>
<path d="M192.019 149.414V5.95364" stroke="black" stroke-width="0.004" stroke-miterlimit="10"/>
<path d="M188.101 149.414H176.893" stroke="black" stroke-width="0.008" stroke-miterlimit="10"/>
<path d="M188.101 5.95364V149.414" stroke="black" stroke-width="0.004" stroke-miterlimit="10"/>
<path d="M176.893 149.414V5.95364" stroke="black" stroke-width="0.004" stroke-miterlimit="10"/>
<path d="M172.975 5.95364V149.414" stroke="black" stroke-width="0.004" stroke-miterlimit="10"/>
<path d="M172.975 149.414H176.893" stroke="black" stroke-width="0.008" stroke-miterlimit="10"/>
<path d="M176.893 5.95363H188.101" stroke="black" stroke-width="0.008" stroke-miterlimit="10"/>
<path d="M157.849 5.95364V149.414" stroke="black" stroke-width="0.004" stroke-miterlimit="10"/>
<path d="M161.767 149.414V5.95364" stroke="black" stroke-width="0.004" stroke-miterlimit="10"/>
<path d="M157.849 149.414H146.642" stroke="black" stroke-width="0.008" stroke-miterlimit="10"/>
<path d="M161.767 149.414H172.975" stroke="black" stroke-width="0.008" stroke-miterlimit="10"/>
<path d="M161.767 5.95363H172.975" stroke="black" stroke-width="0.008" stroke-miterlimit="10"/>
<path d="M146.642 149.414V5.95364" stroke="black" stroke-width="0.004" stroke-miterlimit="10"/>
<path d="M142.729 5.95364V149.414" stroke="black" stroke-width="0.004" stroke-miterlimit="10"/>
<path d="M146.642 5.95363H157.849" stroke="black" stroke-width="0.008" stroke-miterlimit="10"/>
<path d="M142.729 5.95363H137.126" stroke="black" stroke-width="0.008" stroke-miterlimit="10"/>
<path d="M319.169 2.69075H15.5778" stroke="black" stroke-width="0.008" stroke-miterlimit="10"/>
<path d="M15.5778 2.69072V5.95363" stroke="black" stroke-width="0.008" stroke-miterlimit="10"/>
<path d="M319.169 5.95363V2.69072" stroke="black" stroke-width="0.008" stroke-miterlimit="10"/>
<path d="M15.5779 158.554H1" stroke="black" stroke-width="0.008" stroke-miterlimit="10"/>
<path d="M1 1.00005H15.5779" stroke="black" stroke-width="0.008" stroke-miterlimit="10"/>
<path d="M1 158.554V147.018" stroke="black" stroke-width="0.008" stroke-miterlimit="10"/>
<path d="M1 11.9909V1" stroke="black" stroke-width="0.008" stroke-miterlimit="10"/>
<path d="M1 11.9909H4.26376" stroke="black" stroke-width="0.008" stroke-miterlimit="10"/>
<path d="M4.26364 11.9909V16.4554" stroke="black" stroke-width="0.008" stroke-miterlimit="10"/>
<path d="M4.26376 16.4554H1" stroke="black" stroke-width="0.008" stroke-miterlimit="10"/>
<path d="M4.26364 55.513V59.9711" stroke="black" stroke-width="0.008" stroke-miterlimit="10"/>
<path d="M4.26376 59.9711H1" stroke="black" stroke-width="0.008" stroke-miterlimit="10"/>
<path d="M1 55.5129H4.26376" stroke="black" stroke-width="0.008" stroke-miterlimit="10"/>
<path d="M1 55.5129V16.4553" stroke="black" stroke-width="0.008" stroke-miterlimit="10"/>
<path d="M1 99.0356H4.26376" stroke="black" stroke-width="0.008" stroke-miterlimit="10"/>
<path d="M4.26364 99.0356V103.493" stroke="black" stroke-width="0.008" stroke-miterlimit="10"/>
<path d="M4.26376 103.493H1" stroke="black" stroke-width="0.008" stroke-miterlimit="10"/>
<path d="M1 99.0356V59.9711" stroke="black" stroke-width="0.008" stroke-miterlimit="10"/>
<path d="M4.26364 142.558V147.018" stroke="black" stroke-width="0.008" stroke-miterlimit="10"/>
<path d="M4.26376 147.018H1" stroke="black" stroke-width="0.008" stroke-miterlimit="10"/>
<path d="M1 142.558H4.26376" stroke="black" stroke-width="0.008" stroke-miterlimit="10"/>
<path d="M1 142.558V103.493" stroke="black" stroke-width="0.008" stroke-miterlimit="10"/>
<path d="M207.361 149.414H203.443" stroke="black" stroke-width="0.008" stroke-miterlimit="10"/>
<path d="M258.45 149.414V5.95364" stroke="black" stroke-width="0.008" stroke-miterlimit="10"/>
<path d="M258.342 149.414V5.95364" stroke="black" stroke-width="0.004" stroke-miterlimit="10"/>
<path d="M197.839 5.95364V149.414" stroke="black" stroke-width="0.004" stroke-miterlimit="10"/>
<path d="M252.738 149.414H248.82" stroke="black" stroke-width="0.008" stroke-miterlimit="10"/>
<path d="M258.342 5.95363H252.738" stroke="black" stroke-width="0.008" stroke-miterlimit="10"/>
<path d="M222.487 149.414H218.568" stroke="black" stroke-width="0.008" stroke-miterlimit="10"/>
<path d="M203.443 5.95363H207.361" stroke="black" stroke-width="0.008" stroke-miterlimit="10"/>
<path d="M218.568 5.95363H222.487" stroke="black" stroke-width="0.008" stroke-miterlimit="10"/>
<path d="M197.839 149.414H203.443" stroke="black" stroke-width="0.008" stroke-miterlimit="10"/>
<path d="M233.694 5.95363H237.612" stroke="black" stroke-width="0.008" stroke-miterlimit="10"/>
<path d="M252.738 149.414H258.342" stroke="black" stroke-width="0.008" stroke-miterlimit="10"/>
<path d="M252.738 5.95363H248.82" stroke="black" stroke-width="0.008" stroke-miterlimit="10"/>
<path d="M252.738 149.414V5.95364" stroke="black" stroke-width="0.004" stroke-miterlimit="10"/>
<path d="M248.82 149.414H237.612" stroke="black" stroke-width="0.008" stroke-miterlimit="10"/>
<path d="M248.82 5.95364V149.414" stroke="black" stroke-width="0.004" stroke-miterlimit="10"/>
<path d="M237.612 149.414V5.95364" stroke="black" stroke-width="0.004" stroke-miterlimit="10"/>
<path d="M233.694 5.95364V149.414" stroke="black" stroke-width="0.004" stroke-miterlimit="10"/>
<path d="M233.694 149.414H237.612" stroke="black" stroke-width="0.008" stroke-miterlimit="10"/>
<path d="M237.612 5.95363H248.82" stroke="black" stroke-width="0.008" stroke-miterlimit="10"/>
<path d="M218.568 5.95364V149.414" stroke="black" stroke-width="0.004" stroke-miterlimit="10"/>
<path d="M222.486 149.414V5.95364" stroke="black" stroke-width="0.004" stroke-miterlimit="10"/>
<path d="M218.568 149.414H207.361" stroke="black" stroke-width="0.008" stroke-miterlimit="10"/>
<path d="M222.486 149.414H233.694" stroke="black" stroke-width="0.008" stroke-miterlimit="10"/>
<path d="M222.486 5.95363H233.694" stroke="black" stroke-width="0.008" stroke-miterlimit="10"/>
<path d="M207.361 149.414V5.95364" stroke="black" stroke-width="0.004" stroke-miterlimit="10"/>
<path d="M203.443 5.95364V149.414" stroke="black" stroke-width="0.004" stroke-miterlimit="10"/>
<path d="M207.361 5.95363H218.568" stroke="black" stroke-width="0.008" stroke-miterlimit="10"/>
<path d="M203.443 5.95363H197.839" stroke="black" stroke-width="0.008" stroke-miterlimit="10"/>
<path d="M319.169 158.554H330.593" stroke="black" stroke-width="0.008" stroke-miterlimit="10"/>
<path d="M330.593 158.554V1.00005" stroke="black" stroke-width="0.008" stroke-miterlimit="10"/>
<path d="M330.593 1.00005H319.169" stroke="black" stroke-width="0.008" stroke-miterlimit="10"/>
<path d="M85.9276 149.414H82.0101" stroke="black" stroke-width="0.008" stroke-miterlimit="10"/>
<path d="M136.903 149.414V5.95364" stroke="black" stroke-width="0.004" stroke-miterlimit="10"/>
<path d="M76.4069 5.95364V149.414" stroke="black" stroke-width="0.004" stroke-miterlimit="10"/>
<path d="M76.2975 5.95364V149.414" stroke="black" stroke-width="0.008" stroke-miterlimit="10"/>
<path d="M131.3 149.414H127.381" stroke="black" stroke-width="0.008" stroke-miterlimit="10"/>
<path d="M136.903 5.95363H131.3" stroke="black" stroke-width="0.008" stroke-miterlimit="10"/>
<path d="M101.055 149.414H97.1352" stroke="black" stroke-width="0.008" stroke-miterlimit="10"/>
<path d="M82.0101 5.95363H85.9276" stroke="black" stroke-width="0.008" stroke-miterlimit="10"/>
<path d="M97.1352 5.95363H101.055" stroke="black" stroke-width="0.008" stroke-miterlimit="10"/>
<path d="M76.4069 149.414H82.0101" stroke="black" stroke-width="0.008" stroke-miterlimit="10"/>
<path d="M112.263 5.95363H116.173" stroke="black" stroke-width="0.008" stroke-miterlimit="10"/>
<path d="M131.3 149.414H136.903" stroke="black" stroke-width="0.008" stroke-miterlimit="10"/>
<path d="M131.3 5.95363H127.381" stroke="black" stroke-width="0.008" stroke-miterlimit="10"/>
<path d="M131.3 149.414V5.95364" stroke="black" stroke-width="0.004" stroke-miterlimit="10"/>
<path d="M127.382 149.414H116.173" stroke="black" stroke-width="0.008" stroke-miterlimit="10"/>
<path d="M127.381 5.95364V149.414" stroke="black" stroke-width="0.004" stroke-miterlimit="10"/>
<path d="M116.173 149.414V5.95364" stroke="black" stroke-width="0.004" stroke-miterlimit="10"/>
<path d="M112.263 5.95364V149.414" stroke="black" stroke-width="0.004" stroke-miterlimit="10"/>
<path d="M112.263 149.414H116.173" stroke="black" stroke-width="0.008" stroke-miterlimit="10"/>
<path d="M116.173 5.95363H127.382" stroke="black" stroke-width="0.008" stroke-miterlimit="10"/>
<path d="M97.1352 5.95364V149.414" stroke="black" stroke-width="0.004" stroke-miterlimit="10"/>
<path d="M101.055 149.414V5.95364" stroke="black" stroke-width="0.004" stroke-miterlimit="10"/>
<path d="M97.1353 149.414H85.9276" stroke="black" stroke-width="0.008" stroke-miterlimit="10"/>
<path d="M101.055 149.414H112.263" stroke="black" stroke-width="0.008" stroke-miterlimit="10"/>
<path d="M101.055 5.95363H112.263" stroke="black" stroke-width="0.008" stroke-miterlimit="10"/>
<path d="M85.9276 149.414V5.95364" stroke="black" stroke-width="0.004" stroke-miterlimit="10"/>
<path d="M82.0101 5.95364V149.414" stroke="black" stroke-width="0.004" stroke-miterlimit="10"/>
<path d="M85.9276 5.95363H97.1353" stroke="black" stroke-width="0.008" stroke-miterlimit="10"/>
<path d="M82.0101 5.95363H76.4069" stroke="black" stroke-width="0.008" stroke-miterlimit="10"/>
<path d="M25.2079 149.414H21.2903" stroke="black" stroke-width="0.008" stroke-miterlimit="10"/>
<path d="M76.191 149.414V5.95364" stroke="black" stroke-width="0.004" stroke-miterlimit="10"/>
<path d="M15.6872 5.95364V149.414" stroke="black" stroke-width="0.004" stroke-miterlimit="10"/>
<path d="M15.5778 5.95364V149.414" stroke="black" stroke-width="0.008" stroke-miterlimit="10"/>
<path d="M70.5872 149.414H66.6674" stroke="black" stroke-width="0.008" stroke-miterlimit="10"/>
<path d="M76.191 5.95363H70.5872" stroke="black" stroke-width="0.008" stroke-miterlimit="10"/>
<path d="M40.3353 149.414H36.4177" stroke="black" stroke-width="0.008" stroke-miterlimit="10"/>
<path d="M21.2903 5.95363H25.2079" stroke="black" stroke-width="0.008" stroke-miterlimit="10"/>
<path d="M36.4177 5.95363H40.3353" stroke="black" stroke-width="0.008" stroke-miterlimit="10"/>
<path d="M15.6872 149.414H21.2904" stroke="black" stroke-width="0.008" stroke-miterlimit="10"/>
<path d="M51.5423 5.95363H55.4598" stroke="black" stroke-width="0.008" stroke-miterlimit="10"/>
<path d="M70.5872 149.414H76.191" stroke="black" stroke-width="0.008" stroke-miterlimit="10"/>
<path d="M70.5872 5.95363H66.6674" stroke="black" stroke-width="0.008" stroke-miterlimit="10"/>
<path d="M70.5872 149.414V5.95364" stroke="black" stroke-width="0.004" stroke-miterlimit="10"/>
<path d="M66.6674 149.414H55.4599" stroke="black" stroke-width="0.008" stroke-miterlimit="10"/>
<path d="M66.6674 5.95364V149.414" stroke="black" stroke-width="0.004" stroke-miterlimit="10"/>
<path d="M55.4599 149.414V5.95364" stroke="black" stroke-width="0.004" stroke-miterlimit="10"/>
<path d="M51.5423 5.95364V149.414" stroke="black" stroke-width="0.004" stroke-miterlimit="10"/>
<path d="M51.5423 149.414H55.4598" stroke="black" stroke-width="0.008" stroke-miterlimit="10"/>
<path d="M55.4599 5.95363H66.6674" stroke="black" stroke-width="0.008" stroke-miterlimit="10"/>
<path d="M36.4177 5.95364V149.414" stroke="black" stroke-width="0.004" stroke-miterlimit="10"/>
<path d="M40.3354 149.414V5.95364" stroke="black" stroke-width="0.004" stroke-miterlimit="10"/>
<path d="M36.4178 149.414H25.2079" stroke="black" stroke-width="0.008" stroke-miterlimit="10"/>
<path d="M40.3354 149.414H51.5424" stroke="black" stroke-width="0.008" stroke-miterlimit="10"/>
<path d="M40.3354 5.95363H51.5424" stroke="black" stroke-width="0.008" stroke-miterlimit="10"/>
<path d="M25.2079 149.414V5.95364" stroke="black" stroke-width="0.004" stroke-miterlimit="10"/>
<path d="M21.2903 5.95364V149.414" stroke="black" stroke-width="0.004" stroke-miterlimit="10"/>
<path d="M25.2079 5.95363H36.4178" stroke="black" stroke-width="0.008" stroke-miterlimit="10"/>
<path d="M21.2904 5.95363H15.6872" stroke="black" stroke-width="0.008" stroke-miterlimit="10"/>
<path d="M268.08 149.414H264.162" stroke="black" stroke-width="0.008" stroke-miterlimit="10"/>
<path d="M319.169 149.414V5.95364" stroke="black" stroke-width="0.008" stroke-miterlimit="10"/>
<path d="M319.061 149.414V5.95364" stroke="black" stroke-width="0.004" stroke-miterlimit="10"/>
<path d="M258.558 5.95364V149.414" stroke="black" stroke-width="0.004" stroke-miterlimit="10"/>
<path d="M313.457 149.414H309.539" stroke="black" stroke-width="0.008" stroke-miterlimit="10"/>
<path d="M319.061 5.95363H313.457" stroke="black" stroke-width="0.008" stroke-miterlimit="10"/>
<path d="M283.206 149.414H279.288" stroke="black" stroke-width="0.008" stroke-miterlimit="10"/>
<path d="M264.162 5.95363H268.08" stroke="black" stroke-width="0.008" stroke-miterlimit="10"/>
<path d="M279.288 5.95363H283.206" stroke="black" stroke-width="0.008" stroke-miterlimit="10"/>
<path d="M258.558 149.414H264.162" stroke="black" stroke-width="0.008" stroke-miterlimit="10"/>
<path d="M294.413 5.95363H298.332" stroke="black" stroke-width="0.008" stroke-miterlimit="10"/>
<path d="M313.457 149.414H319.061" stroke="black" stroke-width="0.008" stroke-miterlimit="10"/>
<path d="M313.457 5.95363H309.539" stroke="black" stroke-width="0.008" stroke-miterlimit="10"/>
<path d="M313.457 149.414V5.95364" stroke="black" stroke-width="0.004" stroke-miterlimit="10"/>
<path d="M309.539 149.414H298.331" stroke="black" stroke-width="0.008" stroke-miterlimit="10"/>
<path d="M309.539 5.95364V149.414" stroke="black" stroke-width="0.004" stroke-miterlimit="10"/>
<path d="M298.331 149.414V5.95364" stroke="black" stroke-width="0.004" stroke-miterlimit="10"/>
<path d="M294.413 5.95364V149.414" stroke="black" stroke-width="0.004" stroke-miterlimit="10"/>
<path d="M294.413 149.414H298.332" stroke="black" stroke-width="0.008" stroke-miterlimit="10"/>
<path d="M298.331 5.95363H309.539" stroke="black" stroke-width="0.008" stroke-miterlimit="10"/>
<path d="M279.288 5.95364V149.414" stroke="black" stroke-width="0.004" stroke-miterlimit="10"/>
<path d="M283.206 149.414V5.95364" stroke="black" stroke-width="0.004" stroke-miterlimit="10"/>
<path d="M279.288 149.414H268.08" stroke="black" stroke-width="0.008" stroke-miterlimit="10"/>
<path d="M283.206 149.414H294.413" stroke="black" stroke-width="0.008" stroke-miterlimit="10"/>
<path d="M283.206 5.95363H294.413" stroke="black" stroke-width="0.008" stroke-miterlimit="10"/>
<path d="M268.08 149.414V5.95364" stroke="black" stroke-width="0.004" stroke-miterlimit="10"/>
<path d="M264.162 5.95364V149.414" stroke="black" stroke-width="0.004" stroke-miterlimit="10"/>
<path d="M268.08 5.95363H279.288" stroke="black" stroke-width="0.008" stroke-miterlimit="10"/>
<path d="M264.162 5.95363H258.558" stroke="black" stroke-width="0.008" stroke-miterlimit="10"/>
<path d="M319.169 157.842V149.414" stroke="black" stroke-width="0.008" stroke-miterlimit="10"/>
<path d="M15.5778 149.414V157.842" stroke="black" stroke-width="0.008" stroke-miterlimit="10"/>
<path d="M15.5778 157.842H319.169" stroke="black" stroke-width="0.008" stroke-miterlimit="10"/>
<path d="M15.5778 157.842V158.554" stroke="black" stroke-width="0.008" stroke-miterlimit="10"/>
<path d="M319.169 1.00006V2.69075" stroke="black" stroke-width="0.008" stroke-miterlimit="10"/>
<path d="M319.169 157.842V158.554" stroke="black" stroke-width="0.008" stroke-miterlimit="10"/>
<path d="M15.5778 1.00006V2.69075" stroke="black" stroke-width="0.008" stroke-miterlimit="10"/>
</svg>
