<svg width="134" height="159" viewBox="0 0 134 159" fill="none" xmlns="http://www.w3.org/2000/svg">
<path d="M95.9228 95.7972V99.7651H78.2116V152.183H74.2422V150.008V149.467V148.869V140.708V119.382V112.088V82.9847V75.6952V46.5909V39.302V17.9763V9.81505V8.83673V6.75654H78.2116V8.83673V9.81505V17.9763V39.302V46.5909V75.6952V82.9847V95.7972" fill="white"/>
<path d="M95.9229 99.7651V95.7972H78.2117V82.9847H99.7043V112.088H78.2117V99.7651" fill="white"/>
<path d="M74.2422 152.183H78.2116V150.008H99.7042V152.183H103.679V150.008H130.981V152.132H124.83V157.626H9.81563V152.132H3.66516V150.008H30.9837V152.183H34.9587V150.008H56.4513V152.183H60.4207V150.008H74.2422" fill="#EDEDED"/>
<path d="M78.2116 6.75649H74.2422V8.83668H60.4207V6.75649H56.4513V8.83668H34.9587V6.75649H30.9837V8.83668H3.66516V7.41706H9.81563V1.32456H124.83V7.41706H130.981V8.83668H103.679V6.75649H99.7042V8.83668H78.2116" fill="#EDEDED"/>
<path d="M103.679 152.183H99.7042V6.75654H103.679V8.83673V9.81505V17.9763V39.302V46.5909V75.6952V82.9847V95.7972H121.385V99.7651H103.679V112.088V119.382V140.708V148.869V149.467V150.008" fill="white"/>
<path d="M121.385 99.7651V95.7972H103.679V82.9847H124.557V112.088H103.679V99.7651" fill="white"/>
<path d="M78.2117 82.9846H99.7033V75.6953H78.2117V82.9846Z" fill="#EDEDED"/>
<path d="M103.679 82.9846H124.557V75.6953H103.679V82.9846Z" fill="#EDEDED"/>
<path d="M124.557 112.088V9.81507H130.001V148.869H124.557V140.708V119.382" fill="#EDEDED"/>
<path d="M103.679 75.6952H124.557V46.5912H103.679V75.6952Z" fill="white"/>
<path d="M103.679 119.382H124.557V112.089H103.679V119.382Z" fill="#EDEDED"/>
<path d="M78.2117 119.382H99.7033V112.089H78.2117V119.382Z" fill="#EDEDED"/>
<path d="M103.679 46.5909H124.557V39.3016H103.679V46.5909Z" fill="#EDEDED"/>
<path d="M78.2117 75.6952H99.7033V46.5912H78.2117V75.6952Z" fill="white"/>
<path d="M78.2117 46.5909H99.7033V39.3016H78.2117V46.5909Z" fill="#EDEDED"/>
<path d="M103.679 39.302H124.557V17.9768H103.679V39.302Z" fill="white"/>
<path d="M78.2117 39.302H99.7033V17.9768H78.2117V39.302Z" fill="white"/>
<path d="M78.2117 140.707H99.7033V119.382H78.2117V140.707Z" fill="white"/>
<path d="M103.679 140.707H124.557V119.382H103.679V140.707Z" fill="white"/>
<path d="M103.679 148.869H124.557V140.708H103.679V148.869Z" fill="#EDEDED"/>
<path d="M78.2117 148.869H99.7033V140.708H78.2117V148.869Z" fill="#EDEDED"/>
<path d="M103.679 17.9763H124.557V9.81503H103.679V17.9763Z" fill="#EDEDED"/>
<path d="M78.2117 17.9763H99.7033V9.81503H78.2117V17.9763Z" fill="#EDEDED"/>
<path d="M130.981 149.467V7.41716H133.646V152.132H130.981V150.008" fill="#EDEDED"/>
<path d="M103.679 150.008H130.982V149.467H103.679V150.008Z" fill="#EDEDED"/>
<path d="M78.2117 150.008H99.7033V149.467H78.2117V150.008Z" fill="#EDEDED"/>
<path d="M60.4208 150.008H74.242V149.467H60.4208V150.008Z" fill="#EDEDED"/>
<path d="M60.4208 17.9763H61.3951V9.81503H60.4208V17.9763Z" fill="#EDEDED"/>
<path d="M60.4208 39.302H61.3951V17.9768H60.4208V39.302Z" fill="white"/>
<path d="M61.3945 39.302V9.81507H66.8332V148.869H61.3945V140.708V119.382V112.088V82.9847V75.6952V46.5909" fill="#EDEDED"/>
<path d="M60.4208 82.9846H61.3951V75.6953H60.4208V82.9846Z" fill="#EDEDED"/>
<path d="M60.4208 112.088H61.3951V82.9845H60.4208V112.088Z" fill="white"/>
<path d="M60.4208 119.382H61.3951V112.089H60.4208V119.382Z" fill="#EDEDED"/>
<path d="M60.4208 46.5909H61.3951V39.3016H60.4208V46.5909Z" fill="#EDEDED"/>
<path d="M60.4208 75.6952H61.3951V46.5912H60.4208V75.6952Z" fill="white"/>
<path d="M60.4208 140.707H61.3951V119.382H60.4208V140.707Z" fill="white"/>
<path d="M60.4208 148.869H61.3951V140.708H60.4208V148.869Z" fill="#EDEDED"/>
<path d="M73.2512 17.9763H74.2412V9.81503H73.2512V17.9763Z" fill="#EDEDED"/>
<path d="M73.2512 39.302H74.2412V17.9768H73.2512V39.302Z" fill="white"/>
<path d="M73.2513 17.9763V148.869H67.8127V9.81507H73.2513" fill="#EDEDED"/>
<path d="M73.2512 82.9846H74.2412V75.6953H73.2512V82.9846Z" fill="#EDEDED"/>
<path d="M73.2512 112.088H74.2412V82.9845H73.2512V112.088Z" fill="white"/>
<path d="M73.2512 119.382H74.2412V112.089H73.2512V119.382Z" fill="#EDEDED"/>
<path d="M73.2512 46.5909H74.2412V39.3016H73.2512V46.5909Z" fill="#EDEDED"/>
<path d="M73.2512 75.6952H74.2412V46.5912H73.2512V75.6952Z" fill="white"/>
<path d="M73.2512 140.707H74.2412V119.382H73.2512V140.707Z" fill="white"/>
<path d="M73.2512 148.869H74.2412V140.708H73.2512V148.869Z" fill="#EDEDED"/>
<path d="M34.9586 150.008H56.4503V149.467H34.9586V150.008Z" fill="#EDEDED"/>
<path d="M34.9586 148.869H56.4503V140.708H34.9586V148.869Z" fill="#EDEDED"/>
<path d="M34.9586 140.707H56.4503V119.382H34.9586V140.707Z" fill="white"/>
<path d="M34.9586 119.382H56.4503V112.089H34.9586V119.382Z" fill="#EDEDED"/>
<path d="M56.4513 112.088H34.9586V82.9847H56.4513V95.7972H38.7401V99.7651H56.4513" fill="white"/>
<path d="M34.9586 82.9846H56.4503V75.6953H34.9586V82.9846Z" fill="#EDEDED"/>
<path d="M34.9586 75.6952H56.4503V46.5912H34.9586V75.6952Z" fill="white"/>
<path d="M34.9586 46.5909H56.4503V39.3016H34.9586V46.5909Z" fill="#EDEDED"/>
<path d="M34.9586 39.302H56.4503V17.9768H34.9586V39.302Z" fill="white"/>
<path d="M34.9586 17.9763H56.4503V9.81503H34.9586V17.9763Z" fill="#EDEDED"/>
<path d="M3.66516 150.008H30.9852V149.467H3.66516V150.008Z" fill="#EDEDED"/>
<path d="M3.66528 149.467V152.132H1V7.41716H3.66528V8.83677" fill="#EDEDED"/>
<path d="M4.64478 9.81513H10.0883V148.868H4.64478V9.81513Z" fill="#EDEDED"/>
<path d="M10.0891 75.6952H30.9845V46.5912H10.0891V75.6952Z" fill="white"/>
<path d="M10.0891 112.088V82.9847H30.9837V95.7972H13.2782V99.7651H30.9837V112.088" fill="white"/>
<path d="M10.0891 82.9846H30.9845V75.6953H10.0891V82.9846Z" fill="#EDEDED"/>
<path d="M10.0891 119.382H30.9845V112.089H10.0891V119.382Z" fill="#EDEDED"/>
<path d="M10.0891 46.5909H30.9845V39.3016H10.0891V46.5909Z" fill="#EDEDED"/>
<path d="M10.0891 39.302H30.9845V17.9768H10.0891V39.302Z" fill="white"/>
<path d="M10.0891 140.707H30.9845V119.382H10.0891V140.707Z" fill="white"/>
<path d="M10.0891 148.869H30.9845V140.708H10.0891V148.869Z" fill="#EDEDED"/>
<path d="M10.0891 17.9763H30.9845V9.81503H10.0891V17.9763Z" fill="#EDEDED"/>
<path d="M133.646 152.132V158.549H124.83V152.132H130.981" fill="#EDEDED"/>
<path d="M1 1.00009H9.81604V7.41743H1V1.00009Z" fill="#EDEDED"/>
<path d="M9.8158 157.626V158.549H1V152.132H3.66527H9.8158" fill="#EDEDED"/>
<path d="M124.83 1H133.646V7.41706H124.83V1.32455" fill="#EDEDED"/>
<path d="M38.7402 99.7651V95.7972H56.4514V6.75654H60.4208V8.83673V9.81505V17.9763V39.302V46.5909V75.6952V82.9847V112.088V119.382V140.708V148.869V149.467V150.008V152.183H56.4514V150.008V149.467V148.869V140.708V119.382V112.088V99.7651" fill="white"/>
<path d="M13.2782 99.7651V95.7972H30.9837V6.75654H34.9587V8.83673V9.81505V17.9763V39.302V46.5909V75.6952V82.9847V112.088V119.382V140.708V148.869V149.467V150.008V152.183H30.9837V150.008V149.467V148.869V140.708V119.382V112.088V99.7651" fill="white"/>
<path d="M95.9229 95.7971V99.765" stroke="black" stroke-width="0.008" stroke-miterlimit="10"/>
<path d="M121.385 95.7971V99.765" stroke="black" stroke-width="0.008" stroke-miterlimit="10"/>
<path d="M74.2422 152.183H78.2116" stroke="black" stroke-width="0.008" stroke-miterlimit="10"/>
<path d="M78.2116 6.75651H74.2422" stroke="black" stroke-width="0.008" stroke-miterlimit="10"/>
<path d="M99.7042 152.183H103.679" stroke="black" stroke-width="0.008" stroke-miterlimit="10"/>
<path d="M61.3946 82.9846H60.4208" stroke="black" stroke-width="0.004" stroke-miterlimit="10"/>
<path d="M56.4513 82.9846H34.9586" stroke="black" stroke-width="0.004" stroke-miterlimit="10"/>
<path d="M30.9837 82.9846H10.0891" stroke="black" stroke-width="0.004" stroke-miterlimit="10"/>
<path d="M10.0891 46.5909V75.6952" stroke="black" stroke-width="0.004" stroke-miterlimit="10"/>
<path d="M61.3945 39.302V17.9763" stroke="black" stroke-width="0.004" stroke-miterlimit="10"/>
<path d="M61.3945 82.9846V75.6952" stroke="black" stroke-width="0.004" stroke-miterlimit="10"/>
<path d="M10.0891 82.9847V112.088" stroke="black" stroke-width="0.004" stroke-miterlimit="10"/>
<path d="M61.3945 112.088V82.9847" stroke="black" stroke-width="0.004" stroke-miterlimit="10"/>
<path d="M10.0891 112.088H30.9837" stroke="black" stroke-width="0.004" stroke-miterlimit="10"/>
<path d="M34.9586 112.088H56.4513" stroke="black" stroke-width="0.004" stroke-miterlimit="10"/>
<path d="M60.4208 112.088H61.3946" stroke="black" stroke-width="0.004" stroke-miterlimit="10"/>
<path d="M61.3945 46.5909V39.302" stroke="black" stroke-width="0.004" stroke-miterlimit="10"/>
<path d="M61.3946 46.5909H60.4208" stroke="black" stroke-width="0.004" stroke-miterlimit="10"/>
<path d="M56.4513 46.5909H34.9586" stroke="black" stroke-width="0.004" stroke-miterlimit="10"/>
<path d="M30.9837 46.5909H10.0891" stroke="black" stroke-width="0.004" stroke-miterlimit="10"/>
<path d="M61.3945 75.6952V46.5909" stroke="black" stroke-width="0.004" stroke-miterlimit="10"/>
<path d="M10.0891 75.6952H30.9837" stroke="black" stroke-width="0.004" stroke-miterlimit="10"/>
<path d="M34.9586 75.6952H56.4513" stroke="black" stroke-width="0.004" stroke-miterlimit="10"/>
<path d="M60.4208 75.6952H61.3946" stroke="black" stroke-width="0.004" stroke-miterlimit="10"/>
<path d="M10.0891 39.302V46.5909" stroke="black" stroke-width="0.004" stroke-miterlimit="10"/>
<path d="M10.0891 39.302H30.9837" stroke="black" stroke-width="0.004" stroke-miterlimit="10"/>
<path d="M34.9586 39.302H56.4513" stroke="black" stroke-width="0.004" stroke-miterlimit="10"/>
<path d="M60.4208 39.302H61.3946" stroke="black" stroke-width="0.004" stroke-miterlimit="10"/>
<path d="M10.0891 75.6952V82.9846" stroke="black" stroke-width="0.004" stroke-miterlimit="10"/>
<path d="M61.3946 119.382H60.4208" stroke="black" stroke-width="0.004" stroke-miterlimit="10"/>
<path d="M56.4513 119.382H34.9586" stroke="black" stroke-width="0.004" stroke-miterlimit="10"/>
<path d="M30.9837 119.382H10.0891" stroke="black" stroke-width="0.004" stroke-miterlimit="10"/>
<path d="M10.0891 119.382V140.707" stroke="black" stroke-width="0.004" stroke-miterlimit="10"/>
<path d="M61.3945 140.707V119.382" stroke="black" stroke-width="0.004" stroke-miterlimit="10"/>
<path d="M10.0891 140.707H30.9837" stroke="black" stroke-width="0.004" stroke-miterlimit="10"/>
<path d="M34.9586 140.707H56.4513" stroke="black" stroke-width="0.004" stroke-miterlimit="10"/>
<path d="M60.4208 140.707H61.3946" stroke="black" stroke-width="0.004" stroke-miterlimit="10"/>
<path d="M10.0891 112.088V119.382" stroke="black" stroke-width="0.004" stroke-miterlimit="10"/>
<path d="M10.0891 17.9763V39.302" stroke="black" stroke-width="0.004" stroke-miterlimit="10"/>
<path d="M10.0891 17.9763H30.9837" stroke="black" stroke-width="0.004" stroke-miterlimit="10"/>
<path d="M34.9586 17.9763H56.4513" stroke="black" stroke-width="0.004" stroke-miterlimit="10"/>
<path d="M60.4208 17.9763H61.3946" stroke="black" stroke-width="0.004" stroke-miterlimit="10"/>
<path d="M4.64478 148.869V9.81507" stroke="black" stroke-width="0.008" stroke-miterlimit="10"/>
<path d="M4.64478 9.81507H10.0892" stroke="black" stroke-width="0.008" stroke-miterlimit="10"/>
<path d="M10.0891 9.81503V17.9763" stroke="black" stroke-width="0.004" stroke-miterlimit="10"/>
<path d="M10.0891 140.708V148.869" stroke="black" stroke-width="0.004" stroke-miterlimit="10"/>
<path d="M10.0892 148.869H4.64478" stroke="black" stroke-width="0.008" stroke-miterlimit="10"/>
<path d="M61.3946 9.81507H60.4208" stroke="black" stroke-width="0.008" stroke-miterlimit="10"/>
<path d="M56.4513 9.81507H34.9586" stroke="black" stroke-width="0.008" stroke-miterlimit="10"/>
<path d="M30.9837 9.81507H10.0891" stroke="black" stroke-width="0.008" stroke-miterlimit="10"/>
<path d="M61.3946 148.869H60.4208" stroke="black" stroke-width="0.008" stroke-miterlimit="10"/>
<path d="M56.4513 148.869H34.9586" stroke="black" stroke-width="0.008" stroke-miterlimit="10"/>
<path d="M30.9837 148.869H10.0891" stroke="black" stroke-width="0.008" stroke-miterlimit="10"/>
<path d="M61.3945 119.382V112.088" stroke="black" stroke-width="0.004" stroke-miterlimit="10"/>
<path d="M61.3945 148.869V140.708" stroke="black" stroke-width="0.004" stroke-miterlimit="10"/>
<path d="M66.8332 148.869H61.3945" stroke="black" stroke-width="0.008" stroke-miterlimit="10"/>
<path d="M66.8333 9.81507V148.869" stroke="black" stroke-width="0.008" stroke-miterlimit="10"/>
<path d="M61.3945 9.81507H66.8332" stroke="black" stroke-width="0.008" stroke-miterlimit="10"/>
<path d="M61.3945 17.9763V9.81503" stroke="black" stroke-width="0.004" stroke-miterlimit="10"/>
<path d="M73.2512 82.9846H74.2422" stroke="black" stroke-width="0.004" stroke-miterlimit="10"/>
<path d="M78.2117 82.9846H99.7043" stroke="black" stroke-width="0.004" stroke-miterlimit="10"/>
<path d="M103.679 82.9846H124.557" stroke="black" stroke-width="0.004" stroke-miterlimit="10"/>
<path d="M124.557 46.5909V75.6952" stroke="black" stroke-width="0.004" stroke-miterlimit="10"/>
<path d="M73.2512 39.302V17.9763" stroke="black" stroke-width="0.004" stroke-miterlimit="10"/>
<path d="M73.2512 82.9846V75.6952" stroke="black" stroke-width="0.004" stroke-miterlimit="10"/>
<path d="M124.557 82.9847V112.088" stroke="black" stroke-width="0.004" stroke-miterlimit="10"/>
<path d="M73.2512 112.088V82.9847" stroke="black" stroke-width="0.004" stroke-miterlimit="10"/>
<path d="M124.557 112.088H103.679" stroke="black" stroke-width="0.004" stroke-miterlimit="10"/>
<path d="M99.7043 112.088H78.2117" stroke="black" stroke-width="0.004" stroke-miterlimit="10"/>
<path d="M74.2422 112.088H73.2512" stroke="black" stroke-width="0.004" stroke-miterlimit="10"/>
<path d="M73.2512 46.5909V39.302" stroke="black" stroke-width="0.004" stroke-miterlimit="10"/>
<path d="M73.2512 46.5909H74.2422" stroke="black" stroke-width="0.004" stroke-miterlimit="10"/>
<path d="M78.2117 46.5909H99.7043" stroke="black" stroke-width="0.004" stroke-miterlimit="10"/>
<path d="M103.679 46.5909H124.557" stroke="black" stroke-width="0.004" stroke-miterlimit="10"/>
<path d="M73.2512 75.6952V46.5909" stroke="black" stroke-width="0.004" stroke-miterlimit="10"/>
<path d="M124.557 75.6952H103.679" stroke="black" stroke-width="0.004" stroke-miterlimit="10"/>
<path d="M99.7043 75.6952H78.2117" stroke="black" stroke-width="0.004" stroke-miterlimit="10"/>
<path d="M74.2422 75.6952H73.2512" stroke="black" stroke-width="0.004" stroke-miterlimit="10"/>
<path d="M124.557 39.302V46.5909" stroke="black" stroke-width="0.004" stroke-miterlimit="10"/>
<path d="M124.557 39.302H103.679" stroke="black" stroke-width="0.004" stroke-miterlimit="10"/>
<path d="M99.7043 39.302H78.2117" stroke="black" stroke-width="0.004" stroke-miterlimit="10"/>
<path d="M74.2422 39.302H73.2512" stroke="black" stroke-width="0.004" stroke-miterlimit="10"/>
<path d="M124.557 75.6952V82.9846" stroke="black" stroke-width="0.004" stroke-miterlimit="10"/>
<path d="M73.2512 119.382H74.2422" stroke="black" stroke-width="0.004" stroke-miterlimit="10"/>
<path d="M78.2117 119.382H99.7043" stroke="black" stroke-width="0.004" stroke-miterlimit="10"/>
<path d="M103.679 119.382H124.557" stroke="black" stroke-width="0.004" stroke-miterlimit="10"/>
<path d="M124.557 119.382V140.707" stroke="black" stroke-width="0.004" stroke-miterlimit="10"/>
<path d="M73.2512 140.707V119.382" stroke="black" stroke-width="0.004" stroke-miterlimit="10"/>
<path d="M124.557 140.707H103.679" stroke="black" stroke-width="0.004" stroke-miterlimit="10"/>
<path d="M99.7043 140.707H78.2117" stroke="black" stroke-width="0.004" stroke-miterlimit="10"/>
<path d="M74.2422 140.707H73.2512" stroke="black" stroke-width="0.004" stroke-miterlimit="10"/>
<path d="M124.557 112.088V119.382" stroke="black" stroke-width="0.004" stroke-miterlimit="10"/>
<path d="M124.557 17.9763V39.302" stroke="black" stroke-width="0.004" stroke-miterlimit="10"/>
<path d="M124.557 17.9763H103.679" stroke="black" stroke-width="0.004" stroke-miterlimit="10"/>
<path d="M99.7043 17.9763H78.2117" stroke="black" stroke-width="0.004" stroke-miterlimit="10"/>
<path d="M74.2422 17.9763H73.2512" stroke="black" stroke-width="0.004" stroke-miterlimit="10"/>
<path d="M130.001 148.869V9.81507" stroke="black" stroke-width="0.008" stroke-miterlimit="10"/>
<path d="M130.001 9.81507H124.557" stroke="black" stroke-width="0.008" stroke-miterlimit="10"/>
<path d="M124.557 9.81503V17.9763" stroke="black" stroke-width="0.004" stroke-miterlimit="10"/>
<path d="M124.557 140.708V148.869" stroke="black" stroke-width="0.004" stroke-miterlimit="10"/>
<path d="M124.557 148.869H130.001" stroke="black" stroke-width="0.008" stroke-miterlimit="10"/>
<path d="M73.2512 9.81507H74.2422" stroke="black" stroke-width="0.008" stroke-miterlimit="10"/>
<path d="M78.2117 9.81507H99.7043" stroke="black" stroke-width="0.008" stroke-miterlimit="10"/>
<path d="M103.679 9.81507H124.557" stroke="black" stroke-width="0.008" stroke-miterlimit="10"/>
<path d="M73.2512 148.869H74.2422" stroke="black" stroke-width="0.008" stroke-miterlimit="10"/>
<path d="M78.2117 148.869H99.7043" stroke="black" stroke-width="0.008" stroke-miterlimit="10"/>
<path d="M103.679 148.869H124.557" stroke="black" stroke-width="0.008" stroke-miterlimit="10"/>
<path d="M73.2512 119.382V112.088" stroke="black" stroke-width="0.004" stroke-miterlimit="10"/>
<path d="M73.2512 148.869V140.708" stroke="black" stroke-width="0.004" stroke-miterlimit="10"/>
<path d="M67.8127 148.869H73.2513" stroke="black" stroke-width="0.008" stroke-miterlimit="10"/>
<path d="M67.8127 9.81507V148.869" stroke="black" stroke-width="0.008" stroke-miterlimit="10"/>
<path d="M73.2513 9.81507H67.8127" stroke="black" stroke-width="0.008" stroke-miterlimit="10"/>
<path d="M73.2512 17.9763V9.81503" stroke="black" stroke-width="0.004" stroke-miterlimit="10"/>
<path d="M130.981 149.467V150.008" stroke="black" stroke-width="0.004" stroke-miterlimit="10"/>
<path d="M130.981 8.83677V149.467" stroke="black" stroke-width="0.008" stroke-miterlimit="10"/>
<path d="M133.646 152.132V158.549" stroke="black" stroke-width="0.008" stroke-miterlimit="10"/>
<path d="M124.83 158.549V157.626" stroke="black" stroke-width="0.008" stroke-miterlimit="10"/>
<path d="M133.646 158.549H124.83" stroke="black" stroke-width="0.008" stroke-miterlimit="10"/>
<path d="M1 1.0001H9.8158" stroke="black" stroke-width="0.008" stroke-miterlimit="10"/>
<path d="M3.66516 150.008V149.467" stroke="black" stroke-width="0.004" stroke-miterlimit="10"/>
<path d="M3.66516 149.467H30.9836" stroke="black" stroke-width="0.008" stroke-miterlimit="10"/>
<path d="M34.9586 149.467H56.4513" stroke="black" stroke-width="0.008" stroke-miterlimit="10"/>
<path d="M60.4207 149.467H74.2422" stroke="black" stroke-width="0.008" stroke-miterlimit="10"/>
<path d="M78.2117 149.467H99.7043" stroke="black" stroke-width="0.008" stroke-miterlimit="10"/>
<path d="M103.679 149.467H130.981" stroke="black" stroke-width="0.008" stroke-miterlimit="10"/>
<path d="M130.981 150.008H103.679" stroke="black" stroke-width="0.004" stroke-miterlimit="10"/>
<path d="M99.7043 150.008H78.2117" stroke="black" stroke-width="0.004" stroke-miterlimit="10"/>
<path d="M74.2422 150.008H60.4207" stroke="black" stroke-width="0.004" stroke-miterlimit="10"/>
<path d="M56.4513 150.008H34.9586" stroke="black" stroke-width="0.004" stroke-miterlimit="10"/>
<path d="M30.9836 150.008H3.66516" stroke="black" stroke-width="0.004" stroke-miterlimit="10"/>
<path d="M9.81567 1.32462H124.83" stroke="black" stroke-width="0.008" stroke-miterlimit="10"/>
<path d="M3.66516 149.467V8.83677" stroke="black" stroke-width="0.008" stroke-miterlimit="10"/>
<path d="M3.66516 8.83668H30.9836" stroke="black" stroke-width="0.008" stroke-miterlimit="10"/>
<path d="M34.9586 8.83668H56.4513" stroke="black" stroke-width="0.008" stroke-miterlimit="10"/>
<path d="M60.4207 8.83668H74.2422" stroke="black" stroke-width="0.008" stroke-miterlimit="10"/>
<path d="M78.2117 8.83668H99.7043" stroke="black" stroke-width="0.008" stroke-miterlimit="10"/>
<path d="M103.679 8.83668H130.981" stroke="black" stroke-width="0.008" stroke-miterlimit="10"/>
<path d="M9.81567 158.549V157.626" stroke="black" stroke-width="0.008" stroke-miterlimit="10"/>
<path d="M1 158.549H9.8158" stroke="black" stroke-width="0.008" stroke-miterlimit="10"/>
<path d="M1 152.132V158.549" stroke="black" stroke-width="0.008" stroke-miterlimit="10"/>
<path d="M124.83 1.0001H133.646" stroke="black" stroke-width="0.008" stroke-miterlimit="10"/>
<path d="M9.81567 157.626H124.83" stroke="black" stroke-width="0.008" stroke-miterlimit="10"/>
<path d="M9.81567 157.626V152.132" stroke="black" stroke-width="0.004" stroke-miterlimit="10"/>
<path d="M1 1V7.41706" stroke="black" stroke-width="0.008" stroke-miterlimit="10"/>
<path d="M3.66528 152.132H1" stroke="black" stroke-width="0.004" stroke-miterlimit="10"/>
<path d="M3.66516 152.132V150.008" stroke="black" stroke-width="0.004" stroke-miterlimit="10"/>
<path d="M9.81567 152.132H3.66516" stroke="black" stroke-width="0.004" stroke-miterlimit="10"/>
<path d="M124.83 157.626V152.132" stroke="black" stroke-width="0.004" stroke-miterlimit="10"/>
<path d="M133.646 1V7.41706" stroke="black" stroke-width="0.008" stroke-miterlimit="10"/>
<path d="M124.83 152.132H130.981" stroke="black" stroke-width="0.004" stroke-miterlimit="10"/>
<path d="M130.981 152.132H133.646" stroke="black" stroke-width="0.004" stroke-miterlimit="10"/>
<path d="M130.981 150.008V152.132" stroke="black" stroke-width="0.004" stroke-miterlimit="10"/>
<path d="M124.83 7.41706V1.32455" stroke="black" stroke-width="0.004" stroke-miterlimit="10"/>
<path d="M133.646 7.41716V152.132" stroke="black" stroke-width="0.008" stroke-miterlimit="10"/>
<path d="M133.646 7.41706H130.981" stroke="black" stroke-width="0.004" stroke-miterlimit="10"/>
<path d="M130.981 7.41706H124.83" stroke="black" stroke-width="0.004" stroke-miterlimit="10"/>
<path d="M130.981 7.41706V8.83668" stroke="black" stroke-width="0.004" stroke-miterlimit="10"/>
<path d="M1 7.41716V152.132" stroke="black" stroke-width="0.008" stroke-miterlimit="10"/>
<path d="M1 7.41706H3.66528" stroke="black" stroke-width="0.004" stroke-miterlimit="10"/>
<path d="M3.66516 7.41706H9.81567" stroke="black" stroke-width="0.004" stroke-miterlimit="10"/>
<path d="M3.66516 8.83668V7.41706" stroke="black" stroke-width="0.004" stroke-miterlimit="10"/>
<path d="M9.81567 7.41706V1.32455" stroke="black" stroke-width="0.004" stroke-miterlimit="10"/>
<path d="M38.7402 95.7971V99.765" stroke="black" stroke-width="0.008" stroke-miterlimit="10"/>
<path d="M13.2782 95.7971V99.765" stroke="black" stroke-width="0.008" stroke-miterlimit="10"/>
<path d="M60.4208 152.183H56.4514" stroke="black" stroke-width="0.008" stroke-miterlimit="10"/>
<path d="M56.4514 6.75651H60.4208" stroke="black" stroke-width="0.008" stroke-miterlimit="10"/>
<path d="M34.9587 152.183H30.9836" stroke="black" stroke-width="0.008" stroke-miterlimit="10"/>
<path d="M34.9586 152.183V150.008" stroke="black" stroke-width="0.008" stroke-miterlimit="10"/>
<path d="M60.4208 152.183V150.008" stroke="black" stroke-width="0.008" stroke-miterlimit="10"/>
<path d="M103.679 9.81503V17.9763" stroke="black" stroke-width="0.008" stroke-miterlimit="10"/>
<path d="M103.679 148.869V149.467" stroke="black" stroke-width="0.008" stroke-miterlimit="10"/>
<path d="M103.679 149.467V150.008" stroke="black" stroke-width="0.008" stroke-miterlimit="10"/>
<path d="M103.679 150.008V152.183" stroke="black" stroke-width="0.008" stroke-miterlimit="10"/>
<path d="M99.7042 149.467V148.869" stroke="black" stroke-width="0.008" stroke-miterlimit="10"/>
<path d="M99.7042 17.9763V9.81503" stroke="black" stroke-width="0.008" stroke-miterlimit="10"/>
<path d="M78.2117 9.81503V17.9763" stroke="black" stroke-width="0.008" stroke-miterlimit="10"/>
<path d="M78.2117 148.869V149.467" stroke="black" stroke-width="0.008" stroke-miterlimit="10"/>
<path d="M74.2422 149.467V148.869" stroke="black" stroke-width="0.008" stroke-miterlimit="10"/>
<path d="M74.2422 17.9763V9.81503" stroke="black" stroke-width="0.008" stroke-miterlimit="10"/>
<path d="M30.9836 9.81503V17.9763" stroke="black" stroke-width="0.008" stroke-miterlimit="10"/>
<path d="M30.9836 148.869V149.467" stroke="black" stroke-width="0.008" stroke-miterlimit="10"/>
<path d="M30.9836 149.467V150.008" stroke="black" stroke-width="0.008" stroke-miterlimit="10"/>
<path d="M30.9836 150.008V152.183" stroke="black" stroke-width="0.008" stroke-miterlimit="10"/>
<path d="M34.9586 150.008V149.467" stroke="black" stroke-width="0.008" stroke-miterlimit="10"/>
<path d="M34.9586 17.9763V9.81503" stroke="black" stroke-width="0.008" stroke-miterlimit="10"/>
<path d="M56.4514 9.81503V17.9763" stroke="black" stroke-width="0.008" stroke-miterlimit="10"/>
<path d="M56.4514 148.869V149.467" stroke="black" stroke-width="0.008" stroke-miterlimit="10"/>
<path d="M56.4514 149.467V150.008" stroke="black" stroke-width="0.008" stroke-miterlimit="10"/>
<path d="M56.4514 150.008V152.183" stroke="black" stroke-width="0.008" stroke-miterlimit="10"/>
<path d="M60.4208 150.008V149.467" stroke="black" stroke-width="0.008" stroke-miterlimit="10"/>
<path d="M60.4208 17.9763V9.81503" stroke="black" stroke-width="0.008" stroke-miterlimit="10"/>
<path d="M103.679 6.75649V8.83668" stroke="black" stroke-width="0.008" stroke-miterlimit="10"/>
<path d="M103.679 8.83676V9.81507" stroke="black" stroke-width="0.008" stroke-miterlimit="10"/>
<path d="M99.7042 152.183V150.008" stroke="black" stroke-width="0.008" stroke-miterlimit="10"/>
<path d="M99.7042 150.008V149.467" stroke="black" stroke-width="0.008" stroke-miterlimit="10"/>
<path d="M99.7042 9.81507V8.83676" stroke="black" stroke-width="0.008" stroke-miterlimit="10"/>
<path d="M99.7042 8.83668V6.75649" stroke="black" stroke-width="0.008" stroke-miterlimit="10"/>
<path d="M78.2117 6.75649V8.83668" stroke="black" stroke-width="0.008" stroke-miterlimit="10"/>
<path d="M78.2117 8.83676V9.81507" stroke="black" stroke-width="0.008" stroke-miterlimit="10"/>
<path d="M78.2117 149.467V150.008" stroke="black" stroke-width="0.008" stroke-miterlimit="10"/>
<path d="M78.2117 150.008V152.183" stroke="black" stroke-width="0.008" stroke-miterlimit="10"/>
<path d="M74.2422 152.183V150.008" stroke="black" stroke-width="0.008" stroke-miterlimit="10"/>
<path d="M74.2422 150.008V149.467" stroke="black" stroke-width="0.008" stroke-miterlimit="10"/>
<path d="M74.2422 9.81507V8.83676" stroke="black" stroke-width="0.008" stroke-miterlimit="10"/>
<path d="M74.2422 8.83668V6.75649" stroke="black" stroke-width="0.008" stroke-miterlimit="10"/>
<path d="M30.9836 6.75649V8.83668" stroke="black" stroke-width="0.008" stroke-miterlimit="10"/>
<path d="M30.9836 8.83676V9.81507" stroke="black" stroke-width="0.008" stroke-miterlimit="10"/>
<path d="M34.9586 149.467V148.869" stroke="black" stroke-width="0.008" stroke-miterlimit="10"/>
<path d="M34.9586 9.81507V8.83676" stroke="black" stroke-width="0.008" stroke-miterlimit="10"/>
<path d="M34.9586 8.83668V6.75649" stroke="black" stroke-width="0.008" stroke-miterlimit="10"/>
<path d="M56.4514 6.75649V8.83668" stroke="black" stroke-width="0.008" stroke-miterlimit="10"/>
<path d="M56.4514 8.83676V9.81507" stroke="black" stroke-width="0.008" stroke-miterlimit="10"/>
<path d="M60.4208 149.467V148.869" stroke="black" stroke-width="0.008" stroke-miterlimit="10"/>
<path d="M60.4208 9.81507V8.83676" stroke="black" stroke-width="0.008" stroke-miterlimit="10"/>
<path d="M60.4208 8.83668V6.75649" stroke="black" stroke-width="0.008" stroke-miterlimit="10"/>
<path d="M103.679 6.75651H99.7042" stroke="black" stroke-width="0.008" stroke-miterlimit="10"/>
<path d="M103.679 95.7971V82.9847" stroke="black" stroke-width="0.008" stroke-miterlimit="10"/>
<path d="M103.679 82.9846V75.6952" stroke="black" stroke-width="0.008" stroke-miterlimit="10"/>
<path d="M103.679 39.302V46.5909" stroke="black" stroke-width="0.008" stroke-miterlimit="10"/>
<path d="M103.679 17.9763V39.302" stroke="black" stroke-width="0.008" stroke-miterlimit="10"/>
<path d="M103.679 75.6952V46.5909" stroke="black" stroke-width="0.008" stroke-miterlimit="10"/>
<path d="M121.385 95.7971H103.679" stroke="black" stroke-width="0.008" stroke-miterlimit="10"/>
<path d="M103.679 99.765H121.385" stroke="black" stroke-width="0.008" stroke-miterlimit="10"/>
<path d="M103.679 148.869V140.708" stroke="black" stroke-width="0.008" stroke-miterlimit="10"/>
<path d="M103.679 119.382V112.088" stroke="black" stroke-width="0.008" stroke-miterlimit="10"/>
<path d="M103.679 99.7651V112.088" stroke="black" stroke-width="0.008" stroke-miterlimit="10"/>
<path d="M103.679 119.382V140.707" stroke="black" stroke-width="0.008" stroke-miterlimit="10"/>
<path d="M99.7042 75.6952V46.5909" stroke="black" stroke-width="0.008" stroke-miterlimit="10"/>
<path d="M99.7042 82.9846V75.6952" stroke="black" stroke-width="0.008" stroke-miterlimit="10"/>
<path d="M99.7042 112.088V82.9847" stroke="black" stroke-width="0.008" stroke-miterlimit="10"/>
<path d="M99.7042 119.382V112.088" stroke="black" stroke-width="0.008" stroke-miterlimit="10"/>
<path d="M99.7042 140.707V119.382" stroke="black" stroke-width="0.008" stroke-miterlimit="10"/>
<path d="M99.7042 140.708V148.869" stroke="black" stroke-width="0.008" stroke-miterlimit="10"/>
<path d="M99.7042 39.302V17.9763" stroke="black" stroke-width="0.008" stroke-miterlimit="10"/>
<path d="M99.7042 39.302V46.5909" stroke="black" stroke-width="0.008" stroke-miterlimit="10"/>
<path d="M78.2117 82.9847V95.7971" stroke="black" stroke-width="0.008" stroke-miterlimit="10"/>
<path d="M78.2117 82.9846V75.6952" stroke="black" stroke-width="0.008" stroke-miterlimit="10"/>
<path d="M78.2117 46.5909V75.6952" stroke="black" stroke-width="0.008" stroke-miterlimit="10"/>
<path d="M78.2117 39.302V46.5909" stroke="black" stroke-width="0.008" stroke-miterlimit="10"/>
<path d="M78.2117 17.9763V39.302" stroke="black" stroke-width="0.008" stroke-miterlimit="10"/>
<path d="M95.9229 95.7971H78.2117" stroke="black" stroke-width="0.008" stroke-miterlimit="10"/>
<path d="M78.2117 99.765H95.9229" stroke="black" stroke-width="0.008" stroke-miterlimit="10"/>
<path d="M78.2117 140.708V148.869" stroke="black" stroke-width="0.008" stroke-miterlimit="10"/>
<path d="M78.2117 119.382V140.707" stroke="black" stroke-width="0.008" stroke-miterlimit="10"/>
<path d="M78.2117 119.382V112.088" stroke="black" stroke-width="0.008" stroke-miterlimit="10"/>
<path d="M78.2117 99.7651V112.088" stroke="black" stroke-width="0.008" stroke-miterlimit="10"/>
<path d="M74.2422 75.6952V46.5909" stroke="black" stroke-width="0.008" stroke-miterlimit="10"/>
<path d="M74.2422 82.9846V75.6952" stroke="black" stroke-width="0.008" stroke-miterlimit="10"/>
<path d="M74.2422 112.088V82.9847" stroke="black" stroke-width="0.008" stroke-miterlimit="10"/>
<path d="M74.2422 119.382V112.088" stroke="black" stroke-width="0.008" stroke-miterlimit="10"/>
<path d="M74.2422 140.707V119.382" stroke="black" stroke-width="0.008" stroke-miterlimit="10"/>
<path d="M74.2422 140.708V148.869" stroke="black" stroke-width="0.008" stroke-miterlimit="10"/>
<path d="M74.2422 39.302V17.9763" stroke="black" stroke-width="0.008" stroke-miterlimit="10"/>
<path d="M74.2422 39.302V46.5909" stroke="black" stroke-width="0.008" stroke-miterlimit="10"/>
<path d="M30.9836 6.75651H34.9587" stroke="black" stroke-width="0.008" stroke-miterlimit="10"/>
<path d="M30.9836 95.7971V82.9847" stroke="black" stroke-width="0.008" stroke-miterlimit="10"/>
<path d="M30.9836 82.9846V75.6952" stroke="black" stroke-width="0.008" stroke-miterlimit="10"/>
<path d="M30.9836 39.302V46.5909" stroke="black" stroke-width="0.008" stroke-miterlimit="10"/>
<path d="M30.9836 17.9763V39.302" stroke="black" stroke-width="0.008" stroke-miterlimit="10"/>
<path d="M30.9836 75.6952V46.5909" stroke="black" stroke-width="0.008" stroke-miterlimit="10"/>
<path d="M13.2782 95.7971H30.9837" stroke="black" stroke-width="0.008" stroke-miterlimit="10"/>
<path d="M30.9837 99.765H13.2782" stroke="black" stroke-width="0.008" stroke-miterlimit="10"/>
<path d="M30.9836 148.869V140.708" stroke="black" stroke-width="0.008" stroke-miterlimit="10"/>
<path d="M30.9836 119.382V112.088" stroke="black" stroke-width="0.008" stroke-miterlimit="10"/>
<path d="M30.9836 99.7651V112.088" stroke="black" stroke-width="0.008" stroke-miterlimit="10"/>
<path d="M30.9836 119.382V140.707" stroke="black" stroke-width="0.008" stroke-miterlimit="10"/>
<path d="M34.9586 75.6952V46.5909" stroke="black" stroke-width="0.008" stroke-miterlimit="10"/>
<path d="M34.9586 82.9846V75.6952" stroke="black" stroke-width="0.008" stroke-miterlimit="10"/>
<path d="M34.9586 112.088V82.9847" stroke="black" stroke-width="0.008" stroke-miterlimit="10"/>
<path d="M34.9586 119.382V112.088" stroke="black" stroke-width="0.008" stroke-miterlimit="10"/>
<path d="M34.9586 140.707V119.382" stroke="black" stroke-width="0.008" stroke-miterlimit="10"/>
<path d="M34.9586 140.708V148.869" stroke="black" stroke-width="0.008" stroke-miterlimit="10"/>
<path d="M34.9586 39.302V17.9763" stroke="black" stroke-width="0.008" stroke-miterlimit="10"/>
<path d="M34.9586 39.302V46.5909" stroke="black" stroke-width="0.008" stroke-miterlimit="10"/>
<path d="M56.4514 82.9847V95.7971" stroke="black" stroke-width="0.008" stroke-miterlimit="10"/>
<path d="M56.4514 82.9846V75.6952" stroke="black" stroke-width="0.008" stroke-miterlimit="10"/>
<path d="M56.4514 46.5909V75.6952" stroke="black" stroke-width="0.008" stroke-miterlimit="10"/>
<path d="M56.4514 39.302V46.5909" stroke="black" stroke-width="0.008" stroke-miterlimit="10"/>
<path d="M56.4514 17.9763V39.302" stroke="black" stroke-width="0.008" stroke-miterlimit="10"/>
<path d="M38.7402 95.7971H56.4514" stroke="black" stroke-width="0.008" stroke-miterlimit="10"/>
<path d="M56.4514 99.765H38.7402" stroke="black" stroke-width="0.008" stroke-miterlimit="10"/>
<path d="M56.4514 140.708V148.869" stroke="black" stroke-width="0.008" stroke-miterlimit="10"/>
<path d="M56.4514 119.382V140.707" stroke="black" stroke-width="0.008" stroke-miterlimit="10"/>
<path d="M56.4514 119.382V112.088" stroke="black" stroke-width="0.008" stroke-miterlimit="10"/>
<path d="M56.4514 99.7651V112.088" stroke="black" stroke-width="0.008" stroke-miterlimit="10"/>
<path d="M60.4208 75.6952V46.5909" stroke="black" stroke-width="0.008" stroke-miterlimit="10"/>
<path d="M60.4208 82.9846V75.6952" stroke="black" stroke-width="0.008" stroke-miterlimit="10"/>
<path d="M60.4208 112.088V82.9847" stroke="black" stroke-width="0.008" stroke-miterlimit="10"/>
<path d="M60.4208 119.382V112.088" stroke="black" stroke-width="0.008" stroke-miterlimit="10"/>
<path d="M60.4208 140.707V119.382" stroke="black" stroke-width="0.008" stroke-miterlimit="10"/>
<path d="M60.4208 140.708V148.869" stroke="black" stroke-width="0.008" stroke-miterlimit="10"/>
<path d="M60.4208 39.302V17.9763" stroke="black" stroke-width="0.008" stroke-miterlimit="10"/>
<path d="M60.4208 39.302V46.5909" stroke="black" stroke-width="0.008" stroke-miterlimit="10"/>
</svg>
