<svg width="331" height="159" viewBox="0 0 331 159" fill="none" xmlns="http://www.w3.org/2000/svg">
<path d="M184.95 149.414H315.907L316.014 157.842H12.4234V149.414H18.136H22.0535H33.2611H37.1809H48.3879H52.3055H63.5131H67.4306H73.0344H78.8557H82.7733H93.9808H97.8984H109.106H113.025H124.233H128.15H133.754H139.574H143.493H154.701H158.618H169.826H173.743" fill="#EDEDED"/>
<path d="M184.95 149.414H188.87V5.9536H184.95V149.414Z" fill="white"/>
<path d="M133.97 149.414L133.863 5.95364Z" fill="#FF0098"/>
<path d="M133.97 5.95363H12.5322L12.4234 2.69072H316.014V5.95363H310.303H306.384H295.176H291.258H280.051H276.138H264.926H261.013H255.409H249.583H245.67H234.458H230.545H219.338H215.418H204.211H200.294H194.69H188.87H184.95H173.743H169.826H158.618H154.701H143.493H139.574" fill="#EDEDED"/>
<path d="M133.863 5.95364V149.414L133.754 5.95364" fill="#FF0098"/>
<path d="M133.97 149.414H139.574V5.9536H133.97V149.414Z" fill="#EDEDED"/>
<path d="M139.574 149.414H143.493V5.9536H139.574V149.414Z" fill="white"/>
<path d="M169.826 149.414H173.743V5.9536H169.826V149.414Z" fill="white"/>
<path d="M194.474 5.95364L194.58 149.414Z" fill="#FF0098"/>
<path d="M188.87 149.414H194.474V5.9536H188.87V149.414Z" fill="#EDEDED"/>
<path d="M194.58 149.414V5.95364L194.69 149.414" fill="#FF0098"/>
<path d="M154.701 149.414H158.618V5.9536H154.701V149.414Z" fill="white"/>
<path d="M143.493 149.414H154.7V5.9536H143.493V149.414Z" fill="#EDEDED"/>
<path d="M158.618 149.414H169.826V5.9536H158.618V149.414Z" fill="#EDEDED"/>
<path d="M173.743 149.414H184.951V5.9536H173.743V149.414Z" fill="#EDEDED"/>
<path d="M306.384 149.414H310.303V5.9536H306.384V149.414Z" fill="white"/>
<path d="M255.296 5.95364L255.409 149.414Z" fill="#FF0098"/>
<path d="M255.296 5.95364V149.414L255.187 5.95364" fill="#FF0098"/>
<path d="M255.41 149.414H261.013V5.9536H255.41V149.414Z" fill="#EDEDED"/>
<path d="M261.013 149.414H264.926V5.9536H261.013V149.414Z" fill="white"/>
<path d="M291.258 149.414H295.176V5.9536H291.258V149.414Z" fill="white"/>
<path d="M315.907 5.95364L316.014 149.414Z" fill="#FF0098"/>
<path d="M310.303 149.414H315.907V5.9536H310.303V149.414Z" fill="#EDEDED"/>
<path d="M316.014 149.414V1.00005H330.598V11.9909H327.33V16.4553H330.598V55.513H327.33V59.9711H330.598V99.0356H327.33V103.493H330.598V142.558H327.33V147.018H330.598V158.554H316.014V157.842" fill="#EDEDED"/>
<path d="M276.138 149.414H280.051V5.9536H276.138V149.414Z" fill="white"/>
<path d="M264.926 149.414H276.138V5.9536H264.926V149.414Z" fill="#EDEDED"/>
<path d="M280.051 149.414H291.258V5.9536H280.051V149.414Z" fill="#EDEDED"/>
<path d="M295.176 149.414H306.383V5.9536H295.176V149.414Z" fill="#EDEDED"/>
<path d="M124.233 149.414H128.15V5.9536H124.233V149.414Z" fill="white"/>
<path d="M73.1432 5.95364L73.2525 149.414Z" fill="#FF0098"/>
<path d="M73.1432 5.95364V149.414L73.0344 5.95364" fill="white"/>
<path d="M73.2525 149.414H78.8562V5.9536H73.2525V149.414Z" fill="#EDEDED"/>
<path d="M128.15 149.414H133.754V5.9536H128.15V149.414Z" fill="#EDEDED"/>
<path d="M78.8558 149.414H82.7733V5.9536H78.8558V149.414Z" fill="white"/>
<path d="M109.106 149.414H113.026V5.9536H109.106V149.414Z" fill="white"/>
<path d="M93.9809 149.414H97.8984V5.9536H93.9809V149.414Z" fill="white"/>
<path d="M82.7733 149.414H93.9807V5.9536H82.7733V149.414Z" fill="#EDEDED"/>
<path d="M97.8984 149.414H109.106V5.9536H97.8984V149.414Z" fill="#EDEDED"/>
<path d="M113.025 149.414H124.233V5.9536H113.025V149.414Z" fill="#EDEDED"/>
<path d="M63.513 149.414H67.4305V5.9536H63.513V149.414Z" fill="white"/>
<path d="M12.4234 5.95364L12.5322 149.414Z" fill="white"/>
<path d="M12.4234 5.95365V158.554H1V1.00005H12.4234V2.69073" fill="#EDEDED"/>
<path d="M12.5323 149.414H18.136V5.9536H12.5323V149.414Z" fill="#EDEDED"/>
<path d="M67.4306 149.414H73.0343V5.9536H67.4306V149.414Z" fill="#EDEDED"/>
<path d="M18.136 149.414H22.0534V5.9536H18.136V149.414Z" fill="white"/>
<path d="M48.3879 149.414H52.3054V5.9536H48.3879V149.414Z" fill="white"/>
<path d="M33.2611 149.414H37.1808V5.9536H33.2611V149.414Z" fill="white"/>
<path d="M22.0535 149.414H33.2609V5.9536H22.0535V149.414Z" fill="#EDEDED"/>
<path d="M37.181 149.414H48.3884V5.9536H37.181V149.414Z" fill="#EDEDED"/>
<path d="M52.3055 149.414H63.5129V5.9536H52.3055V149.414Z" fill="#EDEDED"/>
<path d="M245.67 149.414H249.583V5.9536H245.67V149.414Z" fill="white"/>
<path d="M194.69 149.414H200.293V5.9536H194.69V149.414Z" fill="#EDEDED"/>
<path d="M249.583 149.414H255.187V5.9536H249.583V149.414Z" fill="#EDEDED"/>
<path d="M200.294 149.414H204.211V5.9536H200.294V149.414Z" fill="white"/>
<path d="M230.546 149.414H234.458V5.9536H230.546V149.414Z" fill="white"/>
<path d="M215.418 149.414H219.338V5.9536H215.418V149.414Z" fill="white"/>
<path d="M204.211 149.414H215.419V5.9536H204.211V149.414Z" fill="#EDEDED"/>
<path d="M219.338 149.414H230.545V5.9536H219.338V149.414Z" fill="#EDEDED"/>
<path d="M234.458 149.414H245.67V5.9536H234.458V149.414Z" fill="#EDEDED"/>
<path d="M184.95 149.414H188.87" stroke="black" stroke-width="0.008" stroke-miterlimit="10"/>
<path d="M133.863 149.414V5.95364" stroke="black" stroke-width="0.008" stroke-miterlimit="10"/>
<path d="M133.97 149.414V5.95364" stroke="black" stroke-width="0.004" stroke-miterlimit="10"/>
<path d="M194.474 5.95364V149.414" stroke="black" stroke-width="0.004" stroke-miterlimit="10"/>
<path d="M194.58 5.95364V149.414" stroke="black" stroke-width="0.008" stroke-miterlimit="10"/>
<path d="M139.574 149.414H143.493" stroke="black" stroke-width="0.008" stroke-miterlimit="10"/>
<path d="M133.97 5.95363H139.574" stroke="black" stroke-width="0.008" stroke-miterlimit="10"/>
<path d="M169.826 149.414H173.743" stroke="black" stroke-width="0.008" stroke-miterlimit="10"/>
<path d="M188.87 5.95363H184.95" stroke="black" stroke-width="0.008" stroke-miterlimit="10"/>
<path d="M173.743 5.95363H169.826" stroke="black" stroke-width="0.008" stroke-miterlimit="10"/>
<path d="M194.474 149.414H188.87" stroke="black" stroke-width="0.008" stroke-miterlimit="10"/>
<path d="M158.618 5.95363H154.701" stroke="black" stroke-width="0.008" stroke-miterlimit="10"/>
<path d="M139.574 149.414H133.97" stroke="black" stroke-width="0.008" stroke-miterlimit="10"/>
<path d="M139.574 5.95363H143.493" stroke="black" stroke-width="0.008" stroke-miterlimit="10"/>
<path d="M139.574 149.414V5.95364" stroke="black" stroke-width="0.004" stroke-miterlimit="10"/>
<path d="M143.493 149.414H154.701" stroke="black" stroke-width="0.008" stroke-miterlimit="10"/>
<path d="M143.493 5.95364V149.414" stroke="black" stroke-width="0.004" stroke-miterlimit="10"/>
<path d="M154.701 149.414V5.95364" stroke="black" stroke-width="0.004" stroke-miterlimit="10"/>
<path d="M158.618 5.95364V149.414" stroke="black" stroke-width="0.004" stroke-miterlimit="10"/>
<path d="M158.618 149.414H154.701" stroke="black" stroke-width="0.008" stroke-miterlimit="10"/>
<path d="M154.701 5.95363H143.493" stroke="black" stroke-width="0.008" stroke-miterlimit="10"/>
<path d="M173.743 5.95364V149.414" stroke="black" stroke-width="0.004" stroke-miterlimit="10"/>
<path d="M169.826 149.414V5.95364" stroke="black" stroke-width="0.004" stroke-miterlimit="10"/>
<path d="M173.743 149.414H184.95" stroke="black" stroke-width="0.008" stroke-miterlimit="10"/>
<path d="M169.826 149.414H158.618" stroke="black" stroke-width="0.008" stroke-miterlimit="10"/>
<path d="M169.826 5.95363H158.618" stroke="black" stroke-width="0.008" stroke-miterlimit="10"/>
<path d="M184.95 149.414V5.95364" stroke="black" stroke-width="0.004" stroke-miterlimit="10"/>
<path d="M188.87 5.95364V149.414" stroke="black" stroke-width="0.004" stroke-miterlimit="10"/>
<path d="M184.95 5.95363H173.743" stroke="black" stroke-width="0.008" stroke-miterlimit="10"/>
<path d="M188.87 5.95363H194.474" stroke="black" stroke-width="0.008" stroke-miterlimit="10"/>
<path d="M306.384 149.414H310.303" stroke="black" stroke-width="0.008" stroke-miterlimit="10"/>
<path d="M255.296 149.414V5.95364" stroke="black" stroke-width="0.008" stroke-miterlimit="10"/>
<path d="M255.41 149.414V5.95364" stroke="black" stroke-width="0.004" stroke-miterlimit="10"/>
<path d="M315.907 5.95364V149.414" stroke="black" stroke-width="0.004" stroke-miterlimit="10"/>
<path d="M316.014 5.95364V149.414" stroke="black" stroke-width="0.008" stroke-miterlimit="10"/>
<path d="M261.013 149.414H264.926" stroke="black" stroke-width="0.008" stroke-miterlimit="10"/>
<path d="M255.41 5.95363H261.013" stroke="black" stroke-width="0.008" stroke-miterlimit="10"/>
<path d="M291.258 149.414H295.176" stroke="black" stroke-width="0.008" stroke-miterlimit="10"/>
<path d="M310.303 5.95363H306.384" stroke="black" stroke-width="0.008" stroke-miterlimit="10"/>
<path d="M295.176 5.95363H291.258" stroke="black" stroke-width="0.008" stroke-miterlimit="10"/>
<path d="M315.907 149.414H310.303" stroke="black" stroke-width="0.008" stroke-miterlimit="10"/>
<path d="M280.051 5.95363H276.138" stroke="black" stroke-width="0.008" stroke-miterlimit="10"/>
<path d="M261.013 149.414H255.41" stroke="black" stroke-width="0.008" stroke-miterlimit="10"/>
<path d="M261.013 5.95363H264.926" stroke="black" stroke-width="0.008" stroke-miterlimit="10"/>
<path d="M261.013 149.414V5.95364" stroke="black" stroke-width="0.004" stroke-miterlimit="10"/>
<path d="M264.926 149.414H276.138" stroke="black" stroke-width="0.008" stroke-miterlimit="10"/>
<path d="M264.926 5.95364V149.414" stroke="black" stroke-width="0.004" stroke-miterlimit="10"/>
<path d="M276.138 149.414V5.95364" stroke="black" stroke-width="0.004" stroke-miterlimit="10"/>
<path d="M280.051 5.95364V149.414" stroke="black" stroke-width="0.004" stroke-miterlimit="10"/>
<path d="M280.051 149.414H276.138" stroke="black" stroke-width="0.008" stroke-miterlimit="10"/>
<path d="M276.138 5.95363H264.926" stroke="black" stroke-width="0.008" stroke-miterlimit="10"/>
<path d="M295.176 5.95364V149.414" stroke="black" stroke-width="0.004" stroke-miterlimit="10"/>
<path d="M291.258 149.414V5.95364" stroke="black" stroke-width="0.004" stroke-miterlimit="10"/>
<path d="M295.176 149.414H306.384" stroke="black" stroke-width="0.008" stroke-miterlimit="10"/>
<path d="M291.258 149.414H280.051" stroke="black" stroke-width="0.008" stroke-miterlimit="10"/>
<path d="M291.258 5.95363H280.051" stroke="black" stroke-width="0.008" stroke-miterlimit="10"/>
<path d="M306.384 149.414V5.95364" stroke="black" stroke-width="0.004" stroke-miterlimit="10"/>
<path d="M310.303 5.95364V149.414" stroke="black" stroke-width="0.004" stroke-miterlimit="10"/>
<path d="M306.384 5.95363H295.176" stroke="black" stroke-width="0.008" stroke-miterlimit="10"/>
<path d="M310.303 5.95363H315.907" stroke="black" stroke-width="0.008" stroke-miterlimit="10"/>
<path d="M124.233 149.414H128.15" stroke="black" stroke-width="0.008" stroke-miterlimit="10"/>
<path d="M73.1432 149.414V5.95364" stroke="black" stroke-width="0.008" stroke-miterlimit="10"/>
<path d="M73.2525 149.414V5.95364" stroke="black" stroke-width="0.004" stroke-miterlimit="10"/>
<path d="M133.754 5.95364V149.414" stroke="black" stroke-width="0.004" stroke-miterlimit="10"/>
<path d="M78.8558 149.414H82.7733" stroke="black" stroke-width="0.008" stroke-miterlimit="10"/>
<path d="M73.2525 5.95363H78.8557" stroke="black" stroke-width="0.008" stroke-miterlimit="10"/>
<path d="M109.106 149.414H113.025" stroke="black" stroke-width="0.008" stroke-miterlimit="10"/>
<path d="M128.15 5.95363H124.233" stroke="black" stroke-width="0.008" stroke-miterlimit="10"/>
<path d="M113.025 5.95363H109.106" stroke="black" stroke-width="0.008" stroke-miterlimit="10"/>
<path d="M133.754 149.414H128.15" stroke="black" stroke-width="0.008" stroke-miterlimit="10"/>
<path d="M97.8985 5.95363H93.9809" stroke="black" stroke-width="0.008" stroke-miterlimit="10"/>
<path d="M78.8557 149.414H73.2525" stroke="black" stroke-width="0.008" stroke-miterlimit="10"/>
<path d="M78.8558 5.95363H82.7733" stroke="black" stroke-width="0.008" stroke-miterlimit="10"/>
<path d="M78.8558 149.414V5.95364" stroke="black" stroke-width="0.004" stroke-miterlimit="10"/>
<path d="M82.7733 149.414H93.9808" stroke="black" stroke-width="0.008" stroke-miterlimit="10"/>
<path d="M82.7733 5.95364V149.414" stroke="black" stroke-width="0.004" stroke-miterlimit="10"/>
<path d="M93.9809 149.414V5.95364" stroke="black" stroke-width="0.004" stroke-miterlimit="10"/>
<path d="M97.8984 5.95364V149.414" stroke="black" stroke-width="0.004" stroke-miterlimit="10"/>
<path d="M97.8985 149.414H93.9809" stroke="black" stroke-width="0.008" stroke-miterlimit="10"/>
<path d="M93.9808 5.95363H82.7733" stroke="black" stroke-width="0.008" stroke-miterlimit="10"/>
<path d="M113.025 5.95364V149.414" stroke="black" stroke-width="0.004" stroke-miterlimit="10"/>
<path d="M109.106 149.414V5.95364" stroke="black" stroke-width="0.004" stroke-miterlimit="10"/>
<path d="M113.025 149.414H124.233" stroke="black" stroke-width="0.008" stroke-miterlimit="10"/>
<path d="M109.106 149.414H97.8984" stroke="black" stroke-width="0.008" stroke-miterlimit="10"/>
<path d="M109.106 5.95363H97.8984" stroke="black" stroke-width="0.008" stroke-miterlimit="10"/>
<path d="M124.233 149.414V5.95364" stroke="black" stroke-width="0.004" stroke-miterlimit="10"/>
<path d="M128.15 5.95364V149.414" stroke="black" stroke-width="0.004" stroke-miterlimit="10"/>
<path d="M124.233 5.95363H113.025" stroke="black" stroke-width="0.008" stroke-miterlimit="10"/>
<path d="M128.15 5.95363H133.754" stroke="black" stroke-width="0.008" stroke-miterlimit="10"/>
<path d="M63.513 149.414H67.4306" stroke="black" stroke-width="0.008" stroke-miterlimit="10"/>
<path d="M12.4234 149.414V5.95364" stroke="black" stroke-width="0.008" stroke-miterlimit="10"/>
<path d="M12.5323 149.414V5.95364" stroke="black" stroke-width="0.004" stroke-miterlimit="10"/>
<path d="M73.0344 5.95364V149.414" stroke="black" stroke-width="0.004" stroke-miterlimit="10"/>
<path d="M18.136 149.414H22.0535" stroke="black" stroke-width="0.008" stroke-miterlimit="10"/>
<path d="M12.5323 5.95363H18.1361" stroke="black" stroke-width="0.008" stroke-miterlimit="10"/>
<path d="M48.3879 149.414H52.3055" stroke="black" stroke-width="0.008" stroke-miterlimit="10"/>
<path d="M67.4306 5.95363H63.513" stroke="black" stroke-width="0.008" stroke-miterlimit="10"/>
<path d="M52.3055 5.95363H48.3879" stroke="black" stroke-width="0.008" stroke-miterlimit="10"/>
<path d="M73.0344 149.414H67.4306" stroke="black" stroke-width="0.008" stroke-miterlimit="10"/>
<path d="M37.1809 5.95363H33.2611" stroke="black" stroke-width="0.008" stroke-miterlimit="10"/>
<path d="M18.1361 149.414H12.5323" stroke="black" stroke-width="0.008" stroke-miterlimit="10"/>
<path d="M18.136 5.95363H22.0535" stroke="black" stroke-width="0.008" stroke-miterlimit="10"/>
<path d="M18.136 149.414V5.95364" stroke="black" stroke-width="0.004" stroke-miterlimit="10"/>
<path d="M22.0535 149.414H33.2611" stroke="black" stroke-width="0.008" stroke-miterlimit="10"/>
<path d="M22.0535 5.95364V149.414" stroke="black" stroke-width="0.004" stroke-miterlimit="10"/>
<path d="M33.2611 149.414V5.95364" stroke="black" stroke-width="0.004" stroke-miterlimit="10"/>
<path d="M37.181 5.95364V149.414" stroke="black" stroke-width="0.004" stroke-miterlimit="10"/>
<path d="M37.1809 149.414H33.2611" stroke="black" stroke-width="0.008" stroke-miterlimit="10"/>
<path d="M33.2611 5.95363H22.0535" stroke="black" stroke-width="0.008" stroke-miterlimit="10"/>
<path d="M52.3055 5.95364V149.414" stroke="black" stroke-width="0.004" stroke-miterlimit="10"/>
<path d="M48.3879 149.414V5.95364" stroke="black" stroke-width="0.004" stroke-miterlimit="10"/>
<path d="M52.3055 149.414H63.513" stroke="black" stroke-width="0.008" stroke-miterlimit="10"/>
<path d="M48.388 149.414H37.181" stroke="black" stroke-width="0.008" stroke-miterlimit="10"/>
<path d="M48.388 5.95363H37.181" stroke="black" stroke-width="0.008" stroke-miterlimit="10"/>
<path d="M63.513 149.414V5.95364" stroke="black" stroke-width="0.004" stroke-miterlimit="10"/>
<path d="M67.4306 5.95364V149.414" stroke="black" stroke-width="0.004" stroke-miterlimit="10"/>
<path d="M63.513 5.95363H52.3055" stroke="black" stroke-width="0.008" stroke-miterlimit="10"/>
<path d="M67.4306 5.95363H73.0344" stroke="black" stroke-width="0.008" stroke-miterlimit="10"/>
<path d="M245.67 149.414H249.583" stroke="black" stroke-width="0.008" stroke-miterlimit="10"/>
<path d="M194.69 149.414V5.95364" stroke="black" stroke-width="0.004" stroke-miterlimit="10"/>
<path d="M255.187 5.95364V149.414" stroke="black" stroke-width="0.004" stroke-miterlimit="10"/>
<path d="M200.294 149.414H204.211" stroke="black" stroke-width="0.008" stroke-miterlimit="10"/>
<path d="M194.69 5.95363H200.294" stroke="black" stroke-width="0.008" stroke-miterlimit="10"/>
<path d="M230.546 149.414H234.458" stroke="black" stroke-width="0.008" stroke-miterlimit="10"/>
<path d="M249.583 5.95363H245.67" stroke="black" stroke-width="0.008" stroke-miterlimit="10"/>
<path d="M234.458 5.95363H230.546" stroke="black" stroke-width="0.008" stroke-miterlimit="10"/>
<path d="M255.187 149.414H249.583" stroke="black" stroke-width="0.008" stroke-miterlimit="10"/>
<path d="M219.338 5.95363H215.418" stroke="black" stroke-width="0.008" stroke-miterlimit="10"/>
<path d="M200.294 149.414H194.69" stroke="black" stroke-width="0.008" stroke-miterlimit="10"/>
<path d="M200.294 5.95363H204.211" stroke="black" stroke-width="0.008" stroke-miterlimit="10"/>
<path d="M200.294 149.414V5.95364" stroke="black" stroke-width="0.004" stroke-miterlimit="10"/>
<path d="M204.211 149.414H215.418" stroke="black" stroke-width="0.008" stroke-miterlimit="10"/>
<path d="M204.211 5.95364V149.414" stroke="black" stroke-width="0.004" stroke-miterlimit="10"/>
<path d="M215.418 149.414V5.95364" stroke="black" stroke-width="0.004" stroke-miterlimit="10"/>
<path d="M219.338 5.95364V149.414" stroke="black" stroke-width="0.004" stroke-miterlimit="10"/>
<path d="M219.338 149.414H215.418" stroke="black" stroke-width="0.008" stroke-miterlimit="10"/>
<path d="M215.418 5.95363H204.211" stroke="black" stroke-width="0.008" stroke-miterlimit="10"/>
<path d="M234.458 5.95364V149.414" stroke="black" stroke-width="0.004" stroke-miterlimit="10"/>
<path d="M230.546 149.414V5.95364" stroke="black" stroke-width="0.004" stroke-miterlimit="10"/>
<path d="M234.458 149.414H245.67" stroke="black" stroke-width="0.008" stroke-miterlimit="10"/>
<path d="M230.545 149.414H219.338" stroke="black" stroke-width="0.008" stroke-miterlimit="10"/>
<path d="M230.545 5.95363H219.338" stroke="black" stroke-width="0.008" stroke-miterlimit="10"/>
<path d="M245.67 149.414V5.95364" stroke="black" stroke-width="0.004" stroke-miterlimit="10"/>
<path d="M249.583 5.95364V149.414" stroke="black" stroke-width="0.004" stroke-miterlimit="10"/>
<path d="M245.67 5.95363H234.458" stroke="black" stroke-width="0.008" stroke-miterlimit="10"/>
<path d="M249.583 5.95363H255.187" stroke="black" stroke-width="0.008" stroke-miterlimit="10"/>
<path d="M12.4234 2.69073H316.014" stroke="black" stroke-width="0.008" stroke-miterlimit="10"/>
<path d="M316.014 2.69072V5.95363" stroke="black" stroke-width="0.008" stroke-miterlimit="10"/>
<path d="M12.4234 5.95363V2.69072" stroke="black" stroke-width="0.008" stroke-miterlimit="10"/>
<path d="M12.4234 158.554H1" stroke="black" stroke-width="0.008" stroke-miterlimit="10"/>
<path d="M1 158.554V1.00005" stroke="black" stroke-width="0.008" stroke-miterlimit="10"/>
<path d="M1 1.00006H12.4234" stroke="black" stroke-width="0.008" stroke-miterlimit="10"/>
<path d="M316.014 158.554H330.598" stroke="black" stroke-width="0.008" stroke-miterlimit="10"/>
<path d="M330.598 1.00006H316.014" stroke="black" stroke-width="0.008" stroke-miterlimit="10"/>
<path d="M330.598 158.554V147.018" stroke="black" stroke-width="0.008" stroke-miterlimit="10"/>
<path d="M330.598 11.9909V1" stroke="black" stroke-width="0.008" stroke-miterlimit="10"/>
<path d="M330.598 11.9909H327.33" stroke="black" stroke-width="0.008" stroke-miterlimit="10"/>
<path d="M327.33 11.9909V16.4554" stroke="black" stroke-width="0.008" stroke-miterlimit="10"/>
<path d="M327.33 16.4554H330.598" stroke="black" stroke-width="0.008" stroke-miterlimit="10"/>
<path d="M327.33 55.513V59.9711" stroke="black" stroke-width="0.008" stroke-miterlimit="10"/>
<path d="M327.33 59.9711H330.598" stroke="black" stroke-width="0.008" stroke-miterlimit="10"/>
<path d="M330.598 55.5129H327.33" stroke="black" stroke-width="0.008" stroke-miterlimit="10"/>
<path d="M330.598 55.5129V16.4553" stroke="black" stroke-width="0.008" stroke-miterlimit="10"/>
<path d="M330.598 99.0356H327.33" stroke="black" stroke-width="0.008" stroke-miterlimit="10"/>
<path d="M327.33 99.0356V103.493" stroke="black" stroke-width="0.008" stroke-miterlimit="10"/>
<path d="M327.33 103.493H330.598" stroke="black" stroke-width="0.008" stroke-miterlimit="10"/>
<path d="M330.598 99.0356V59.9711" stroke="black" stroke-width="0.008" stroke-miterlimit="10"/>
<path d="M327.33 142.558V147.018" stroke="black" stroke-width="0.008" stroke-miterlimit="10"/>
<path d="M327.33 147.018H330.598" stroke="black" stroke-width="0.008" stroke-miterlimit="10"/>
<path d="M330.598 142.558H327.33" stroke="black" stroke-width="0.008" stroke-miterlimit="10"/>
<path d="M330.598 142.558V103.493" stroke="black" stroke-width="0.008" stroke-miterlimit="10"/>
<path d="M12.4234 157.842V149.414" stroke="black" stroke-width="0.008" stroke-miterlimit="10"/>
<path d="M316.014 149.414V157.842" stroke="black" stroke-width="0.008" stroke-miterlimit="10"/>
<path d="M316.014 157.842H12.4234" stroke="black" stroke-width="0.008" stroke-miterlimit="10"/>
<path d="M316.014 157.842V158.554" stroke="black" stroke-width="0.008" stroke-miterlimit="10"/>
<path d="M12.4234 1.00005V2.69073" stroke="black" stroke-width="0.008" stroke-miterlimit="10"/>
<path d="M12.4234 157.842V158.554" stroke="black" stroke-width="0.008" stroke-miterlimit="10"/>
<path d="M316.014 1.00005V2.69073" stroke="black" stroke-width="0.008" stroke-miterlimit="10"/>
</svg>
