<svg width="331" height="134" viewBox="0 0 331 134" fill="none" xmlns="http://www.w3.org/2000/svg">
<path d="M330.593 124.818V133.634H320.912V124.818H327.495" fill="#EDEDED"/>
<path d="M320.912 130.206V133.469H10.6814V130.206H23.6487V131.236H80.5068H137.365H194.223H251.08H307.939V130.206" fill="#EDEDED"/>
<path d="M23.6487 130.206H10.6814V124.818H1.16064V9.8128H10.6814V4.42754H23.6487" fill="#EDEDED"/>
<path d="M320.912 130.206H307.939V4.42754H320.912V9.8128H327.495V124.818H320.912" fill="#EDEDED"/>
<path d="M10.6814 130.206V133.469L1 133.634V124.818H10.6814" fill="#EDEDED"/>
<path d="M137.365 131.236H80.5068V3.39111H137.365V131.236ZM83.0518 6.35848L82.9846 6.92793V127.701L83.0518 128.271L83.2631 128.8L83.6099 129.254L84.0661 129.597L84.5957 129.812L85.1606 129.881H87.2273L87.7968 129.812L88.3258 129.597L88.7752 129.254L89.1226 128.8L89.3407 128.271L89.4027 127.701V6.92793L89.3407 6.35848L89.1226 5.82661L88.7752 5.37277L88.3258 5.03052L87.7968 4.81472L87.2273 4.7458H85.1606L84.5957 4.81472L84.0661 5.03052L83.6099 5.37277L83.2631 5.82661L83.0518 6.35848ZM117.097 6.92793V127.701L117.165 128.271L117.374 128.8L117.724 129.254L118.177 129.597L118.709 129.812L119.272 129.881H121.339L121.908 129.812L122.438 129.597L122.894 129.254L123.236 128.8L123.452 128.271L123.521 127.701V6.92793L123.452 6.35848L123.236 5.82661L122.894 5.37277L122.438 5.03052L121.908 4.81472L121.339 4.7458H119.272L118.709 4.81472L118.177 5.03052L117.724 5.37277L117.374 5.82661L117.165 6.35848L117.097 6.92793ZM128.907 5.58857L128.622 6.08457L128.486 6.63636L128.469 127.701L128.538 128.271L128.749 128.8L129.096 129.254L129.552 129.597L130.082 129.812L130.644 129.881H132.713L133.283 129.812L133.812 129.597L134.261 129.254L134.608 128.8L134.824 128.271L134.886 127.701V6.92793L134.824 6.35848L134.608 5.82661L134.261 5.37277L133.812 5.03052L133.283 4.81472L132.713 4.7458H130.644L130.082 4.81472L129.552 5.03052L129.096 5.37277L128.907 5.58857ZM105.724 127.701L105.791 128.271L106.009 128.8L106.35 129.254L106.806 129.597L107.335 129.812L107.904 129.881H109.971L110.536 129.812L111.066 129.597L111.522 129.254L111.869 128.8L112.08 128.271L112.147 127.701V6.92793L112.08 6.35848L111.869 5.82661L111.522 5.37277L111.066 5.03052L110.536 4.81472L109.971 4.7458H107.904L107.335 4.81472L106.806 5.03052L106.35 5.37277L106.009 5.82661L105.791 6.35848L105.724 6.92793V127.701ZM96.2475 129.863L98.5989 129.881L99.1644 129.812L99.6935 129.597L100.147 129.254L100.496 128.8L100.706 128.271L100.775 127.701V6.92793L100.706 6.35848L100.496 5.82661L100.147 5.37277L99.6935 5.03052L99.1644 4.81472L98.5989 4.7458H96.5322L95.9627 4.81472L95.4337 5.03052L94.9843 5.37277L94.6347 5.82661L94.4194 6.35848L94.3567 6.92793V127.701L94.4194 128.271L94.6347 128.8L94.9843 129.254L95.4337 129.597L95.9627 129.812" fill="#EDEDED"/>
<path d="M137.365 3.3911H23.6487V4.42746H10.6814V1.16455H320.912V4.42746H307.939V3.3911H251.08H194.223" fill="#EDEDED"/>
<path d="M80.5067 131.236H23.6487V3.39111H80.5067V131.236ZM26.1937 6.35848L26.127 6.92793V127.701L26.1937 128.271L26.405 128.8L26.7518 129.254L27.2079 129.597L27.7376 129.812L28.3025 129.881H30.3692L30.9387 129.812L31.4677 129.597L31.9177 129.254L32.2645 128.8L32.4826 128.271L32.5446 127.701V6.92793L32.4826 6.35848L32.2645 5.82661L31.9177 5.37277L31.4677 5.03052L30.9387 4.81472L30.3692 4.7458H28.3025L27.7376 4.81472L27.2079 5.03052L26.7518 5.37277L26.405 5.82661L26.1937 6.35848ZM60.2385 6.92793V127.701L60.3074 128.271L60.5232 128.8L60.866 129.254L61.3194 129.597L61.849 129.812L62.4139 129.881H64.4874L65.0501 129.812L65.5797 129.597L66.0359 129.254L66.3782 128.8L66.594 128.271L66.6629 127.701V6.92793L66.594 6.35848L66.3782 5.82661L66.0359 5.37277L65.5797 5.03052L65.0501 4.81472L64.4874 4.7458H62.4139L61.849 4.81472L61.3194 5.03052L60.866 5.37277L60.5232 5.82661L60.3074 6.35848L60.2385 6.92793ZM72.0486 5.58857L71.7638 6.08457L71.6283 6.63636L71.6106 127.701L71.6796 128.271L71.8908 128.8L72.2377 129.254L72.6938 129.597L73.2235 129.812L73.7861 129.881H75.8551L76.4246 129.812L76.9542 129.597L77.4035 129.254L77.7503 128.8L77.9662 128.271L78.0282 127.701V6.92793L77.9662 6.35848L77.7503 5.82661L77.4035 5.37277L76.9542 5.03052L76.4246 4.81472L75.8551 4.7458H73.7861L73.2235 4.81472L72.6938 5.03052L72.2377 5.37277L72.0486 5.58857ZM48.8708 127.701L48.9329 128.271L49.151 128.8L49.4984 129.254L49.9477 129.597L50.4768 129.812L51.0463 129.881H53.113L53.6779 129.812L54.2075 129.597L54.6637 129.254L55.0105 128.8L55.2218 128.271L55.289 127.701V6.92793L55.2218 6.35848L55.0105 5.82661L54.6637 5.37277L54.2075 5.03052L53.6779 4.81472L53.113 4.7458H51.0463L50.4768 4.81472L49.9477 5.03052L49.4984 5.37277L49.151 5.82661L48.9329 6.35848L48.8708 6.92793V127.701ZM39.3899 129.863L41.7414 129.881L42.3109 129.812L42.8354 129.597L43.2892 129.254L43.6389 128.8L43.8479 128.271L43.9168 127.701V6.92793L43.8479 6.35848L43.6389 5.82661L43.2892 5.37277L42.8354 5.03052L42.3109 4.81472L41.7414 4.7458H39.6747L39.1052 4.81472L38.5756 5.03052L38.1262 5.37277L37.7772 5.82661L37.5613 6.35848L37.4987 6.92793V127.701L37.5613 128.271L37.7772 128.8L38.1262 129.254L38.5756 129.597L39.1052 129.812" fill="#EDEDED"/>
<path d="M137.365 3.39111H194.223V131.236H137.365V3.39111ZM139.905 6.35848L139.843 6.92793V127.701L139.905 128.271L140.121 128.8L140.468 129.254L140.924 129.597L141.449 129.812L142.019 129.881H144.085L144.654 129.812L145.177 129.597L145.633 129.254L145.981 128.8L146.198 128.271L146.261 127.701V6.92793L146.198 6.35848L145.981 5.82661L145.633 5.37277L145.177 5.03052L144.654 4.81472L144.085 4.7458H142.019L141.449 4.81472L140.924 5.03052L140.468 5.37277L140.121 5.82661L139.905 6.35848ZM173.955 6.92793V127.701L174.024 128.271L174.235 128.8L174.582 129.254L175.035 129.597L175.567 129.812L176.13 129.881H178.197L178.766 129.812L179.296 129.597L179.751 129.254L180.094 128.8L180.31 128.271L180.379 127.701V6.92793L180.31 6.35848L180.094 5.82661L179.751 5.37277L179.296 5.03052L178.766 4.81472L178.197 4.7458H176.13L175.567 4.81472L175.035 5.03052L174.582 5.37277L174.235 5.82661L174.024 6.35848L173.955 6.92793ZM185.767 5.58857L185.482 6.08457L185.34 6.63636L185.326 127.701L185.396 128.271L185.607 128.8L185.954 129.254L186.41 129.597L186.939 129.812L187.502 129.881H189.571L190.141 129.812L190.67 129.597L191.119 129.254L191.466 128.8L191.682 128.271L191.747 127.701V6.92793L191.682 6.35848L191.466 5.82661L191.119 5.37277L190.67 5.03052L190.141 4.81472L189.571 4.7458H187.502L186.939 4.81472L186.41 5.03052L185.954 5.37277L185.767 5.58857ZM162.582 127.701L162.649 128.271L162.867 128.8L163.208 129.254L163.663 129.597L164.193 129.812L164.762 129.881H166.831L167.394 129.812L167.924 129.597L168.38 129.254L168.727 128.8L168.938 128.271L169.005 127.701V6.92793L168.938 6.35848L168.727 5.82661L168.38 5.37277L167.924 5.03052L167.394 4.81472L166.831 4.7458H164.762L164.193 4.81472L163.663 5.03052L163.208 5.37277L162.867 5.82661L162.649 6.35848L162.582 6.92793V127.701ZM153.105 129.863L155.457 129.881L156.022 129.812L156.551 129.597L157.008 129.254L157.354 128.8L157.563 128.271L157.633 127.701V6.92793L157.563 6.35848L157.354 5.82661L157.008 5.37277L156.551 5.03052L156.022 4.81472L155.457 4.7458H153.39L152.821 4.81472L152.292 5.03052L151.842 5.37277L151.493 5.82661L151.277 6.35848L151.215 6.92793V127.701L151.277 128.271L151.493 128.8L151.842 129.254L152.292 129.597L152.821 129.812" fill="#EDEDED"/>
<path d="M1 1.00005H10.6814V9.81277H1.16059L1 1.00005Z" fill="#EDEDED"/>
<path d="M320.912 4.42752V1.16462L330.593 1.00005V9.81277H327.495H320.912" fill="#EDEDED"/>
<path d="M194.223 3.39111H251.081V131.236H194.223V3.39111ZM196.763 6.35848L196.701 6.92793V127.701L196.763 128.271L196.979 128.8L197.326 129.254L197.778 129.597L198.307 129.812L198.876 129.881H200.943L201.506 129.812L202.035 129.597L202.491 129.254L202.838 128.8L203.05 128.271L203.119 127.701V6.92793L203.05 6.35848L202.838 5.82661L202.491 5.37277L202.035 5.03052L201.506 4.81472L200.943 4.7458H198.876L198.307 4.81472L197.778 5.03052L197.326 5.37277L196.979 5.82661L196.763 6.35848ZM230.813 6.92793V127.701L230.881 128.271L231.093 128.8L231.44 129.254L231.896 129.597L232.425 129.812L232.988 129.881H235.055L235.624 129.812L236.153 129.597L236.605 129.254L236.952 128.8L237.168 128.271L237.23 127.701V6.92793L237.168 6.35848L236.952 5.82661L236.605 5.37277L236.153 5.03052L235.624 4.81472L235.055 4.7458H232.988L232.425 4.81472L231.896 5.03052L231.44 5.37277L231.093 5.82661L230.881 6.35848L230.813 6.92793ZM242.625 5.58857L242.34 6.08457L242.198 6.63636L242.184 127.701L242.253 128.271L242.464 128.8L242.812 129.254L243.268 129.597L243.791 129.812L244.36 129.881H246.429L246.998 129.812L247.528 129.597L247.977 129.254L248.324 128.8L248.54 128.271L248.605 127.701V6.92793L248.54 6.35848L248.324 5.82661L247.977 5.37277L247.528 5.03052L246.998 4.81472L246.429 4.7458H244.36L243.791 4.81472L243.268 5.03052L242.812 5.37277L242.625 5.58857ZM219.44 127.701L219.509 128.271L219.725 128.8L220.065 129.254L220.521 129.597L221.051 129.812L221.616 129.881H223.689L224.252 129.812L224.782 129.597L225.237 129.254L225.578 128.8L225.796 128.271L225.863 127.701V6.92793L225.796 6.35848L225.578 5.82661L225.237 5.37277L224.782 5.03052L224.252 4.81472L223.689 4.7458H221.616L221.051 4.81472L220.521 5.03052L220.065 5.37277L219.725 5.82661L219.509 6.35848L219.44 6.92793V127.701ZM209.963 129.863L212.315 129.881L212.88 129.812L213.41 129.597L213.866 129.254L214.212 128.8L214.421 128.271L214.49 127.701V6.92793L214.421 6.35848L214.212 5.82661L213.866 5.37277L213.41 5.03052L212.88 4.81472L212.315 4.7458H210.248L209.679 4.81472L209.149 5.03052L208.7 5.37277L208.351 5.82661L208.135 6.35848L208.073 6.92793V127.701L208.135 128.271L208.351 128.8L208.7 129.254L209.149 129.597L209.679 129.812" fill="#EDEDED"/>
<path d="M251.08 3.39111H307.938V131.236H251.08V3.39111ZM253.621 6.35848L253.559 6.92793V127.701L253.621 128.271L253.837 128.8L254.184 129.254L254.636 129.597L255.165 129.812L255.734 129.881H257.801L258.363 129.812L258.893 129.597L259.349 129.254L259.696 128.8L259.907 128.271L259.976 127.701V6.92793L259.907 6.35848L259.696 5.82661L259.349 5.37277L258.893 5.03052L258.363 4.81472L257.801 4.7458H255.734L255.165 4.81472L254.636 5.03052L254.184 5.37277L253.837 5.82661L253.621 6.35848ZM287.67 6.92793V127.701L287.739 128.271L287.951 128.8L288.298 129.254L288.754 129.597L289.283 129.812L289.846 129.881H291.913L292.482 129.812L293.011 129.597L293.463 129.254L293.81 128.8L294.026 128.271L294.088 127.701V6.92793L294.026 6.35848L293.81 5.82661L293.463 5.37277L293.011 5.03052L292.482 4.81472L291.913 4.7458H289.846L289.283 4.81472L288.754 5.03052L288.298 5.37277L287.951 5.82661L287.739 6.35848L287.67 6.92793ZM299.483 5.58857L299.198 6.08457L299.056 6.63636L299.042 127.701L299.107 128.271L299.322 128.8L299.67 129.254L300.119 129.597L300.648 129.812L301.218 129.881H303.286L303.856 129.812L304.38 129.597L304.835 129.254L305.183 128.8L305.393 128.271L305.462 127.701V6.92793L305.393 6.35848L305.183 5.82661L304.835 5.37277L304.38 5.03052L303.856 4.81472L303.286 4.7458H301.218L300.648 4.81472L300.119 5.03052L299.67 5.37277L299.483 5.58857ZM276.298 127.701L276.367 128.271L276.576 128.8L276.923 129.254L277.379 129.597L277.909 129.812L278.474 129.881H280.541L281.11 129.812L281.64 129.597L282.095 129.254L282.438 128.8L282.654 128.271L282.723 127.701V6.92793L282.654 6.35848L282.438 5.82661L282.095 5.37277L281.64 5.03052L281.11 4.81472L280.541 4.7458H278.474L277.909 4.81472L277.379 5.03052L276.923 5.37277L276.576 5.82661L276.367 6.35848L276.298 6.92793V127.701ZM266.815 129.863L269.173 129.881L269.738 129.812L270.268 129.597L270.724 129.254L271.071 128.8L271.28 128.271L271.348 127.701V6.92793L271.28 6.35848L271.071 5.82661L270.724 5.37277L270.268 5.03052L269.738 4.81472L269.173 4.7458H267.106L266.537 4.81472L266.007 5.03052L265.552 5.37277L265.211 5.82661L264.993 6.35848L264.926 6.92793V127.701L264.993 128.271L265.211 128.8L265.552 129.254L266.007 129.597L266.537 129.812" fill="#EDEDED"/>
<path d="M82.996 6.63636L83.1383 6.08457L83.4231 5.58857L84.0661 5.03052L84.5957 4.81472L85.1606 4.7458H87.2273L87.7968 4.81472L88.3258 5.03052L88.7752 5.37277L89.1225 5.82661L89.3407 6.35849L89.4027 6.92793V127.701L89.3407 128.271L89.1225 128.8L88.7752 129.254L88.3258 129.597L87.7968 129.812L87.2273 129.881H85.1606L84.5957 129.812L84.0661 129.597L83.6099 129.254L83.263 128.8L83.0518 128.271L82.9846 127.701V6.92793L82.996 6.63636ZM87.8412 127.877L88.0815 127.403L88.6687 124.329V10.2979L88.1145 7.39943L87.9431 6.89887L87.4431 6.39606L86.9425 6.22693L85.6208 6.21613L85.1025 6.32258L84.6578 6.61415L84.3684 7.0566L83.7186 10.2979V124.329L84.2705 127.228L84.4419 127.728L84.9425 128.23L85.4454 128.4L86.7643 128.413L87.2825 128.304L87.7279 128.012" fill="#EDEDED"/>
<path d="M87.9431 127.728L87.4431 128.23L86.9425 128.4L85.6207 128.413L85.1024 128.304L84.6577 128.012L84.3683 127.57L83.7186 124.329V10.2979L84.2704 7.39947L84.4418 6.89892L84.9424 6.3961L85.4453 6.22698L86.7642 6.21617L87.2824 6.32263L87.7278 6.61419L88.0233 7.05664L88.6686 10.2979V124.329L88.1145 127.228" fill="white"/>
<path d="M117.097 127.701V6.92793L117.165 6.35849L117.374 5.82661L117.724 5.37277L118.177 5.03052L118.709 4.81472L119.272 4.7458H121.339L121.908 4.81472L122.438 5.03052L122.894 5.37277L123.236 5.82661L123.452 6.35849L123.521 6.92793V127.701L123.452 128.271L123.236 128.8L122.894 129.254L122.438 129.597L121.908 129.812L121.339 129.881H119.272L118.709 129.812L118.177 129.597L117.724 129.254L117.374 128.8L117.165 128.271L117.097 127.701ZM118.389 7.39943L117.831 10.2979V124.329L118.389 127.228L118.56 127.728L119.056 128.23L119.557 128.4L120.878 128.413L121.401 128.304L121.842 128.012L122.137 127.57L122.785 124.329V10.2979L122.229 7.39943L122.057 6.89887L121.561 6.39606L121.054 6.22693L119.739 6.21613L119.214 6.32258L118.776 6.61415L118.48 7.0566" fill="#EDEDED"/>
<path d="M128.749 5.82661L129.096 5.37277L129.552 5.03052L130.082 4.81472L130.644 4.7458H132.713L133.283 4.81472L133.812 5.03052L134.261 5.37277L134.608 5.82661L134.824 6.35849L134.886 6.92793V127.701L134.824 128.271L134.608 128.8L134.261 129.254L133.812 129.597L133.283 129.812L132.713 129.881H130.644L130.082 129.812L129.552 129.597L129.096 129.254L128.749 128.8L128.538 128.271L128.469 127.701V6.92793L128.538 6.35849L128.749 5.82661ZM133.567 127.403L134.152 124.329V10.2979L133.6 7.39943L133.43 6.89887L132.929 6.39606L132.428 6.22693L131.107 6.21613L130.588 6.32258L130.15 6.61415L129.852 7.0566L129.205 10.2979V124.329L129.761 127.228L129.932 127.728L130.428 128.23L130.929 128.4L132.25 128.413L132.768 128.304L133.214 128.012L133.509 127.57" fill="#EDEDED"/>
<path d="M117.831 10.2979L118.389 7.39947L118.56 6.89892L119.056 6.3961L119.557 6.22698L120.878 6.21617L121.401 6.32263L121.842 6.61419L122.137 7.05664L122.785 10.2979V124.329L122.229 127.228L122.057 127.728L121.561 128.23L121.054 128.4L119.739 128.413L119.215 128.304L118.776 128.012L118.48 127.57L117.831 124.329" fill="white"/>
<path d="M133.6 127.228L133.43 127.728L132.929 128.23L132.428 128.4L131.107 128.413L130.588 128.304L130.15 128.012L129.852 127.57L129.205 124.329V10.2979L129.761 7.39947L129.932 6.89892L130.428 6.3961L130.929 6.22698L132.25 6.21617L132.768 6.32263L133.214 6.61419L133.509 7.05664L134.152 10.2979V124.329" fill="white"/>
<path d="M110.683 6.89892L110.854 7.39947L111.413 10.2979V124.329L110.854 127.228L110.683 127.728L110.189 128.23L109.686 128.4L108.367 128.413L107.842 128.304L107.404 128.012L107.108 127.57L106.458 124.329V10.2979L107.017 7.39947L107.188 6.89892L107.682 6.3961L108.189 6.22698L109.506 6.21617L110.029 6.32263L110.467 6.61419" fill="white"/>
<path d="M105.74 127.99L105.724 6.92793L105.791 6.35849L106.009 5.82661L106.35 5.37277L106.806 5.03052L107.335 4.81472L107.904 4.7458H109.971L110.536 4.81472L111.066 5.03052L111.522 5.37277L111.869 5.82661L112.08 6.35849L112.147 6.92793V127.701L112.08 128.271L111.869 128.8L111.522 129.254L111.066 129.597L110.536 129.812L109.971 129.881H107.904L107.335 129.812L106.806 129.597L106.35 129.254L106.009 128.8L105.791 128.271L105.74 127.99ZM110.763 7.0566L110.467 6.61415L110.029 6.32258L109.506 6.21613H108.367L107.842 6.32258L107.404 6.61415L107.108 7.0566L106.458 10.2979V124.329L107.017 127.228L107.188 127.728L107.682 128.23L108.189 128.4L109.506 128.413L110.029 128.304L110.467 128.012L110.763 127.57L111.412 124.329V10.2979L110.854 7.39943" fill="#EDEDED"/>
<path d="M98.9639 128.129L98.4923 128.362L96.9929 128.413L96.4746 128.304L96.0321 128.012L95.7337 127.57L95.0908 124.329V10.2979L95.6449 7.39947L95.814 6.89892L96.3169 6.3961L96.8169 6.22698L98.1387 6.21617L98.6569 6.32263L99.0994 6.61419L99.391 7.05664L100.041 10.2979V124.329L99.4821 127.228L99.3175 127.728" fill="white"/>
<path d="M96.5322 129.881L95.9627 129.812L95.4336 129.597L94.9843 129.254L94.6346 128.8L94.4194 128.271L94.3567 127.701V6.92793L94.4194 6.35849L94.6346 5.82661L94.9843 5.37277L95.4336 5.03052L95.9627 4.81472L96.5322 4.7458H98.5989L99.1643 4.81472L99.6934 5.03052L100.147 5.37277L100.496 5.82661L100.706 6.35849L100.775 6.92793V127.701L100.706 128.271L100.496 128.8L100.147 129.254L99.6934 129.597L99.1643 129.812L98.5989 129.881H96.5322ZM98.8147 128.23L99.3175 127.728L99.4821 127.228L100.041 124.329V10.2979L99.4821 7.39943L99.3175 6.89887L98.8147 6.39606L98.3141 6.22693L96.9929 6.21613L96.4747 6.32258L96.0321 6.61415L95.7337 7.0566L95.0908 10.2979V124.329L95.6449 127.228L95.814 127.728L96.3169 128.23L96.8169 128.4L98.1387 128.413L98.6569 128.304" fill="#EDEDED"/>
<path d="M26.1379 6.63636L26.2803 6.08457L26.5651 5.58857L27.208 5.03052L27.7377 4.81472L28.3026 4.7458H30.3693L30.9388 4.81472L31.4678 5.03052L31.9177 5.37277L32.2646 5.82661L32.4827 6.35849L32.5447 6.92793V127.701L32.4827 128.271L32.2646 128.8L31.9177 129.254L31.4678 129.597L30.9388 129.812L30.3693 129.881H28.3026L27.7377 129.812L27.208 129.597L26.7519 129.254L26.4051 128.8L26.1938 128.271L26.1271 127.701V6.92793L26.1379 6.63636ZM30.9832 127.877L31.2235 127.403L31.8084 124.329V10.2979L31.2565 7.39943L31.0857 6.89887L30.5851 6.39606L30.0845 6.22693L28.7627 6.21613L28.2445 6.32258L27.7997 6.61415L27.5104 7.0566L26.8612 10.2979V124.329L27.4193 127.228L27.5907 127.728L28.0845 128.23L28.5873 128.4L29.9063 128.413L30.4245 128.304L30.8699 128.012" fill="#EDEDED"/>
<path d="M31.0856 127.728L30.585 128.23L30.0844 128.4L28.7626 128.413L28.2444 128.304L27.7996 128.012L27.5103 127.57L26.8611 124.329V10.2979L27.4192 7.39947L27.5906 6.89892L28.0844 6.3961L28.5872 6.22698L29.9062 6.21617L30.4244 6.32263L30.8698 6.61419L31.1653 7.05664L31.8083 10.2979V124.329L31.2565 127.228" fill="white"/>
<path d="M60.2385 127.701V6.92793L60.3074 6.35849L60.5233 5.82661L60.8661 5.37277L61.3194 5.03052L61.849 4.81472L62.414 4.7458H64.4875L65.0501 4.81472L65.5798 5.03052L66.0359 5.37277L66.3782 5.82661L66.594 6.35849L66.6629 6.92793V127.701L66.594 128.271L66.3782 128.8L66.0359 129.254L65.5798 129.597L65.0501 129.812L64.4875 129.881H62.414L61.849 129.812L61.3194 129.597L60.8661 129.254L60.5233 128.8L60.3074 128.271L60.2385 127.701ZM61.5313 7.39943L60.9726 10.2979V124.329L61.5313 127.228L61.7021 127.728L62.1981 128.23L62.7033 128.4L64.0205 128.413L64.5433 128.304L64.9812 128.012L65.2796 127.57L65.9266 124.329V10.2979L65.3708 7.39943L65.1993 6.89887L64.7033 6.39606L64.2027 6.22693L62.8815 6.21613L62.3565 6.32258L61.9179 6.61415L61.6224 7.0566" fill="#EDEDED"/>
<path d="M71.8909 5.82661L72.2377 5.37277L72.6939 5.03052L73.2235 4.81472L73.7862 4.7458H75.8551L76.4246 4.81472L76.9542 5.03052L77.4036 5.37277L77.7504 5.82661L77.9662 6.35849L78.0283 6.92793V127.701L77.9662 128.271L77.7504 128.8L77.4036 129.254L76.9542 129.597L76.4246 129.812L75.8551 129.881H73.7862L73.2235 129.812L72.6939 129.597L72.2377 129.254L71.8909 128.8L71.6796 128.271L71.6107 127.701V6.92793L71.6796 6.35849L71.8909 5.82661ZM76.7094 127.403L77.3011 124.329V10.2979L76.7424 7.39943L76.5715 6.89887L76.0755 6.39606L75.5704 6.22693L74.2492 6.21613L73.7304 6.32258L73.2924 6.61415L72.994 7.0566L72.3471 10.2979V124.329L72.9029 127.228L73.0743 127.728L73.5703 128.23L74.0709 128.4L75.3921 128.413L75.9172 128.304L76.3557 128.012L76.6513 127.57" fill="#EDEDED"/>
<path d="M60.9726 10.2979L61.5313 7.39947L61.7021 6.89892L62.1981 6.3961L62.7033 6.22698L64.0205 6.21617L64.5433 6.32263L64.9812 6.61419L65.2796 7.05664L65.9266 10.2979V124.329L65.3708 127.228L65.1993 127.728L64.7033 128.23L64.2027 128.4L62.8815 128.413L62.3565 128.304L61.9179 128.012L61.6224 127.57L60.9726 124.329" fill="white"/>
<path d="M76.7423 127.228L76.5715 127.728L76.0755 128.23L75.5703 128.4L74.2491 128.413L73.7303 128.304L73.2924 128.012L72.994 127.57L72.347 124.329V10.2979L72.9028 7.39947L73.0743 6.89892L73.5703 6.3961L74.0709 6.22698L75.3921 6.21617L75.9172 6.32263L76.3557 6.61419L76.6512 7.05664L77.301 10.2979V124.329" fill="white"/>
<path d="M53.8249 6.89892L53.9963 7.39947L54.555 10.2979V124.329L53.9963 127.228L53.8249 127.728L53.3312 128.23L52.8283 128.4L51.5094 128.413L50.9911 128.304L50.5458 128.012L50.2502 127.57L49.605 124.329V10.2979L50.1591 7.39947L50.3305 6.89892L50.8305 6.3961L51.3311 6.22698L52.6529 6.21617L53.1712 6.32263L53.6091 6.61419" fill="white"/>
<path d="M48.8823 127.99L48.8708 6.92793L48.9329 6.35849L49.151 5.82661L49.4984 5.37277L49.9478 5.03052L50.4768 4.81472L51.0463 4.7458H53.113L53.6779 4.81472L54.2075 5.03052L54.6637 5.37277L55.0105 5.82661L55.2218 6.35849L55.289 6.92793V127.701L55.2218 128.271L55.0105 128.8L54.6637 129.254L54.2075 129.597L53.6779 129.812L53.113 129.881H51.0463L50.4768 129.812L49.9478 129.597L49.4984 129.254L49.151 128.8L48.9329 128.271L48.8823 127.99ZM53.9052 7.0566L53.609 6.61415L53.1711 6.32258L52.6528 6.21613H51.5093L50.9911 6.32258L50.5457 6.61415L50.2502 7.0566L49.6049 10.2979V124.329L50.1591 127.228L50.3305 127.728L50.8305 128.23L51.3311 128.4L52.6528 128.413L53.1711 128.304L53.609 128.012L53.9052 127.57L54.555 124.329V10.2979L53.9963 7.39943" fill="#EDEDED"/>
<path d="M42.1059 128.129L41.6321 128.362L40.1349 128.413L39.6167 128.304L39.1742 128.012L38.8757 127.57L38.2328 124.329V10.2979L38.7846 7.39947L38.9561 6.89892L39.4589 6.3961L39.9595 6.22698L41.2807 6.21617L41.7989 6.32263L42.2415 6.61419L42.533 7.05664L43.1828 10.2979V124.329L42.6287 127.228L42.4596 127.728" fill="white"/>
<path d="M39.6747 129.881L39.1052 129.812L38.5756 129.597L38.1262 129.254L37.7771 128.8L37.5613 128.271L37.4987 127.701V6.92793L37.5613 6.35849L37.7771 5.82661L38.1262 5.37277L38.5756 5.03052L39.1052 4.81472L39.6747 4.7458H41.7414L42.3109 4.81472L42.8353 5.03052L43.2892 5.37277L43.6389 5.82661L43.8479 6.35849L43.9168 6.92793V127.701L43.8479 128.271L43.6389 128.8L43.2892 129.254L42.8353 129.597L42.3109 129.812L41.7414 129.881H39.6747ZM41.9566 128.23L42.4595 127.728L42.6286 127.228L43.1828 124.329V10.2979L42.6286 7.39943L42.4595 6.89887L41.9566 6.39606L41.4566 6.22693L40.1348 6.21613L39.6166 6.32258L39.1741 6.61415L38.8757 7.0566L38.2327 10.2979V124.329L38.7846 127.228L38.956 127.728L39.4589 128.23L39.9594 128.4L41.2806 128.413L41.7989 128.304" fill="#EDEDED"/>
<path d="M139.854 6.63636L139.996 6.08457L140.281 5.58857L140.924 5.03052L141.449 4.81472L142.019 4.7458H144.085L144.654 4.81472L145.177 5.03052L145.633 5.37277L145.981 5.82661L146.198 6.35849L146.261 6.92793V127.701L146.198 128.271L145.981 128.8L145.633 129.254L145.177 129.597L144.654 129.812L144.085 129.881H142.019L141.449 129.812L140.924 129.597L140.468 129.254L140.121 128.8L139.905 128.271L139.843 127.701V6.92793L139.854 6.63636ZM144.699 127.877L144.939 127.403L145.527 124.329V10.2979L144.973 7.39943L144.801 6.89887L144.301 6.39606L143.8 6.22693L142.479 6.21613L141.96 6.32258L141.516 6.61415L141.226 7.0566L140.577 10.2979V124.329L141.128 127.228L141.3 127.728L141.8 128.23L142.303 128.4L143.625 128.413L144.14 128.304L144.585 128.012" fill="#EDEDED"/>
<path d="M144.801 127.728L144.301 128.23L143.8 128.4L142.479 128.413L141.961 128.304L141.516 128.012L141.226 127.57L140.577 124.329V10.2979L141.128 7.39947L141.3 6.89892L141.8 6.3961L142.303 6.22698L143.625 6.21617L144.141 6.32263L144.585 6.61419L144.877 7.05664L145.527 10.2979V124.329L144.973 127.228" fill="white"/>
<path d="M173.955 127.701V6.92793L174.023 6.35849L174.235 5.82661L174.582 5.37277L175.035 5.03052L175.567 4.81472L176.13 4.7458H178.197L178.766 4.81472L179.296 5.03052L179.751 5.37277L180.094 5.82661L180.31 6.35849L180.379 6.92793V127.701L180.31 128.271L180.094 128.8L179.751 129.254L179.296 129.597L178.766 129.812L178.197 129.881H176.13L175.567 129.812L175.035 129.597L174.582 129.254L174.235 128.8L174.023 128.271L173.955 127.701ZM175.247 7.39943L174.689 10.2979V124.329L175.247 127.228L175.418 127.728L175.914 128.23L176.415 128.4L177.736 128.413L178.259 128.304L178.7 128.012L178.995 127.57L179.645 124.329V10.2979L179.086 7.39943L178.915 6.89887L178.419 6.39606L177.912 6.22693L176.597 6.21613L176.072 6.32258L175.634 6.61415L175.338 7.0566" fill="#EDEDED"/>
<path d="M185.607 5.82661L185.954 5.37277L186.41 5.03052L186.939 4.81472L187.502 4.7458H189.571L190.141 4.81472L190.67 5.03052L191.119 5.37277L191.466 5.82661L191.682 6.35849L191.747 6.92793V127.701L191.682 128.271L191.466 128.8L191.119 129.254L190.67 129.597L190.141 129.812L189.571 129.881H187.502L186.939 129.812L186.41 129.597L185.954 129.254L185.607 128.8L185.396 128.271L185.326 127.701V6.92793L185.396 6.35849L185.607 5.82661ZM190.425 127.403L191.01 124.329V10.2979L190.458 7.39943L190.287 6.89887L189.786 6.39606L189.286 6.22693L187.965 6.21613L187.446 6.32258L187.002 6.61415L186.71 7.0566L186.063 10.2979V124.329L186.621 127.228L186.786 127.728L187.286 128.23L187.787 128.4L189.108 128.413L189.626 128.304L190.071 128.012L190.367 127.57" fill="#EDEDED"/>
<path d="M174.689 10.2979L175.247 7.39947L175.418 6.89892L175.914 6.3961L176.415 6.22698L177.736 6.21617L178.259 6.32263L178.7 6.61419L178.995 7.05664L179.645 10.2979V124.329L179.086 127.228L178.915 127.728L178.419 128.23L177.912 128.4L176.597 128.413L176.072 128.304L175.634 128.012L175.338 127.57L174.689 124.329" fill="white"/>
<path d="M190.458 127.228L190.287 127.728L189.786 128.23L189.286 128.4L187.965 128.413L187.446 128.304L187.002 128.012L186.71 127.57L186.062 124.329V10.2979L186.621 7.39947L186.786 6.89892L187.286 6.3961L187.787 6.22698L189.108 6.21617L189.626 6.32263L190.071 6.61419L190.367 7.05664L191.01 10.2979V124.329" fill="white"/>
<path d="M167.543 6.89892L167.712 7.39947L168.27 10.2979V124.329L167.712 127.228L167.543 127.728L167.047 128.23L166.547 128.4L165.225 128.413L164.7 128.304L164.262 128.012L163.966 127.57L163.316 124.329V10.2979L163.874 7.39947L164.046 6.89892L164.54 6.3961L165.047 6.22698L166.364 6.21617L166.887 6.32263L167.325 6.61419" fill="white"/>
<path d="M162.598 127.99L162.582 6.92793L162.649 6.35849L162.867 5.82661L163.208 5.37277L163.663 5.03052L164.193 4.81472L164.762 4.7458H166.831L167.394 4.81472L167.924 5.03052L168.38 5.37277L168.727 5.82661L168.938 6.35849L169.005 6.92793V127.701L168.938 128.271L168.727 128.8L168.38 129.254L167.924 129.597L167.394 129.812L166.831 129.881H164.762L164.193 129.812L163.663 129.597L163.208 129.254L162.867 128.8L162.649 128.271L162.598 127.99ZM167.621 7.0566L167.325 6.61415L166.887 6.32258L166.364 6.21613H165.225L164.7 6.32258L164.262 6.61415L163.966 7.0566L163.317 10.2979V124.329L163.875 127.228L164.046 127.728L164.54 128.23L165.047 128.4L166.364 128.413L166.887 128.304L167.325 128.012L167.621 127.57L168.271 124.329V10.2979L167.712 7.39943" fill="#EDEDED"/>
<path d="M155.822 128.129L155.344 128.362L153.851 128.413L153.333 128.304L152.89 128.012L152.594 127.57L151.949 124.329V10.2979L152.503 7.39947L152.672 6.89892L153.174 6.3961L153.675 6.22698L154.997 6.21617L155.515 6.32263L155.953 6.61419L156.249 7.05664L156.898 10.2979V124.329L156.34 127.228L156.169 127.728" fill="white"/>
<path d="M153.39 129.881L152.821 129.812L152.292 129.597L151.842 129.254L151.493 128.8L151.277 128.271L151.215 127.701V6.92793L151.277 6.35849L151.493 5.82661L151.842 5.37277L152.292 5.03052L152.821 4.81472L153.39 4.7458H155.457L156.022 4.81472L156.551 5.03052L157.008 5.37277L157.354 5.82661L157.563 6.35849L157.633 6.92793V127.701L157.563 128.271L157.354 128.8L157.008 129.254L156.551 129.597L156.022 129.812L155.457 129.881H153.39ZM155.673 128.23L156.169 127.728L156.34 127.228L156.898 124.329V10.2979L156.34 7.39943L156.169 6.89887L155.673 6.39606L155.172 6.22693L153.851 6.21613L153.333 6.32258L152.89 6.61415L152.594 7.0566L151.949 10.2979V124.329L152.503 127.228L152.672 127.728L153.174 128.23L153.675 128.4L154.997 128.413L155.515 128.304" fill="#EDEDED"/>
<path d="M196.712 6.63636L196.854 6.08457L197.139 5.58857L197.778 5.03052L198.307 4.81472L198.876 4.7458H200.943L201.506 4.81472L202.035 5.03052L202.491 5.37277L202.838 5.82661L203.05 6.35849L203.119 6.92793V127.701L203.05 128.271L202.838 128.8L202.491 129.254L202.035 129.597L201.506 129.812L200.943 129.881H198.876L198.307 129.812L197.778 129.597L197.326 129.254L196.978 128.8L196.763 128.271L196.701 127.701V6.92793L196.712 6.63636ZM201.557 127.877L201.791 127.403L202.385 124.329V10.2979L201.831 7.39943L201.659 6.89887L201.159 6.39606L200.658 6.22693L199.337 6.21613L198.819 6.32258L198.374 6.61415L198.078 7.0566L197.435 10.2979V124.329L197.987 127.228L198.158 127.728L198.659 128.23L199.161 128.4L200.483 128.413L201.001 128.304L201.443 128.012" fill="#EDEDED"/>
<path d="M201.659 127.728L201.159 128.23L200.658 128.4L199.337 128.413L198.819 128.304L198.374 128.012L198.078 127.57L197.435 124.329V10.2979L197.987 7.39947L198.158 6.89892L198.659 6.3961L199.161 6.22698L200.483 6.21617L201.001 6.32263L201.443 6.61419L201.735 7.05664L202.385 10.2979V124.329L201.831 127.228" fill="white"/>
<path d="M230.813 127.701V6.92793L230.882 6.35849L231.093 5.82661L231.44 5.37277L231.896 5.03052L232.425 4.81472L232.988 4.7458H235.055L235.624 4.81472L236.153 5.03052L236.605 5.37277L236.952 5.82661L237.168 6.35849L237.23 6.92793V127.701L237.168 128.271L236.952 128.8L236.605 129.254L236.153 129.597L235.624 129.812L235.055 129.881H232.988L232.425 129.812L231.896 129.597L231.44 129.254L231.093 128.8L230.882 128.271L230.813 127.701ZM232.105 7.39943L231.547 10.2979V124.329L232.105 127.228L232.276 127.728L232.772 128.23L233.273 128.4L234.594 128.413L235.112 128.304L235.558 128.012L235.853 127.57L236.496 124.329V10.2979L235.944 7.39943L235.773 6.89887L235.273 6.39606L234.77 6.22693L233.448 6.21613L232.93 6.32258L232.492 6.61415L232.196 7.0566" fill="#EDEDED"/>
<path d="M242.464 5.82661L242.812 5.37277L243.268 5.03052L243.791 4.81472L244.36 4.7458H246.429L246.998 4.81472L247.528 5.03052L247.977 5.37277L248.324 5.82661L248.54 6.35849L248.605 6.92793V127.701L248.54 128.271L248.324 128.8L247.977 129.254L247.528 129.597L246.998 129.812L246.429 129.881H244.36L243.791 129.812L243.268 129.597L242.812 129.254L242.464 128.8L242.253 128.271L242.184 127.701V6.92793L242.253 6.35849L242.464 5.82661ZM247.283 127.403L247.868 124.329V10.2979L247.316 7.39943L247.145 6.89887L246.644 6.39606L246.144 6.22693L244.823 6.21613L244.304 6.32258L243.86 6.61415L243.57 7.0566L242.921 10.2979V124.329L243.472 127.228L243.644 127.728L244.144 128.23L244.645 128.4L245.966 128.413L246.484 128.304L246.929 128.012L247.225 127.57" fill="#EDEDED"/>
<path d="M231.547 10.2979L232.105 7.39947L232.276 6.89892L232.772 6.3961L233.273 6.22698L234.594 6.21617L235.112 6.32263L235.558 6.61419L235.853 7.05664L236.496 10.2979V124.329L235.944 127.228L235.773 127.728L235.273 128.23L234.77 128.4L233.448 128.413L232.93 128.304L232.492 128.012L232.196 127.57L231.547 124.329" fill="white"/>
<path d="M247.317 127.228L247.145 127.728L246.645 128.23L246.144 128.4L244.823 128.413L244.304 128.304L243.86 128.012L243.57 127.57L242.921 124.329V10.2979L243.472 7.39947L243.644 6.89892L244.144 6.3961L244.645 6.22698L245.966 6.21617L246.485 6.32263L246.929 6.61419L247.225 7.05664L247.868 10.2979V124.329" fill="white"/>
<path d="M224.401 6.89892L224.57 7.39947L225.129 10.2979V124.329L224.57 127.228L224.401 127.728L223.905 128.23L223.398 128.4L222.083 128.413L221.558 128.304L221.12 128.012L220.824 127.57L220.175 124.329V10.2979L220.733 7.39947L220.904 6.89892L221.398 6.3961L221.901 6.22698L223.222 6.21617L223.745 6.32263L224.183 6.61419" fill="white"/>
<path d="M219.456 127.99L219.44 6.92793L219.509 6.35849L219.725 5.82661L220.065 5.37277L220.521 5.03052L221.051 4.81472L221.616 4.7458H223.689L224.252 4.81472L224.782 5.03052L225.237 5.37277L225.578 5.82661L225.796 6.35849L225.863 6.92793V127.701L225.796 128.271L225.578 128.8L225.237 129.254L224.782 129.597L224.252 129.812L223.689 129.881H221.616L221.051 129.812L220.521 129.597L220.065 129.254L219.725 128.8L219.509 128.271L219.456 127.99ZM224.479 7.0566L224.183 6.61415L223.745 6.32258L223.222 6.21613H222.083L221.558 6.32258L221.12 6.61415L220.824 7.0566L220.175 10.2979V124.329L220.733 127.228L220.904 127.728L221.398 128.23L221.901 128.4L223.222 128.413L223.745 128.304L224.183 128.012L224.479 127.57L225.129 124.329V10.2979L224.57 7.39943" fill="#EDEDED"/>
<path d="M212.68 128.129L212.202 128.362L210.709 128.413L210.186 128.304L209.748 128.012L209.452 127.57L208.802 124.329V10.2979L209.361 7.39947L209.53 6.89892L210.026 6.3961L210.533 6.22698L211.854 6.21617L212.373 6.32263L212.811 6.61419L213.107 7.05664L213.756 10.2979V124.329L213.198 127.228L213.027 127.728" fill="white"/>
<path d="M210.248 129.881L209.679 129.812L209.149 129.597L208.7 129.254L208.351 128.8L208.135 128.271L208.073 127.701V6.92793L208.135 6.35849L208.351 5.82661L208.7 5.37277L209.149 5.03052L209.679 4.81472L210.248 4.7458H212.315L212.88 4.81472L213.409 5.03052L213.866 5.37277L214.212 5.82661L214.421 6.35849L214.49 6.92793V127.701L214.421 128.271L214.212 128.8L213.866 129.254L213.409 129.597L212.88 129.812L212.315 129.881H210.248ZM212.533 128.23L213.027 127.728L213.198 127.228L213.756 124.329V10.2979L213.198 7.39943L213.027 6.89887L212.533 6.39606L212.03 6.22693L210.709 6.21613L210.186 6.32258L209.748 6.61415L209.452 7.0566L208.802 10.2979V124.329L209.361 127.228L209.53 127.728L210.026 128.23L210.533 128.4L211.854 128.413L212.373 128.304" fill="#EDEDED"/>
<path d="M253.57 6.63636L253.712 6.08457L253.997 5.58857L254.636 5.03052L255.165 4.81472L255.734 4.7458H257.801L258.364 4.81472L258.893 5.03052L259.349 5.37277L259.696 5.82661L259.907 6.35849L259.976 6.92793V127.701L259.907 128.271L259.696 128.8L259.349 129.254L258.893 129.597L258.364 129.812L257.801 129.881H255.734L255.165 129.812L254.636 129.597L254.184 129.254L253.837 128.8L253.621 128.271L253.559 127.701V6.92793L253.57 6.63636ZM258.415 127.877L258.648 127.403L259.242 124.329V10.2979L258.684 7.39943L258.513 6.89887L258.017 6.39606L257.516 6.22693L256.195 6.21613L255.677 6.32258L255.231 6.61415L254.936 7.0566L254.293 10.2979V124.329L254.845 127.228L255.016 127.728L255.516 128.23L256.019 128.4L257.341 128.413L257.859 128.304L258.301 128.012" fill="#EDEDED"/>
<path d="M258.513 127.728L258.017 128.23L257.516 128.4L256.195 128.413L255.677 128.304L255.231 128.012L254.936 127.57L254.293 124.329V10.2979L254.845 7.39947L255.016 6.89892L255.516 6.3961L256.019 6.22698L257.341 6.21617L257.859 6.32263L258.301 6.61419L258.593 7.05664L259.242 10.2979V124.329L258.684 127.228" fill="white"/>
<path d="M287.67 127.701V6.92793L287.739 6.35849L287.951 5.82661L288.298 5.37277L288.754 5.03052L289.283 4.81472L289.846 4.7458H291.913L292.482 4.81472L293.011 5.03052L293.463 5.37277L293.81 5.82661L294.026 6.35849L294.088 6.92793V127.701L294.026 128.271L293.81 128.8L293.463 129.254L293.011 129.597L292.482 129.812L291.913 129.881H289.846L289.283 129.812L288.754 129.597L288.298 129.254L287.951 128.8L287.739 128.271L287.67 127.701ZM288.963 7.39943L288.404 10.2979V124.329L288.963 127.228L289.134 127.728L289.63 128.23L290.131 128.4L291.452 128.413L291.97 128.304L292.415 128.012L292.711 127.57L293.354 124.329V10.2979L292.802 7.39943L292.631 6.89887L292.13 6.39606L291.628 6.22693L290.306 6.21613L289.788 6.32258L289.345 6.61415L289.054 7.0566" fill="#EDEDED"/>
<path d="M299.322 5.82661L299.67 5.37277L300.119 5.03052L300.648 4.81472L301.218 4.7458H303.286L303.856 4.81472L304.38 5.03052L304.835 5.37277L305.183 5.82661L305.393 6.35849L305.462 6.92793V127.701L305.393 128.271L305.183 128.8L304.835 129.254L304.38 129.597L303.856 129.812L303.286 129.881H301.218L300.648 129.812L300.119 129.597L299.67 129.254L299.322 128.8L299.107 128.271L299.042 127.701V6.92793L299.107 6.35849L299.322 5.82661ZM304.135 127.403L304.727 124.329V10.2979L304.175 7.39943L304.004 6.89887L303.502 6.39606L303.001 6.22693L301.681 6.21613L301.162 6.32258L300.718 6.61415L300.422 7.0566L299.779 10.2979V124.329L300.33 127.228L300.502 127.728L301.002 128.23L301.502 128.4L302.825 128.413L303.343 128.304L303.787 128.012L304.078 127.57" fill="#EDEDED"/>
<path d="M288.404 10.2979L288.963 7.39947L289.134 6.89892L289.63 6.3961L290.131 6.22698L291.452 6.21617L291.97 6.32263L292.415 6.61419L292.711 7.05664L293.354 10.2979V124.329L292.802 127.228L292.631 127.728L292.13 128.23L291.628 128.4L290.306 128.413L289.788 128.304L289.346 128.012L289.054 127.57L288.404 124.329" fill="white"/>
<path d="M304.174 127.228L304.004 127.728L303.502 128.23L303.001 128.4L301.681 128.413L301.162 128.304L300.718 128.012L300.422 127.57L299.779 124.329V10.2979L300.33 7.39947L300.502 6.89892L301.002 6.3961L301.502 6.22698L302.825 6.21617L303.343 6.32263L303.787 6.61419L304.078 7.05664L304.727 10.2979V124.329" fill="white"/>
<path d="M281.259 6.89892L281.428 7.39947L281.987 10.2979V124.329L281.428 127.228L281.259 127.728L280.763 128.23L280.256 128.4L278.941 128.413L278.416 128.304L277.978 128.012L277.682 127.57L277.032 124.329V10.2979L277.591 7.39947L277.762 6.89892L278.256 6.3961L278.759 6.22698L280.08 6.21617L280.603 6.32263L281.041 6.61419" fill="white"/>
<path d="M276.316 127.99L276.298 6.92793L276.367 6.35849L276.576 5.82661L276.923 5.37277L277.379 5.03052L277.909 4.81472L278.474 4.7458H280.541L281.11 4.81472L281.64 5.03052L282.095 5.37277L282.438 5.82661L282.654 6.35849L282.723 6.92793V127.701L282.654 128.271L282.438 128.8L282.095 129.254L281.64 129.597L281.11 129.812L280.541 129.881H278.474L277.909 129.812L277.379 129.597L276.923 129.254L276.576 128.8L276.367 128.271L276.316 127.99ZM281.337 7.0566L281.041 6.61415L280.603 6.32258L280.08 6.21613H278.941L278.416 6.32258L277.978 6.61415L277.682 7.0566L277.032 10.2979V124.329L277.591 127.228L277.762 127.728L278.256 128.23L278.759 128.4L280.08 128.413L280.603 128.304L281.041 128.012L281.337 127.57L281.986 124.329V10.2979L281.428 7.39943" fill="#EDEDED"/>
<path d="M269.538 128.129L269.06 128.362L267.567 128.413L267.044 128.304L266.606 128.012L266.31 127.57L265.66 124.329V10.2979L266.218 7.39947L266.388 6.89892L266.884 6.3961L267.391 6.22698L268.706 6.21617L269.23 6.32263L269.669 6.61419L269.965 7.05664L270.614 10.2979V124.329L270.056 127.228L269.885 127.728" fill="white"/>
<path d="M267.106 129.881L266.537 129.812L266.007 129.597L265.552 129.254L265.211 128.8L264.993 128.271L264.926 127.701V6.92793L264.993 6.35849L265.211 5.82661L265.552 5.37277L266.007 5.03052L266.537 4.81472L267.106 4.7458H269.173L269.738 4.81472L270.268 5.03052L270.724 5.37277L271.07 5.82661L271.279 6.35849L271.348 6.92793V127.701L271.279 128.271L271.07 128.8L270.724 129.254L270.268 129.597L269.738 129.812L269.173 129.881H267.106ZM269.391 128.23L269.885 127.728L270.056 127.228L270.614 124.329V10.2979L270.056 7.39943L269.885 6.89887L269.391 6.39606L268.888 6.22693L267.567 6.21613L267.044 6.32258L266.606 6.61415L266.31 7.0566L265.66 10.2979V124.329L266.218 127.228L266.388 127.728L266.884 128.23L267.391 128.4L268.706 128.413L269.23 128.304" fill="#EDEDED"/>
<path d="M330.593 133.634V124.818" stroke="black" stroke-width="0.008" stroke-miterlimit="10"/>
<path d="M10.6814 130.206H23.6487" stroke="black" stroke-width="0.004" stroke-miterlimit="10"/>
<path d="M320.912 130.206V133.469" stroke="black" stroke-width="0.004" stroke-miterlimit="10"/>
<path d="M10.6814 133.469H320.912" stroke="black" stroke-width="0.008" stroke-miterlimit="10"/>
<path d="M307.939 130.206H320.912" stroke="black" stroke-width="0.004" stroke-miterlimit="10"/>
<path d="M10.6814 133.469V130.206" stroke="black" stroke-width="0.004" stroke-miterlimit="10"/>
<path d="M117.097 6.92792V127.701" stroke="black" stroke-width="0.004" stroke-miterlimit="10"/>
<path d="M121.339 129.881H119.272" stroke="black" stroke-width="0.004" stroke-miterlimit="10"/>
<path d="M123.521 127.701V6.92792" stroke="black" stroke-width="0.004" stroke-miterlimit="10"/>
<path d="M119.272 4.74585H121.339" stroke="black" stroke-width="0.004" stroke-miterlimit="10"/>
<path d="M118.389 7.39943L117.831 10.2979" stroke="black" stroke-width="0.004" stroke-miterlimit="10"/>
<path d="M120.878 6.21616H119.739" stroke="black" stroke-width="0.004" stroke-miterlimit="10"/>
<path d="M122.229 7.39943L122.785 10.2979" stroke="black" stroke-width="0.004" stroke-miterlimit="10"/>
<path d="M122.229 127.228L122.785 124.329" stroke="black" stroke-width="0.004" stroke-miterlimit="10"/>
<path d="M119.739 128.413H120.878" stroke="black" stroke-width="0.004" stroke-miterlimit="10"/>
<path d="M118.389 127.228L117.831 124.329" stroke="black" stroke-width="0.004" stroke-miterlimit="10"/>
<path d="M86.7643 6.21616H85.6207" stroke="black" stroke-width="0.004" stroke-miterlimit="10"/>
<path d="M88.1145 7.39943L88.6686 10.2979" stroke="black" stroke-width="0.004" stroke-miterlimit="10"/>
<path d="M85.6207 128.413H86.7643" stroke="black" stroke-width="0.004" stroke-miterlimit="10"/>
<path d="M88.1145 127.228L88.6686 124.329" stroke="black" stroke-width="0.004" stroke-miterlimit="10"/>
<path d="M84.2704 127.228L83.7186 124.329" stroke="black" stroke-width="0.004" stroke-miterlimit="10"/>
<path d="M87.2272 129.881H85.1605" stroke="black" stroke-width="0.004" stroke-miterlimit="10"/>
<path d="M131.107 128.413H132.25" stroke="black" stroke-width="0.004" stroke-miterlimit="10"/>
<path d="M85.1605 4.74585H87.2272" stroke="black" stroke-width="0.004" stroke-miterlimit="10"/>
<path d="M82.9846 6.92792V127.701" stroke="black" stroke-width="0.004" stroke-miterlimit="10"/>
<path d="M128.469 6.92792V127.701" stroke="black" stroke-width="0.004" stroke-miterlimit="10"/>
<path d="M107.904 4.74585H109.971" stroke="black" stroke-width="0.004" stroke-miterlimit="10"/>
<path d="M110.854 127.228L111.412 124.329" stroke="black" stroke-width="0.004" stroke-miterlimit="10"/>
<path d="M107.017 127.228L106.458 124.329" stroke="black" stroke-width="0.004" stroke-miterlimit="10"/>
<path d="M110.854 7.39943L111.412 10.2979" stroke="black" stroke-width="0.004" stroke-miterlimit="10"/>
<path d="M108.367 128.413H109.506" stroke="black" stroke-width="0.004" stroke-miterlimit="10"/>
<path d="M109.506 6.21616H108.367" stroke="black" stroke-width="0.004" stroke-miterlimit="10"/>
<path d="M132.713 129.881H130.644" stroke="black" stroke-width="0.004" stroke-miterlimit="10"/>
<path d="M112.147 127.701V6.92792" stroke="black" stroke-width="0.004" stroke-miterlimit="10"/>
<path d="M107.017 7.39943L106.458 10.2979" stroke="black" stroke-width="0.004" stroke-miterlimit="10"/>
<path d="M105.724 6.92792V127.701" stroke="black" stroke-width="0.004" stroke-miterlimit="10"/>
<path d="M129.761 127.228L129.205 124.329" stroke="black" stroke-width="0.004" stroke-miterlimit="10"/>
<path d="M109.971 129.881H107.904" stroke="black" stroke-width="0.004" stroke-miterlimit="10"/>
<path d="M80.5067 131.236H137.365" stroke="black" stroke-width="0.008" stroke-miterlimit="10"/>
<path d="M98.5988 129.881H96.5321" stroke="black" stroke-width="0.004" stroke-miterlimit="10"/>
<path d="M96.9929 128.413H98.1387" stroke="black" stroke-width="0.004" stroke-miterlimit="10"/>
<path d="M99.4821 127.228L100.041 124.329" stroke="black" stroke-width="0.004" stroke-miterlimit="10"/>
<path d="M95.6449 127.228L95.0908 124.329" stroke="black" stroke-width="0.004" stroke-miterlimit="10"/>
<path d="M94.3567 6.92792V127.701" stroke="black" stroke-width="0.004" stroke-miterlimit="10"/>
<path d="M133.6 127.228L134.152 124.329" stroke="black" stroke-width="0.004" stroke-miterlimit="10"/>
<path d="M84.2704 7.39943L83.7186 10.2979" stroke="black" stroke-width="0.004" stroke-miterlimit="10"/>
<path d="M89.4027 127.701V6.92792" stroke="black" stroke-width="0.004" stroke-miterlimit="10"/>
<path d="M137.365 3.39114H80.5067" stroke="black" stroke-width="0.008" stroke-miterlimit="10"/>
<path d="M80.5067 3.39111V131.236" stroke="black" stroke-width="0.008" stroke-miterlimit="10"/>
<path d="M137.365 131.236V3.39111" stroke="black" stroke-width="0.008" stroke-miterlimit="10"/>
<path d="M130.644 4.74585H132.713" stroke="black" stroke-width="0.004" stroke-miterlimit="10"/>
<path d="M134.886 127.701V6.92792" stroke="black" stroke-width="0.004" stroke-miterlimit="10"/>
<path d="M96.5321 4.74585H98.5988" stroke="black" stroke-width="0.004" stroke-miterlimit="10"/>
<path d="M100.775 127.701V6.92792" stroke="black" stroke-width="0.004" stroke-miterlimit="10"/>
<path d="M99.4821 7.39943L100.041 10.2979" stroke="black" stroke-width="0.004" stroke-miterlimit="10"/>
<path d="M98.1387 6.21616H96.9929" stroke="black" stroke-width="0.004" stroke-miterlimit="10"/>
<path d="M133.6 7.39943L134.152 10.2979" stroke="black" stroke-width="0.004" stroke-miterlimit="10"/>
<path d="M132.25 6.21616H131.107" stroke="black" stroke-width="0.004" stroke-miterlimit="10"/>
<path d="M129.761 7.39943L129.205 10.2979" stroke="black" stroke-width="0.004" stroke-miterlimit="10"/>
<path d="M95.6449 7.39943L95.0908 10.2979" stroke="black" stroke-width="0.004" stroke-miterlimit="10"/>
<path d="M60.2385 6.92792V127.701" stroke="black" stroke-width="0.004" stroke-miterlimit="10"/>
<path d="M64.4875 129.881H62.4139" stroke="black" stroke-width="0.004" stroke-miterlimit="10"/>
<path d="M66.663 127.701V6.92792" stroke="black" stroke-width="0.004" stroke-miterlimit="10"/>
<path d="M62.4139 4.74585H64.4875" stroke="black" stroke-width="0.004" stroke-miterlimit="10"/>
<path d="M61.5313 7.39943L60.9726 10.2979" stroke="black" stroke-width="0.004" stroke-miterlimit="10"/>
<path d="M64.0205 6.21616H62.8815" stroke="black" stroke-width="0.004" stroke-miterlimit="10"/>
<path d="M65.3707 7.39943L65.9265 10.2979" stroke="black" stroke-width="0.004" stroke-miterlimit="10"/>
<path d="M65.3707 127.228L65.9265 124.329" stroke="black" stroke-width="0.004" stroke-miterlimit="10"/>
<path d="M62.8815 128.413H64.0205" stroke="black" stroke-width="0.004" stroke-miterlimit="10"/>
<path d="M61.5313 127.228L60.9726 124.329" stroke="black" stroke-width="0.004" stroke-miterlimit="10"/>
<path d="M29.9062 6.21616H28.7627" stroke="black" stroke-width="0.004" stroke-miterlimit="10"/>
<path d="M31.2565 7.39943L31.8083 10.2979" stroke="black" stroke-width="0.004" stroke-miterlimit="10"/>
<path d="M28.7627 128.413H29.9062" stroke="black" stroke-width="0.004" stroke-miterlimit="10"/>
<path d="M31.2565 127.228L31.8083 124.329" stroke="black" stroke-width="0.004" stroke-miterlimit="10"/>
<path d="M27.4192 127.228L26.8611 124.329" stroke="black" stroke-width="0.004" stroke-miterlimit="10"/>
<path d="M30.3693 129.881H28.3026" stroke="black" stroke-width="0.004" stroke-miterlimit="10"/>
<path d="M74.2491 128.413H75.3922" stroke="black" stroke-width="0.004" stroke-miterlimit="10"/>
<path d="M28.3026 4.74585H30.3693" stroke="black" stroke-width="0.004" stroke-miterlimit="10"/>
<path d="M26.1271 6.92792V127.701" stroke="black" stroke-width="0.004" stroke-miterlimit="10"/>
<path d="M71.6107 6.92792V127.701" stroke="black" stroke-width="0.004" stroke-miterlimit="10"/>
<path d="M51.0463 4.74585H53.113" stroke="black" stroke-width="0.004" stroke-miterlimit="10"/>
<path d="M53.9962 127.228L54.5549 124.329" stroke="black" stroke-width="0.004" stroke-miterlimit="10"/>
<path d="M50.1591 127.228L49.605 124.329" stroke="black" stroke-width="0.004" stroke-miterlimit="10"/>
<path d="M53.9962 7.39943L54.5549 10.2979" stroke="black" stroke-width="0.004" stroke-miterlimit="10"/>
<path d="M51.5093 128.413H52.6528" stroke="black" stroke-width="0.004" stroke-miterlimit="10"/>
<path d="M52.6528 6.21616H51.5093" stroke="black" stroke-width="0.004" stroke-miterlimit="10"/>
<path d="M75.8551 129.881H73.7861" stroke="black" stroke-width="0.004" stroke-miterlimit="10"/>
<path d="M55.289 127.701V6.92792" stroke="black" stroke-width="0.004" stroke-miterlimit="10"/>
<path d="M50.1591 7.39943L49.605 10.2979" stroke="black" stroke-width="0.004" stroke-miterlimit="10"/>
<path d="M48.8708 6.92792V127.701" stroke="black" stroke-width="0.004" stroke-miterlimit="10"/>
<path d="M72.9028 127.228L72.347 124.329" stroke="black" stroke-width="0.004" stroke-miterlimit="10"/>
<path d="M53.113 129.881H51.0463" stroke="black" stroke-width="0.004" stroke-miterlimit="10"/>
<path d="M23.6487 131.236H80.5067" stroke="black" stroke-width="0.008" stroke-miterlimit="10"/>
<path d="M41.7414 129.881H39.6747" stroke="black" stroke-width="0.004" stroke-miterlimit="10"/>
<path d="M40.1349 128.413H41.2807" stroke="black" stroke-width="0.004" stroke-miterlimit="10"/>
<path d="M42.6287 127.228L43.1828 124.329" stroke="black" stroke-width="0.004" stroke-miterlimit="10"/>
<path d="M38.7846 127.228L38.2328 124.329" stroke="black" stroke-width="0.004" stroke-miterlimit="10"/>
<path d="M37.4987 6.92792V127.701" stroke="black" stroke-width="0.004" stroke-miterlimit="10"/>
<path d="M76.7424 127.228L77.3011 124.329" stroke="black" stroke-width="0.004" stroke-miterlimit="10"/>
<path d="M27.4192 7.39943L26.8611 10.2979" stroke="black" stroke-width="0.004" stroke-miterlimit="10"/>
<path d="M32.5446 127.701V6.92792" stroke="black" stroke-width="0.004" stroke-miterlimit="10"/>
<path d="M80.5067 3.39114H23.6487" stroke="black" stroke-width="0.008" stroke-miterlimit="10"/>
<path d="M73.7861 4.74585H75.8551" stroke="black" stroke-width="0.004" stroke-miterlimit="10"/>
<path d="M78.0283 127.701V6.92792" stroke="black" stroke-width="0.004" stroke-miterlimit="10"/>
<path d="M39.6747 4.74585H41.7414" stroke="black" stroke-width="0.004" stroke-miterlimit="10"/>
<path d="M43.9168 127.701V6.92792" stroke="black" stroke-width="0.004" stroke-miterlimit="10"/>
<path d="M42.6287 7.39943L43.1828 10.2979" stroke="black" stroke-width="0.004" stroke-miterlimit="10"/>
<path d="M41.2807 6.21616H40.1349" stroke="black" stroke-width="0.004" stroke-miterlimit="10"/>
<path d="M76.7424 7.39943L77.3011 10.2979" stroke="black" stroke-width="0.004" stroke-miterlimit="10"/>
<path d="M75.3922 6.21616H74.2491" stroke="black" stroke-width="0.004" stroke-miterlimit="10"/>
<path d="M72.9028 7.39943L72.347 10.2979" stroke="black" stroke-width="0.004" stroke-miterlimit="10"/>
<path d="M38.7846 7.39943L38.2328 10.2979" stroke="black" stroke-width="0.004" stroke-miterlimit="10"/>
<path d="M10.6814 1H1" stroke="black" stroke-width="0.008" stroke-miterlimit="10"/>
<path d="M10.6814 1.16461H320.912" stroke="black" stroke-width="0.008" stroke-miterlimit="10"/>
<path d="M10.6814 4.42746H23.6487" stroke="black" stroke-width="0.004" stroke-miterlimit="10"/>
<path d="M320.912 133.634H330.593" stroke="black" stroke-width="0.008" stroke-miterlimit="10"/>
<path d="M1.16064 9.81275V124.818" stroke="black" stroke-width="0.008" stroke-miterlimit="10"/>
<path d="M320.912 4.42746V1.16455" stroke="black" stroke-width="0.004" stroke-miterlimit="10"/>
<path d="M1 133.634H10.6814" stroke="black" stroke-width="0.008" stroke-miterlimit="10"/>
<path d="M10.6814 1.16455V4.42746" stroke="black" stroke-width="0.004" stroke-miterlimit="10"/>
<path d="M307.939 4.42746H320.912" stroke="black" stroke-width="0.004" stroke-miterlimit="10"/>
<path d="M320.912 4.42749V9.81274" stroke="black" stroke-width="0.004" stroke-miterlimit="10"/>
<path d="M320.912 9.81277H327.495" stroke="black" stroke-width="0.004" stroke-miterlimit="10"/>
<path d="M327.495 9.81277H330.593" stroke="black" stroke-width="0.008" stroke-miterlimit="10"/>
<path d="M330.593 9.81277V1.00005" stroke="black" stroke-width="0.008" stroke-miterlimit="10"/>
<path d="M330.593 1H320.912" stroke="black" stroke-width="0.008" stroke-miterlimit="10"/>
<path d="M173.955 6.92792V127.701" stroke="black" stroke-width="0.004" stroke-miterlimit="10"/>
<path d="M178.197 129.881H176.13" stroke="black" stroke-width="0.004" stroke-miterlimit="10"/>
<path d="M180.379 127.701V6.92792" stroke="black" stroke-width="0.004" stroke-miterlimit="10"/>
<path d="M176.13 4.74585H178.197" stroke="black" stroke-width="0.004" stroke-miterlimit="10"/>
<path d="M175.247 7.39943L174.689 10.2979" stroke="black" stroke-width="0.004" stroke-miterlimit="10"/>
<path d="M177.736 6.21616H176.597" stroke="black" stroke-width="0.004" stroke-miterlimit="10"/>
<path d="M179.086 7.39943L179.645 10.2979" stroke="black" stroke-width="0.004" stroke-miterlimit="10"/>
<path d="M179.086 127.228L179.645 124.329" stroke="black" stroke-width="0.004" stroke-miterlimit="10"/>
<path d="M176.597 128.413H177.736" stroke="black" stroke-width="0.004" stroke-miterlimit="10"/>
<path d="M175.247 127.228L174.689 124.329" stroke="black" stroke-width="0.004" stroke-miterlimit="10"/>
<path d="M143.625 6.21616H142.479" stroke="black" stroke-width="0.004" stroke-miterlimit="10"/>
<path d="M144.973 7.39943L145.527 10.2979" stroke="black" stroke-width="0.004" stroke-miterlimit="10"/>
<path d="M142.479 128.413H143.625" stroke="black" stroke-width="0.004" stroke-miterlimit="10"/>
<path d="M144.973 127.228L145.527 124.329" stroke="black" stroke-width="0.004" stroke-miterlimit="10"/>
<path d="M141.129 127.228L140.577 124.329" stroke="black" stroke-width="0.004" stroke-miterlimit="10"/>
<path d="M144.085 129.881H142.019" stroke="black" stroke-width="0.004" stroke-miterlimit="10"/>
<path d="M187.965 128.413H189.108" stroke="black" stroke-width="0.004" stroke-miterlimit="10"/>
<path d="M142.019 4.74585H144.085" stroke="black" stroke-width="0.004" stroke-miterlimit="10"/>
<path d="M139.843 6.92792V127.701" stroke="black" stroke-width="0.004" stroke-miterlimit="10"/>
<path d="M185.326 6.92792V127.701" stroke="black" stroke-width="0.004" stroke-miterlimit="10"/>
<path d="M164.762 4.74585H166.831" stroke="black" stroke-width="0.004" stroke-miterlimit="10"/>
<path d="M167.712 127.228L168.27 124.329" stroke="black" stroke-width="0.004" stroke-miterlimit="10"/>
<path d="M163.875 127.228L163.316 124.329" stroke="black" stroke-width="0.004" stroke-miterlimit="10"/>
<path d="M167.712 7.39943L168.27 10.2979" stroke="black" stroke-width="0.004" stroke-miterlimit="10"/>
<path d="M165.225 128.413H166.364" stroke="black" stroke-width="0.004" stroke-miterlimit="10"/>
<path d="M166.364 6.21616H165.225" stroke="black" stroke-width="0.004" stroke-miterlimit="10"/>
<path d="M189.571 129.881H187.502" stroke="black" stroke-width="0.004" stroke-miterlimit="10"/>
<path d="M169.005 127.701V6.92792" stroke="black" stroke-width="0.004" stroke-miterlimit="10"/>
<path d="M163.875 7.39943L163.316 10.2979" stroke="black" stroke-width="0.004" stroke-miterlimit="10"/>
<path d="M162.582 6.92792V127.701" stroke="black" stroke-width="0.004" stroke-miterlimit="10"/>
<path d="M186.621 127.228L186.062 124.329" stroke="black" stroke-width="0.004" stroke-miterlimit="10"/>
<path d="M166.831 129.881H164.762" stroke="black" stroke-width="0.004" stroke-miterlimit="10"/>
<path d="M137.365 131.236H194.223" stroke="black" stroke-width="0.008" stroke-miterlimit="10"/>
<path d="M155.457 129.881H153.39" stroke="black" stroke-width="0.004" stroke-miterlimit="10"/>
<path d="M153.851 128.413H154.997" stroke="black" stroke-width="0.004" stroke-miterlimit="10"/>
<path d="M156.34 127.228L156.898 124.329" stroke="black" stroke-width="0.004" stroke-miterlimit="10"/>
<path d="M152.503 127.228L151.949 124.329" stroke="black" stroke-width="0.004" stroke-miterlimit="10"/>
<path d="M151.215 6.92792V127.701" stroke="black" stroke-width="0.004" stroke-miterlimit="10"/>
<path d="M190.458 127.228L191.01 124.329" stroke="black" stroke-width="0.004" stroke-miterlimit="10"/>
<path d="M141.129 7.39943L140.577 10.2979" stroke="black" stroke-width="0.004" stroke-miterlimit="10"/>
<path d="M146.261 127.701V6.92792" stroke="black" stroke-width="0.004" stroke-miterlimit="10"/>
<path d="M194.223 3.39114H137.365" stroke="black" stroke-width="0.008" stroke-miterlimit="10"/>
<path d="M194.223 131.236V3.39111" stroke="black" stroke-width="0.008" stroke-miterlimit="10"/>
<path d="M187.502 4.74585H189.571" stroke="black" stroke-width="0.004" stroke-miterlimit="10"/>
<path d="M191.747 127.701V6.92792" stroke="black" stroke-width="0.004" stroke-miterlimit="10"/>
<path d="M153.39 4.74585H155.457" stroke="black" stroke-width="0.004" stroke-miterlimit="10"/>
<path d="M157.633 127.701V6.92792" stroke="black" stroke-width="0.004" stroke-miterlimit="10"/>
<path d="M156.34 7.39943L156.898 10.2979" stroke="black" stroke-width="0.004" stroke-miterlimit="10"/>
<path d="M154.997 6.21616H153.851" stroke="black" stroke-width="0.004" stroke-miterlimit="10"/>
<path d="M190.458 7.39943L191.01 10.2979" stroke="black" stroke-width="0.004" stroke-miterlimit="10"/>
<path d="M189.108 6.21616H187.965" stroke="black" stroke-width="0.004" stroke-miterlimit="10"/>
<path d="M186.621 7.39943L186.062 10.2979" stroke="black" stroke-width="0.004" stroke-miterlimit="10"/>
<path d="M152.503 7.39943L151.949 10.2979" stroke="black" stroke-width="0.004" stroke-miterlimit="10"/>
<path d="M230.813 6.92792V127.701" stroke="black" stroke-width="0.004" stroke-miterlimit="10"/>
<path d="M235.055 129.881H232.988" stroke="black" stroke-width="0.004" stroke-miterlimit="10"/>
<path d="M237.23 127.701V6.92792" stroke="black" stroke-width="0.004" stroke-miterlimit="10"/>
<path d="M232.988 4.74585H235.055" stroke="black" stroke-width="0.004" stroke-miterlimit="10"/>
<path d="M232.105 7.39943L231.547 10.2979" stroke="black" stroke-width="0.004" stroke-miterlimit="10"/>
<path d="M234.594 6.21616H233.448" stroke="black" stroke-width="0.004" stroke-miterlimit="10"/>
<path d="M235.944 7.39943L236.496 10.2979" stroke="black" stroke-width="0.004" stroke-miterlimit="10"/>
<path d="M235.944 127.228L236.496 124.329" stroke="black" stroke-width="0.004" stroke-miterlimit="10"/>
<path d="M233.448 128.413H234.594" stroke="black" stroke-width="0.004" stroke-miterlimit="10"/>
<path d="M232.105 127.228L231.547 124.329" stroke="black" stroke-width="0.004" stroke-miterlimit="10"/>
<path d="M200.483 6.21616H199.337" stroke="black" stroke-width="0.004" stroke-miterlimit="10"/>
<path d="M201.831 7.39943L202.385 10.2979" stroke="black" stroke-width="0.004" stroke-miterlimit="10"/>
<path d="M199.337 128.413H200.483" stroke="black" stroke-width="0.004" stroke-miterlimit="10"/>
<path d="M201.831 127.228L202.385 124.329" stroke="black" stroke-width="0.004" stroke-miterlimit="10"/>
<path d="M197.987 127.228L197.435 124.329" stroke="black" stroke-width="0.004" stroke-miterlimit="10"/>
<path d="M200.943 129.881H198.876" stroke="black" stroke-width="0.004" stroke-miterlimit="10"/>
<path d="M244.823 128.413H245.966" stroke="black" stroke-width="0.004" stroke-miterlimit="10"/>
<path d="M198.876 4.74585H200.943" stroke="black" stroke-width="0.004" stroke-miterlimit="10"/>
<path d="M196.701 6.92792V127.701" stroke="black" stroke-width="0.004" stroke-miterlimit="10"/>
<path d="M242.184 6.92792V127.701" stroke="black" stroke-width="0.004" stroke-miterlimit="10"/>
<path d="M221.616 4.74585H223.689" stroke="black" stroke-width="0.004" stroke-miterlimit="10"/>
<path d="M224.57 127.228L225.129 124.329" stroke="black" stroke-width="0.004" stroke-miterlimit="10"/>
<path d="M220.733 127.228L220.175 124.329" stroke="black" stroke-width="0.004" stroke-miterlimit="10"/>
<path d="M224.57 7.39943L225.129 10.2979" stroke="black" stroke-width="0.004" stroke-miterlimit="10"/>
<path d="M222.083 128.413H223.222" stroke="black" stroke-width="0.004" stroke-miterlimit="10"/>
<path d="M223.222 6.21616H222.083" stroke="black" stroke-width="0.004" stroke-miterlimit="10"/>
<path d="M246.429 129.881H244.36" stroke="black" stroke-width="0.004" stroke-miterlimit="10"/>
<path d="M225.863 127.701V6.92792" stroke="black" stroke-width="0.004" stroke-miterlimit="10"/>
<path d="M220.733 7.39943L220.175 10.2979" stroke="black" stroke-width="0.004" stroke-miterlimit="10"/>
<path d="M219.44 6.92792V127.701" stroke="black" stroke-width="0.004" stroke-miterlimit="10"/>
<path d="M243.472 127.228L242.921 124.329" stroke="black" stroke-width="0.004" stroke-miterlimit="10"/>
<path d="M223.689 129.881H221.616" stroke="black" stroke-width="0.004" stroke-miterlimit="10"/>
<path d="M194.223 131.236H251.08" stroke="black" stroke-width="0.008" stroke-miterlimit="10"/>
<path d="M212.315 129.881H210.248" stroke="black" stroke-width="0.004" stroke-miterlimit="10"/>
<path d="M210.709 128.413H211.854" stroke="black" stroke-width="0.004" stroke-miterlimit="10"/>
<path d="M213.198 127.228L213.756 124.329" stroke="black" stroke-width="0.004" stroke-miterlimit="10"/>
<path d="M209.361 127.228L208.802 124.329" stroke="black" stroke-width="0.004" stroke-miterlimit="10"/>
<path d="M208.073 6.92792V127.701" stroke="black" stroke-width="0.004" stroke-miterlimit="10"/>
<path d="M247.316 127.228L247.868 124.329" stroke="black" stroke-width="0.004" stroke-miterlimit="10"/>
<path d="M197.987 7.39943L197.435 10.2979" stroke="black" stroke-width="0.004" stroke-miterlimit="10"/>
<path d="M203.119 127.701V6.92792" stroke="black" stroke-width="0.004" stroke-miterlimit="10"/>
<path d="M251.08 3.39114H194.223" stroke="black" stroke-width="0.008" stroke-miterlimit="10"/>
<path d="M251.08 131.236V3.39111" stroke="black" stroke-width="0.008" stroke-miterlimit="10"/>
<path d="M244.36 4.74585H246.429" stroke="black" stroke-width="0.004" stroke-miterlimit="10"/>
<path d="M248.605 127.701V6.92792" stroke="black" stroke-width="0.004" stroke-miterlimit="10"/>
<path d="M210.248 4.74585H212.315" stroke="black" stroke-width="0.004" stroke-miterlimit="10"/>
<path d="M214.49 127.701V6.92792" stroke="black" stroke-width="0.004" stroke-miterlimit="10"/>
<path d="M213.198 7.39943L213.756 10.2979" stroke="black" stroke-width="0.004" stroke-miterlimit="10"/>
<path d="M211.854 6.21616H210.709" stroke="black" stroke-width="0.004" stroke-miterlimit="10"/>
<path d="M247.316 7.39943L247.868 10.2979" stroke="black" stroke-width="0.004" stroke-miterlimit="10"/>
<path d="M245.966 6.21616H244.823" stroke="black" stroke-width="0.004" stroke-miterlimit="10"/>
<path d="M243.472 7.39943L242.921 10.2979" stroke="black" stroke-width="0.004" stroke-miterlimit="10"/>
<path d="M209.361 7.39943L208.802 10.2979" stroke="black" stroke-width="0.004" stroke-miterlimit="10"/>
<path d="M287.67 6.92792V127.701" stroke="black" stroke-width="0.004" stroke-miterlimit="10"/>
<path d="M291.913 129.881H289.846" stroke="black" stroke-width="0.004" stroke-miterlimit="10"/>
<path d="M294.088 127.701V6.92792" stroke="black" stroke-width="0.004" stroke-miterlimit="10"/>
<path d="M289.846 4.74585H291.913" stroke="black" stroke-width="0.004" stroke-miterlimit="10"/>
<path d="M288.963 7.39943L288.404 10.2979" stroke="black" stroke-width="0.004" stroke-miterlimit="10"/>
<path d="M291.452 6.21616H290.306" stroke="black" stroke-width="0.004" stroke-miterlimit="10"/>
<path d="M292.802 7.39943L293.354 10.2979" stroke="black" stroke-width="0.004" stroke-miterlimit="10"/>
<path d="M292.802 127.228L293.354 124.329" stroke="black" stroke-width="0.004" stroke-miterlimit="10"/>
<path d="M290.306 128.413H291.452" stroke="black" stroke-width="0.004" stroke-miterlimit="10"/>
<path d="M288.963 127.228L288.404 124.329" stroke="black" stroke-width="0.004" stroke-miterlimit="10"/>
<path d="M257.341 6.21616H256.195" stroke="black" stroke-width="0.004" stroke-miterlimit="10"/>
<path d="M258.684 7.39943L259.242 10.2979" stroke="black" stroke-width="0.004" stroke-miterlimit="10"/>
<path d="M256.195 128.413H257.341" stroke="black" stroke-width="0.004" stroke-miterlimit="10"/>
<path d="M258.684 127.228L259.242 124.329" stroke="black" stroke-width="0.004" stroke-miterlimit="10"/>
<path d="M254.845 127.228L254.293 124.329" stroke="black" stroke-width="0.004" stroke-miterlimit="10"/>
<path d="M257.801 129.881H255.734" stroke="black" stroke-width="0.004" stroke-miterlimit="10"/>
<path d="M301.681 128.413H302.825" stroke="black" stroke-width="0.004" stroke-miterlimit="10"/>
<path d="M255.734 4.74585H257.801" stroke="black" stroke-width="0.004" stroke-miterlimit="10"/>
<path d="M253.559 6.92792V127.701" stroke="black" stroke-width="0.004" stroke-miterlimit="10"/>
<path d="M299.042 6.92792V127.701" stroke="black" stroke-width="0.004" stroke-miterlimit="10"/>
<path d="M278.474 4.74585H280.541" stroke="black" stroke-width="0.004" stroke-miterlimit="10"/>
<path d="M281.428 127.228L281.986 124.329" stroke="black" stroke-width="0.004" stroke-miterlimit="10"/>
<path d="M277.591 127.228L277.032 124.329" stroke="black" stroke-width="0.004" stroke-miterlimit="10"/>
<path d="M281.428 7.39943L281.986 10.2979" stroke="black" stroke-width="0.004" stroke-miterlimit="10"/>
<path d="M278.941 128.413H280.08" stroke="black" stroke-width="0.004" stroke-miterlimit="10"/>
<path d="M280.08 6.21616H278.941" stroke="black" stroke-width="0.004" stroke-miterlimit="10"/>
<path d="M303.286 129.881H301.218" stroke="black" stroke-width="0.004" stroke-miterlimit="10"/>
<path d="M282.723 127.701V6.92792" stroke="black" stroke-width="0.004" stroke-miterlimit="10"/>
<path d="M277.591 7.39943L277.032 10.2979" stroke="black" stroke-width="0.004" stroke-miterlimit="10"/>
<path d="M276.298 6.92792V127.701" stroke="black" stroke-width="0.004" stroke-miterlimit="10"/>
<path d="M300.33 127.228L299.779 124.329" stroke="black" stroke-width="0.004" stroke-miterlimit="10"/>
<path d="M280.541 129.881H278.474" stroke="black" stroke-width="0.004" stroke-miterlimit="10"/>
<path d="M251.08 131.236H307.939" stroke="black" stroke-width="0.008" stroke-miterlimit="10"/>
<path d="M269.173 129.881H267.106" stroke="black" stroke-width="0.004" stroke-miterlimit="10"/>
<path d="M267.567 128.413H268.706" stroke="black" stroke-width="0.004" stroke-miterlimit="10"/>
<path d="M270.056 127.228L270.614 124.329" stroke="black" stroke-width="0.004" stroke-miterlimit="10"/>
<path d="M266.218 127.228L265.66 124.329" stroke="black" stroke-width="0.004" stroke-miterlimit="10"/>
<path d="M264.926 6.92792V127.701" stroke="black" stroke-width="0.004" stroke-miterlimit="10"/>
<path d="M304.174 127.228L304.727 124.329" stroke="black" stroke-width="0.004" stroke-miterlimit="10"/>
<path d="M254.845 7.39943L254.293 10.2979" stroke="black" stroke-width="0.004" stroke-miterlimit="10"/>
<path d="M259.976 127.701V6.92792" stroke="black" stroke-width="0.004" stroke-miterlimit="10"/>
<path d="M307.939 3.39114H251.08" stroke="black" stroke-width="0.008" stroke-miterlimit="10"/>
<path d="M301.218 4.74585H303.286" stroke="black" stroke-width="0.004" stroke-miterlimit="10"/>
<path d="M305.462 127.701V6.92792" stroke="black" stroke-width="0.004" stroke-miterlimit="10"/>
<path d="M267.106 4.74585H269.173" stroke="black" stroke-width="0.004" stroke-miterlimit="10"/>
<path d="M271.348 127.701V6.92792" stroke="black" stroke-width="0.004" stroke-miterlimit="10"/>
<path d="M270.056 7.39943L270.614 10.2979" stroke="black" stroke-width="0.004" stroke-miterlimit="10"/>
<path d="M268.706 6.21616H267.567" stroke="black" stroke-width="0.004" stroke-miterlimit="10"/>
<path d="M304.174 7.39943L304.727 10.2979" stroke="black" stroke-width="0.004" stroke-miterlimit="10"/>
<path d="M302.825 6.21616H301.681" stroke="black" stroke-width="0.004" stroke-miterlimit="10"/>
<path d="M300.33 7.39943L299.779 10.2979" stroke="black" stroke-width="0.004" stroke-miterlimit="10"/>
<path d="M266.218 7.39943L265.66 10.2979" stroke="black" stroke-width="0.004" stroke-miterlimit="10"/>
<path d="M1 1.00005V9.81277" stroke="black" stroke-width="0.008" stroke-miterlimit="10"/>
<path d="M327.495 124.818H330.593" stroke="black" stroke-width="0.008" stroke-miterlimit="10"/>
<path d="M320.912 130.206V124.818" stroke="black" stroke-width="0.004" stroke-miterlimit="10"/>
<path d="M10.6814 124.818H1.16064" stroke="black" stroke-width="0.004" stroke-miterlimit="10"/>
<path d="M320.912 124.818H327.495" stroke="black" stroke-width="0.004" stroke-miterlimit="10"/>
<path d="M10.6814 9.81277H1.16064" stroke="black" stroke-width="0.004" stroke-miterlimit="10"/>
<path d="M10.6814 4.42749V9.81274" stroke="black" stroke-width="0.004" stroke-miterlimit="10"/>
<path d="M1 124.818V133.634" stroke="black" stroke-width="0.008" stroke-miterlimit="10"/>
<path d="M10.6814 130.206V124.818" stroke="black" stroke-width="0.004" stroke-miterlimit="10"/>
<path d="M327.495 124.818V9.81275" stroke="black" stroke-width="0.008" stroke-miterlimit="10"/>
<path d="M23.6487 130.206V131.236" stroke="black" stroke-width="0.008" stroke-miterlimit="10"/>
<path d="M307.939 131.236V130.206" stroke="black" stroke-width="0.008" stroke-miterlimit="10"/>
<path d="M23.6487 3.3911V4.42746" stroke="black" stroke-width="0.008" stroke-miterlimit="10"/>
<path d="M23.6487 4.42754V130.206" stroke="black" stroke-width="0.008" stroke-miterlimit="10"/>
<path d="M307.939 130.206V4.42754" stroke="black" stroke-width="0.008" stroke-miterlimit="10"/>
<path d="M307.939 4.42746V3.3911" stroke="black" stroke-width="0.008" stroke-miterlimit="10"/>
<path d="M117.831 10.2979V124.329" stroke="black" stroke-width="0.004" stroke-miterlimit="10"/>
<path d="M122.785 124.329V10.2979" stroke="black" stroke-width="0.004" stroke-miterlimit="10"/>
<path d="M129.205 10.2979V124.329" stroke="black" stroke-width="0.004" stroke-miterlimit="10"/>
<path d="M83.7186 10.2979V124.329" stroke="black" stroke-width="0.004" stroke-miterlimit="10"/>
<path d="M88.6686 10.2979V124.329" stroke="black" stroke-width="0.004" stroke-miterlimit="10"/>
<path d="M106.458 10.2979V124.329" stroke="black" stroke-width="0.004" stroke-miterlimit="10"/>
<path d="M111.412 124.329V10.2979" stroke="black" stroke-width="0.004" stroke-miterlimit="10"/>
<path d="M95.0908 10.2979V124.329" stroke="black" stroke-width="0.004" stroke-miterlimit="10"/>
<path d="M100.041 10.2979V124.329" stroke="black" stroke-width="0.004" stroke-miterlimit="10"/>
<path d="M134.152 10.2979V124.329" stroke="black" stroke-width="0.004" stroke-miterlimit="10"/>
<path d="M60.9726 10.2979V124.329" stroke="black" stroke-width="0.004" stroke-miterlimit="10"/>
<path d="M65.9265 124.329V10.2979" stroke="black" stroke-width="0.004" stroke-miterlimit="10"/>
<path d="M72.347 10.2979V124.329" stroke="black" stroke-width="0.004" stroke-miterlimit="10"/>
<path d="M26.8611 10.2979V124.329" stroke="black" stroke-width="0.004" stroke-miterlimit="10"/>
<path d="M31.8084 10.2979V124.329" stroke="black" stroke-width="0.004" stroke-miterlimit="10"/>
<path d="M49.605 10.2979V124.329" stroke="black" stroke-width="0.004" stroke-miterlimit="10"/>
<path d="M54.555 124.329V10.2979" stroke="black" stroke-width="0.004" stroke-miterlimit="10"/>
<path d="M38.2328 10.2979V124.329" stroke="black" stroke-width="0.004" stroke-miterlimit="10"/>
<path d="M43.1828 10.2979V124.329" stroke="black" stroke-width="0.004" stroke-miterlimit="10"/>
<path d="M77.301 10.2979V124.329" stroke="black" stroke-width="0.004" stroke-miterlimit="10"/>
<path d="M174.689 10.2979V124.329" stroke="black" stroke-width="0.004" stroke-miterlimit="10"/>
<path d="M179.645 124.329V10.2979" stroke="black" stroke-width="0.004" stroke-miterlimit="10"/>
<path d="M186.062 10.2979V124.329" stroke="black" stroke-width="0.004" stroke-miterlimit="10"/>
<path d="M140.577 10.2979V124.329" stroke="black" stroke-width="0.004" stroke-miterlimit="10"/>
<path d="M145.527 10.2979V124.329" stroke="black" stroke-width="0.004" stroke-miterlimit="10"/>
<path d="M163.316 10.2979V124.329" stroke="black" stroke-width="0.004" stroke-miterlimit="10"/>
<path d="M168.271 124.329V10.2979" stroke="black" stroke-width="0.004" stroke-miterlimit="10"/>
<path d="M151.949 10.2979V124.329" stroke="black" stroke-width="0.004" stroke-miterlimit="10"/>
<path d="M156.898 10.2979V124.329" stroke="black" stroke-width="0.004" stroke-miterlimit="10"/>
<path d="M191.01 10.2979V124.329" stroke="black" stroke-width="0.004" stroke-miterlimit="10"/>
<path d="M231.547 10.2979V124.329" stroke="black" stroke-width="0.004" stroke-miterlimit="10"/>
<path d="M236.496 124.329V10.2979" stroke="black" stroke-width="0.004" stroke-miterlimit="10"/>
<path d="M242.921 10.2979V124.329" stroke="black" stroke-width="0.004" stroke-miterlimit="10"/>
<path d="M197.435 10.2979V124.329" stroke="black" stroke-width="0.004" stroke-miterlimit="10"/>
<path d="M202.385 10.2979V124.329" stroke="black" stroke-width="0.004" stroke-miterlimit="10"/>
<path d="M220.175 10.2979V124.329" stroke="black" stroke-width="0.004" stroke-miterlimit="10"/>
<path d="M225.128 124.329V10.2979" stroke="black" stroke-width="0.004" stroke-miterlimit="10"/>
<path d="M208.802 10.2979V124.329" stroke="black" stroke-width="0.004" stroke-miterlimit="10"/>
<path d="M213.756 10.2979V124.329" stroke="black" stroke-width="0.004" stroke-miterlimit="10"/>
<path d="M247.868 10.2979V124.329" stroke="black" stroke-width="0.004" stroke-miterlimit="10"/>
<path d="M288.404 10.2979V124.329" stroke="black" stroke-width="0.004" stroke-miterlimit="10"/>
<path d="M293.354 124.329V10.2979" stroke="black" stroke-width="0.004" stroke-miterlimit="10"/>
<path d="M299.779 10.2979V124.329" stroke="black" stroke-width="0.004" stroke-miterlimit="10"/>
<path d="M254.293 10.2979V124.329" stroke="black" stroke-width="0.004" stroke-miterlimit="10"/>
<path d="M259.242 10.2979V124.329" stroke="black" stroke-width="0.004" stroke-miterlimit="10"/>
<path d="M277.032 10.2979V124.329" stroke="black" stroke-width="0.004" stroke-miterlimit="10"/>
<path d="M281.986 124.329V10.2979" stroke="black" stroke-width="0.004" stroke-miterlimit="10"/>
<path d="M265.66 10.2979V124.329" stroke="black" stroke-width="0.004" stroke-miterlimit="10"/>
<path d="M270.614 10.2979V124.329" stroke="black" stroke-width="0.004" stroke-miterlimit="10"/>
<path d="M304.727 10.2979V124.329" stroke="black" stroke-width="0.004" stroke-miterlimit="10"/>
</svg>
