<svg width="87" height="38" viewBox="0 0 87 38" fill="none" xmlns="http://www.w3.org/2000/svg">
<path d="M37.6853 35.1213H38.6999V2.28119H37.6853V35.1213Z" fill="white"/>
<path d="M37.6853 35.1213H83.3281L83.3563 37.3052H4.77441V35.1213H6.25308H7.26668H10.1683H11.1828H14.0828H15.0973H17.9984H19.012H20.4625H21.9692H22.9839H25.8839H26.8984H29.8H30.8135H33.7145H34.7281H36.1787" fill="#EDEDED"/>
<path d="M51.924 35.1213L51.8959 2.2812Z" fill="#C4D5E0"/>
<path d="M51.924 2.2812H4.80255L4.77441 1.43587H83.3563V2.2812H81.8776H80.864H77.9625H76.9479H74.0479H73.0333H70.1317H69.1187H67.6683H66.1615H65.1468H62.2468H61.2317H58.3307H57.3172H54.4161H53.4025H51.952" fill="#EDEDED"/>
<path d="M51.924 35.1213V2.2812L51.952 35.1213" fill="#C4D5E0"/>
<path d="M50.4453 35.1213H51.8958V2.28119H50.4453V35.1213Z" fill="#EDEDED"/>
<path d="M49.4307 35.1213H50.4452V2.28119H49.4307V35.1213Z" fill="white"/>
<path d="M41.6016 35.1213H42.6146V2.28119H41.6016V35.1213Z" fill="white"/>
<path d="M36.2068 2.2812L36.2359 35.1213Z" fill="#C4D5E0"/>
<path d="M36.2359 35.1213H37.6853V2.28119H36.2359V35.1213Z" fill="#EDEDED"/>
<path d="M36.2068 2.2812V35.1213L36.1786 2.2812" fill="#C4D5E0"/>
<path d="M45.5161 35.1213H46.5291V2.28119H45.5161V35.1213Z" fill="white"/>
<path d="M46.5292 35.1213H49.4308V2.28119H46.5292V35.1213Z" fill="#EDEDED"/>
<path d="M42.6145 35.1213H45.5161V2.28119H42.6145V35.1213Z" fill="#EDEDED"/>
<path d="M38.7 35.1213H41.6016V2.28119H38.7V35.1213Z" fill="#EDEDED"/>
<path d="M4.7744 1.43587V37.488H1V34.5521H1.84533V33.3974H1V24.6932H1.84533V23.5385H1V14.8359H1.84533V13.6812H1V4.97707H1.84533V3.8224H1V1.00001H4.7744" fill="#EDEDED"/>
<path d="M83.3563 2.28121V1.00001H86.3135V37.488H83.3563V37.3052V35.1213" fill="#EDEDED"/>
<path d="M53.4025 35.1213H54.4161V2.28119H53.4025V35.1213Z" fill="white"/>
<path d="M67.612 2.2812L67.6401 35.1213Z" fill="#C4D5E0"/>
<path d="M67.6401 35.1213V2.2812L67.6683 35.1213" fill="white"/>
<path d="M66.1615 35.1213H67.612V2.28119H66.1615V35.1213Z" fill="#EDEDED"/>
<path d="M51.952 35.1213H53.4025V2.28119H51.952V35.1213Z" fill="#EDEDED"/>
<path d="M65.1468 35.1213H66.1614V2.28119H65.1468V35.1213Z" fill="white"/>
<path d="M57.3172 35.1213H58.3307V2.28119H57.3172V35.1213Z" fill="white"/>
<path d="M61.2317 35.1213H62.2468V2.28119H61.2317V35.1213Z" fill="white"/>
<path d="M62.2468 35.1213H65.1468V2.28119H62.2468V35.1213Z" fill="#EDEDED"/>
<path d="M58.3307 35.1213H61.2317V2.28119H58.3307V35.1213Z" fill="#EDEDED"/>
<path d="M54.4161 35.1213H57.3172V2.28119H54.4161V35.1213Z" fill="#EDEDED"/>
<path d="M21.9692 35.1213H22.9838V2.28119H21.9692V35.1213Z" fill="white"/>
<path d="M34.7281 35.1213H36.1787V2.28119H34.7281V35.1213Z" fill="#EDEDED"/>
<path d="M33.7145 35.1213H34.7281V2.28119H33.7145V35.1213Z" fill="white"/>
<path d="M25.8839 35.1213H26.8984V2.28119H25.8839V35.1213Z" fill="white"/>
<path d="M20.4907 2.2812L20.5187 35.1213Z" fill="#C4D5E0"/>
<path d="M20.5187 35.1213H21.9692V2.28119H20.5187V35.1213Z" fill="#EDEDED"/>
<path d="M20.4907 2.2812V35.1213L20.4625 2.2812" fill="#C4D5E0"/>
<path d="M29.8 35.1213H30.8135V2.28119H29.8V35.1213Z" fill="white"/>
<path d="M30.8135 35.1213H33.7145V2.28119H30.8135V35.1213Z" fill="#EDEDED"/>
<path d="M26.8984 35.1213H29.8V2.28119H26.8984V35.1213Z" fill="#EDEDED"/>
<path d="M22.9839 35.1213H25.8839V2.28119H22.9839V35.1213Z" fill="#EDEDED"/>
<path d="M6.25305 35.1213H7.26659V2.28119H6.25305V35.1213Z" fill="white"/>
<path d="M19.012 35.1213H20.4625V2.28119H19.012V35.1213Z" fill="#EDEDED"/>
<path d="M4.77441 35.1213V2.2812L4.80255 35.1213" fill="#C4D5E0"/>
<path d="M4.80255 35.1213H6.25307V2.28119H4.80255V35.1213Z" fill="#EDEDED"/>
<path d="M17.9984 35.1213H19.012V2.28119H17.9984V35.1213Z" fill="white"/>
<path d="M10.1683 35.1213H11.1829V2.28119H10.1683V35.1213Z" fill="white"/>
<path d="M14.0828 35.1213H15.0974V2.28119H14.0828V35.1213Z" fill="white"/>
<path d="M15.0974 35.1213H17.9984V2.28119H15.0974V35.1213Z" fill="#EDEDED"/>
<path d="M11.1828 35.1213H14.0828V2.28119H11.1828V35.1213Z" fill="#EDEDED"/>
<path d="M7.26666 35.1213H10.1682V2.28119H7.26666V35.1213Z" fill="#EDEDED"/>
<path d="M69.1187 35.1213H70.1317V2.28119H69.1187V35.1213Z" fill="white"/>
<path d="M83.3281 2.2812L83.3563 35.1213Z" fill="white"/>
<path d="M81.8776 35.1213H83.3281V2.28119H81.8776V35.1213Z" fill="#EDEDED"/>
<path d="M67.6683 35.1213H69.1188V2.28119H67.6683V35.1213Z" fill="#EDEDED"/>
<path d="M80.864 35.1213H81.8776V2.28119H80.864V35.1213Z" fill="white"/>
<path d="M73.0333 35.1213H74.0479V2.28119H73.0333V35.1213Z" fill="white"/>
<path d="M76.9479 35.1213H77.9625V2.28119H76.9479V35.1213Z" fill="white"/>
<path d="M77.9625 35.1213H80.8641V2.28119H77.9625V35.1213Z" fill="#EDEDED"/>
<path d="M74.0479 35.1213H76.9479V2.28119H74.0479V35.1213Z" fill="#EDEDED"/>
<path d="M70.1317 35.1213H73.0333V2.28119H70.1317V35.1213Z" fill="#EDEDED"/>
<path d="M38.7 35.1213H37.6853" stroke="black" stroke-width="0.00933333" stroke-miterlimit="10"/>
<path d="M51.924 35.1213V2.2812" stroke="black" stroke-width="0.00933333" stroke-miterlimit="10"/>
<path d="M51.8959 35.1213V2.2812" stroke="black" stroke-width="0.004" stroke-miterlimit="10"/>
<path d="M36.2359 2.2812V35.1213" stroke="black" stroke-width="0.004" stroke-miterlimit="10"/>
<path d="M36.2068 2.2812V35.1213" stroke="black" stroke-width="0.00933333" stroke-miterlimit="10"/>
<path d="M50.4453 35.1213H49.4307" stroke="black" stroke-width="0.00933333" stroke-miterlimit="10"/>
<path d="M51.8958 2.2812H50.4453" stroke="black" stroke-width="0.00933333" stroke-miterlimit="10"/>
<path d="M42.6145 35.1213H41.6016" stroke="black" stroke-width="0.00933333" stroke-miterlimit="10"/>
<path d="M37.6853 2.2812H38.7" stroke="black" stroke-width="0.00933333" stroke-miterlimit="10"/>
<path d="M41.6016 2.2812H42.6145" stroke="black" stroke-width="0.00933333" stroke-miterlimit="10"/>
<path d="M36.2359 35.1213H37.6853" stroke="black" stroke-width="0.00933333" stroke-miterlimit="10"/>
<path d="M45.5161 2.2812H46.5292" stroke="black" stroke-width="0.00933333" stroke-miterlimit="10"/>
<path d="M50.4453 35.1213H51.8958" stroke="black" stroke-width="0.00933333" stroke-miterlimit="10"/>
<path d="M50.4453 2.2812H49.4307" stroke="black" stroke-width="0.00933333" stroke-miterlimit="10"/>
<path d="M50.4453 35.1213V2.2812" stroke="black" stroke-width="0.004" stroke-miterlimit="10"/>
<path d="M49.4307 35.1213H46.5292" stroke="black" stroke-width="0.00933333" stroke-miterlimit="10"/>
<path d="M49.4307 2.2812V35.1213" stroke="black" stroke-width="0.004" stroke-miterlimit="10"/>
<path d="M46.5292 35.1213V2.2812" stroke="black" stroke-width="0.004" stroke-miterlimit="10"/>
<path d="M45.5161 2.2812V35.1213" stroke="black" stroke-width="0.004" stroke-miterlimit="10"/>
<path d="M45.5161 35.1213H46.5292" stroke="black" stroke-width="0.00933333" stroke-miterlimit="10"/>
<path d="M46.5292 2.2812H49.4307" stroke="black" stroke-width="0.00933333" stroke-miterlimit="10"/>
<path d="M41.6016 2.2812V35.1213" stroke="black" stroke-width="0.004" stroke-miterlimit="10"/>
<path d="M42.6145 35.1213V2.2812" stroke="black" stroke-width="0.004" stroke-miterlimit="10"/>
<path d="M41.6016 35.1213H38.7" stroke="black" stroke-width="0.00933333" stroke-miterlimit="10"/>
<path d="M42.6145 35.1213H45.5161" stroke="black" stroke-width="0.00933333" stroke-miterlimit="10"/>
<path d="M42.6145 2.2812H45.5161" stroke="black" stroke-width="0.00933333" stroke-miterlimit="10"/>
<path d="M38.7 35.1213V2.2812" stroke="black" stroke-width="0.004" stroke-miterlimit="10"/>
<path d="M37.6853 2.2812V35.1213" stroke="black" stroke-width="0.004" stroke-miterlimit="10"/>
<path d="M38.7 2.2812H41.6016" stroke="black" stroke-width="0.00933333" stroke-miterlimit="10"/>
<path d="M37.6853 2.2812H36.2359" stroke="black" stroke-width="0.00933333" stroke-miterlimit="10"/>
<path d="M83.3563 1.43587H4.77441" stroke="black" stroke-width="0.00933333" stroke-miterlimit="10"/>
<path d="M4.77441 1.43587V2.2812" stroke="black" stroke-width="0.00933333" stroke-miterlimit="10"/>
<path d="M83.3563 2.2812V1.43587" stroke="black" stroke-width="0.00933333" stroke-miterlimit="10"/>
<path d="M4.7744 37.488H1" stroke="black" stroke-width="0.00933333" stroke-miterlimit="10"/>
<path d="M1 1H4.7744" stroke="black" stroke-width="0.00933333" stroke-miterlimit="10"/>
<path d="M1 37.488V34.5521" stroke="black" stroke-width="0.00933333" stroke-miterlimit="10"/>
<path d="M1 3.8224V1" stroke="black" stroke-width="0.00933333" stroke-miterlimit="10"/>
<path d="M1 3.8224H1.84533" stroke="black" stroke-width="0.00933333" stroke-miterlimit="10"/>
<path d="M1.84534 3.8224V4.97707" stroke="black" stroke-width="0.00933333" stroke-miterlimit="10"/>
<path d="M1.84533 4.97707H1" stroke="black" stroke-width="0.00933333" stroke-miterlimit="10"/>
<path d="M1.84534 13.6812V14.8359" stroke="black" stroke-width="0.00933333" stroke-miterlimit="10"/>
<path d="M1.84533 14.8359H1" stroke="black" stroke-width="0.00933333" stroke-miterlimit="10"/>
<path d="M1 13.6812H1.84533" stroke="black" stroke-width="0.00933333" stroke-miterlimit="10"/>
<path d="M1 13.6812V4.97706" stroke="black" stroke-width="0.00933333" stroke-miterlimit="10"/>
<path d="M1 23.5385H1.84533" stroke="black" stroke-width="0.00933333" stroke-miterlimit="10"/>
<path d="M1.84534 23.5385V24.6932" stroke="black" stroke-width="0.00933333" stroke-miterlimit="10"/>
<path d="M1.84533 24.6932H1" stroke="black" stroke-width="0.00933333" stroke-miterlimit="10"/>
<path d="M1 23.5385V14.8359" stroke="black" stroke-width="0.00933333" stroke-miterlimit="10"/>
<path d="M1.84534 33.3974V34.5521" stroke="black" stroke-width="0.00933333" stroke-miterlimit="10"/>
<path d="M1.84533 34.5521H1" stroke="black" stroke-width="0.00933333" stroke-miterlimit="10"/>
<path d="M1 33.3974H1.84533" stroke="black" stroke-width="0.00933333" stroke-miterlimit="10"/>
<path d="M1 33.3974V24.6932" stroke="black" stroke-width="0.00933333" stroke-miterlimit="10"/>
<path d="M54.4161 35.1213H53.4025" stroke="black" stroke-width="0.00933333" stroke-miterlimit="10"/>
<path d="M67.6401 35.1213V2.2812" stroke="black" stroke-width="0.00933333" stroke-miterlimit="10"/>
<path d="M67.612 35.1213V2.2812" stroke="black" stroke-width="0.004" stroke-miterlimit="10"/>
<path d="M51.952 2.2812V35.1213" stroke="black" stroke-width="0.004" stroke-miterlimit="10"/>
<path d="M66.1615 35.1213H65.1468" stroke="black" stroke-width="0.00933333" stroke-miterlimit="10"/>
<path d="M67.612 2.2812H66.1615" stroke="black" stroke-width="0.00933333" stroke-miterlimit="10"/>
<path d="M58.3307 35.1213H57.3172" stroke="black" stroke-width="0.00933333" stroke-miterlimit="10"/>
<path d="M53.4025 2.2812H54.4161" stroke="black" stroke-width="0.00933333" stroke-miterlimit="10"/>
<path d="M57.3172 2.2812H58.3307" stroke="black" stroke-width="0.00933333" stroke-miterlimit="10"/>
<path d="M51.952 35.1213H53.4025" stroke="black" stroke-width="0.00933333" stroke-miterlimit="10"/>
<path d="M61.2317 2.2812H62.2468" stroke="black" stroke-width="0.00933333" stroke-miterlimit="10"/>
<path d="M66.1615 35.1213H67.612" stroke="black" stroke-width="0.00933333" stroke-miterlimit="10"/>
<path d="M66.1615 2.2812H65.1468" stroke="black" stroke-width="0.00933333" stroke-miterlimit="10"/>
<path d="M66.1615 35.1213V2.2812" stroke="black" stroke-width="0.004" stroke-miterlimit="10"/>
<path d="M65.1468 35.1213H62.2468" stroke="black" stroke-width="0.00933333" stroke-miterlimit="10"/>
<path d="M65.1468 2.2812V35.1213" stroke="black" stroke-width="0.004" stroke-miterlimit="10"/>
<path d="M62.2468 35.1213V2.2812" stroke="black" stroke-width="0.004" stroke-miterlimit="10"/>
<path d="M61.2317 2.2812V35.1213" stroke="black" stroke-width="0.004" stroke-miterlimit="10"/>
<path d="M61.2317 35.1213H62.2468" stroke="black" stroke-width="0.00933333" stroke-miterlimit="10"/>
<path d="M62.2468 2.2812H65.1468" stroke="black" stroke-width="0.00933333" stroke-miterlimit="10"/>
<path d="M57.3172 2.2812V35.1213" stroke="black" stroke-width="0.004" stroke-miterlimit="10"/>
<path d="M58.3307 35.1213V2.2812" stroke="black" stroke-width="0.004" stroke-miterlimit="10"/>
<path d="M57.3172 35.1213H54.4161" stroke="black" stroke-width="0.00933333" stroke-miterlimit="10"/>
<path d="M58.3307 35.1213H61.2317" stroke="black" stroke-width="0.00933333" stroke-miterlimit="10"/>
<path d="M58.3307 2.2812H61.2317" stroke="black" stroke-width="0.00933333" stroke-miterlimit="10"/>
<path d="M54.4161 35.1213V2.2812" stroke="black" stroke-width="0.004" stroke-miterlimit="10"/>
<path d="M53.4025 2.2812V35.1213" stroke="black" stroke-width="0.004" stroke-miterlimit="10"/>
<path d="M54.4161 2.2812H57.3172" stroke="black" stroke-width="0.00933333" stroke-miterlimit="10"/>
<path d="M53.4025 2.2812H51.952" stroke="black" stroke-width="0.00933333" stroke-miterlimit="10"/>
<path d="M83.3563 37.488H86.3135" stroke="black" stroke-width="0.00933333" stroke-miterlimit="10"/>
<path d="M86.3135 37.488V1.00001" stroke="black" stroke-width="0.00933333" stroke-miterlimit="10"/>
<path d="M86.3135 1H83.3563" stroke="black" stroke-width="0.00933333" stroke-miterlimit="10"/>
<path d="M22.9839 35.1213H21.9692" stroke="black" stroke-width="0.00933333" stroke-miterlimit="10"/>
<path d="M36.1786 35.1213V2.2812" stroke="black" stroke-width="0.004" stroke-miterlimit="10"/>
<path d="M20.5187 2.2812V35.1213" stroke="black" stroke-width="0.004" stroke-miterlimit="10"/>
<path d="M20.4907 2.2812V35.1213" stroke="black" stroke-width="0.00933333" stroke-miterlimit="10"/>
<path d="M34.7281 35.1213H33.7145" stroke="black" stroke-width="0.00933333" stroke-miterlimit="10"/>
<path d="M36.1787 2.2812H34.7281" stroke="black" stroke-width="0.00933333" stroke-miterlimit="10"/>
<path d="M26.8984 35.1213H25.8839" stroke="black" stroke-width="0.00933333" stroke-miterlimit="10"/>
<path d="M21.9692 2.2812H22.9839" stroke="black" stroke-width="0.00933333" stroke-miterlimit="10"/>
<path d="M25.8839 2.2812H26.8984" stroke="black" stroke-width="0.00933333" stroke-miterlimit="10"/>
<path d="M20.5187 35.1213H21.9692" stroke="black" stroke-width="0.00933333" stroke-miterlimit="10"/>
<path d="M29.8 2.2812H30.8134" stroke="black" stroke-width="0.00933333" stroke-miterlimit="10"/>
<path d="M34.7281 35.1213H36.1787" stroke="black" stroke-width="0.00933333" stroke-miterlimit="10"/>
<path d="M34.7281 2.2812H33.7145" stroke="black" stroke-width="0.00933333" stroke-miterlimit="10"/>
<path d="M34.7281 35.1213V2.2812" stroke="black" stroke-width="0.004" stroke-miterlimit="10"/>
<path d="M33.7145 35.1213H30.8135" stroke="black" stroke-width="0.00933333" stroke-miterlimit="10"/>
<path d="M33.7145 2.2812V35.1213" stroke="black" stroke-width="0.004" stroke-miterlimit="10"/>
<path d="M30.8135 35.1213V2.2812" stroke="black" stroke-width="0.004" stroke-miterlimit="10"/>
<path d="M29.8 2.2812V35.1213" stroke="black" stroke-width="0.004" stroke-miterlimit="10"/>
<path d="M29.8 35.1213H30.8134" stroke="black" stroke-width="0.00933333" stroke-miterlimit="10"/>
<path d="M30.8135 2.2812H33.7145" stroke="black" stroke-width="0.00933333" stroke-miterlimit="10"/>
<path d="M25.8839 2.2812V35.1213" stroke="black" stroke-width="0.004" stroke-miterlimit="10"/>
<path d="M26.8984 35.1213V2.2812" stroke="black" stroke-width="0.004" stroke-miterlimit="10"/>
<path d="M25.8839 35.1213H22.9839" stroke="black" stroke-width="0.00933333" stroke-miterlimit="10"/>
<path d="M26.8984 35.1213H29.8" stroke="black" stroke-width="0.00933333" stroke-miterlimit="10"/>
<path d="M26.8984 2.2812H29.8" stroke="black" stroke-width="0.00933333" stroke-miterlimit="10"/>
<path d="M22.9839 35.1213V2.2812" stroke="black" stroke-width="0.004" stroke-miterlimit="10"/>
<path d="M21.9692 2.2812V35.1213" stroke="black" stroke-width="0.004" stroke-miterlimit="10"/>
<path d="M22.9839 2.2812H25.8839" stroke="black" stroke-width="0.00933333" stroke-miterlimit="10"/>
<path d="M21.9692 2.2812H20.5187" stroke="black" stroke-width="0.00933333" stroke-miterlimit="10"/>
<path d="M7.26665 35.1213H6.25305" stroke="black" stroke-width="0.00933333" stroke-miterlimit="10"/>
<path d="M20.4625 35.1213V2.2812" stroke="black" stroke-width="0.004" stroke-miterlimit="10"/>
<path d="M4.80255 2.2812V35.1213" stroke="black" stroke-width="0.004" stroke-miterlimit="10"/>
<path d="M4.77441 2.2812V35.1213" stroke="black" stroke-width="0.00933333" stroke-miterlimit="10"/>
<path d="M19.012 35.1213H17.9984" stroke="black" stroke-width="0.00933333" stroke-miterlimit="10"/>
<path d="M20.4625 2.2812H19.012" stroke="black" stroke-width="0.00933333" stroke-miterlimit="10"/>
<path d="M11.1828 35.1213H10.1683" stroke="black" stroke-width="0.00933333" stroke-miterlimit="10"/>
<path d="M6.25305 2.2812H7.26665" stroke="black" stroke-width="0.00933333" stroke-miterlimit="10"/>
<path d="M10.1683 2.2812H11.1828" stroke="black" stroke-width="0.00933333" stroke-miterlimit="10"/>
<path d="M4.80255 35.1213H6.25308" stroke="black" stroke-width="0.00933333" stroke-miterlimit="10"/>
<path d="M14.0828 2.2812H15.0973" stroke="black" stroke-width="0.00933333" stroke-miterlimit="10"/>
<path d="M19.012 35.1213H20.4625" stroke="black" stroke-width="0.00933333" stroke-miterlimit="10"/>
<path d="M19.012 2.2812H17.9984" stroke="black" stroke-width="0.00933333" stroke-miterlimit="10"/>
<path d="M19.012 35.1213V2.2812" stroke="black" stroke-width="0.004" stroke-miterlimit="10"/>
<path d="M17.9984 35.1213H15.0974" stroke="black" stroke-width="0.00933333" stroke-miterlimit="10"/>
<path d="M17.9984 2.2812V35.1213" stroke="black" stroke-width="0.004" stroke-miterlimit="10"/>
<path d="M15.0974 35.1213V2.2812" stroke="black" stroke-width="0.004" stroke-miterlimit="10"/>
<path d="M14.0828 2.2812V35.1213" stroke="black" stroke-width="0.004" stroke-miterlimit="10"/>
<path d="M14.0828 35.1213H15.0973" stroke="black" stroke-width="0.00933333" stroke-miterlimit="10"/>
<path d="M15.0974 2.2812H17.9984" stroke="black" stroke-width="0.00933333" stroke-miterlimit="10"/>
<path d="M10.1683 2.2812V35.1213" stroke="black" stroke-width="0.004" stroke-miterlimit="10"/>
<path d="M11.1828 35.1213V2.2812" stroke="black" stroke-width="0.004" stroke-miterlimit="10"/>
<path d="M10.1683 35.1213H7.26666" stroke="black" stroke-width="0.00933333" stroke-miterlimit="10"/>
<path d="M11.1828 35.1213H14.0828" stroke="black" stroke-width="0.00933333" stroke-miterlimit="10"/>
<path d="M11.1828 2.2812H14.0828" stroke="black" stroke-width="0.00933333" stroke-miterlimit="10"/>
<path d="M7.26666 35.1213V2.2812" stroke="black" stroke-width="0.004" stroke-miterlimit="10"/>
<path d="M6.25305 2.2812V35.1213" stroke="black" stroke-width="0.004" stroke-miterlimit="10"/>
<path d="M7.26666 2.2812H10.1683" stroke="black" stroke-width="0.00933333" stroke-miterlimit="10"/>
<path d="M6.25308 2.2812H4.80255" stroke="black" stroke-width="0.00933333" stroke-miterlimit="10"/>
<path d="M70.1317 35.1213H69.1187" stroke="black" stroke-width="0.00933333" stroke-miterlimit="10"/>
<path d="M83.3563 35.1213V2.2812" stroke="black" stroke-width="0.00933333" stroke-miterlimit="10"/>
<path d="M83.3281 35.1213V2.2812" stroke="black" stroke-width="0.004" stroke-miterlimit="10"/>
<path d="M67.6683 2.2812V35.1213" stroke="black" stroke-width="0.004" stroke-miterlimit="10"/>
<path d="M81.8776 35.1213H80.864" stroke="black" stroke-width="0.00933333" stroke-miterlimit="10"/>
<path d="M83.3281 2.2812H81.8776" stroke="black" stroke-width="0.00933333" stroke-miterlimit="10"/>
<path d="M74.0479 35.1213H73.0333" stroke="black" stroke-width="0.00933333" stroke-miterlimit="10"/>
<path d="M69.1187 2.2812H70.1317" stroke="black" stroke-width="0.00933333" stroke-miterlimit="10"/>
<path d="M73.0333 2.2812H74.0479" stroke="black" stroke-width="0.00933333" stroke-miterlimit="10"/>
<path d="M67.6683 35.1213H69.1187" stroke="black" stroke-width="0.00933333" stroke-miterlimit="10"/>
<path d="M76.9479 2.2812H77.9625" stroke="black" stroke-width="0.00933333" stroke-miterlimit="10"/>
<path d="M81.8776 35.1213H83.3281" stroke="black" stroke-width="0.00933333" stroke-miterlimit="10"/>
<path d="M81.8776 2.2812H80.864" stroke="black" stroke-width="0.00933333" stroke-miterlimit="10"/>
<path d="M81.8776 35.1213V2.2812" stroke="black" stroke-width="0.004" stroke-miterlimit="10"/>
<path d="M80.864 35.1213H77.9625" stroke="black" stroke-width="0.00933333" stroke-miterlimit="10"/>
<path d="M80.864 2.2812V35.1213" stroke="black" stroke-width="0.004" stroke-miterlimit="10"/>
<path d="M77.9625 35.1213V2.2812" stroke="black" stroke-width="0.004" stroke-miterlimit="10"/>
<path d="M76.9479 2.2812V35.1213" stroke="black" stroke-width="0.004" stroke-miterlimit="10"/>
<path d="M76.9479 35.1213H77.9625" stroke="black" stroke-width="0.00933333" stroke-miterlimit="10"/>
<path d="M77.9625 2.2812H80.864" stroke="black" stroke-width="0.00933333" stroke-miterlimit="10"/>
<path d="M73.0333 2.2812V35.1213" stroke="black" stroke-width="0.004" stroke-miterlimit="10"/>
<path d="M74.0479 35.1213V2.2812" stroke="black" stroke-width="0.004" stroke-miterlimit="10"/>
<path d="M73.0333 35.1213H70.1317" stroke="black" stroke-width="0.00933333" stroke-miterlimit="10"/>
<path d="M74.0479 35.1213H76.9479" stroke="black" stroke-width="0.00933333" stroke-miterlimit="10"/>
<path d="M74.0479 2.2812H76.9479" stroke="black" stroke-width="0.00933333" stroke-miterlimit="10"/>
<path d="M70.1317 35.1213V2.2812" stroke="black" stroke-width="0.004" stroke-miterlimit="10"/>
<path d="M69.1187 2.2812V35.1213" stroke="black" stroke-width="0.004" stroke-miterlimit="10"/>
<path d="M70.1317 2.2812H73.0333" stroke="black" stroke-width="0.00933333" stroke-miterlimit="10"/>
<path d="M69.1187 2.2812H67.6683" stroke="black" stroke-width="0.00933333" stroke-miterlimit="10"/>
<path d="M83.3563 37.3052V35.1213" stroke="black" stroke-width="0.00933333" stroke-miterlimit="10"/>
<path d="M4.77441 35.1213V37.3052" stroke="black" stroke-width="0.00933333" stroke-miterlimit="10"/>
<path d="M4.77441 37.3052H83.3563" stroke="black" stroke-width="0.00933333" stroke-miterlimit="10"/>
<path d="M4.77441 37.3052V37.488" stroke="black" stroke-width="0.00933333" stroke-miterlimit="10"/>
<path d="M83.3563 37.3052V37.488" stroke="black" stroke-width="0.00933333" stroke-miterlimit="10"/>
<path d="M4.77441 0.999999V1.43587" stroke="black" stroke-width="0.00933333" stroke-miterlimit="10"/>
<path d="M83.3563 0.999999V1.43587" stroke="black" stroke-width="0.00933333" stroke-miterlimit="10"/>
</svg>
