<svg width="36" height="38" viewBox="0 0 36 38" fill="none" xmlns="http://www.w3.org/2000/svg">
<path d="M27.5787 35.2771H34.6438V35.1359H27.5787V35.2771Z" fill="#EDEDED"/>
<path d="M34.644 35.2771V2.66146H35.3347V35.8265H34.644" fill="#EDEDED"/>
<path d="M27.5787 35.2771H34.644V35.8265H33.0533V37.2479H3.28268V35.8265H1.69067V35.2771H8.76268V35.8401H9.79067V35.2771H15.3547V35.8401H16.3827V35.2771H19.96V35.8401H20.988V35.2771H26.5507V35.8401H27.5787" fill="#EDEDED"/>
<path d="M20.988 35.2771H26.5505V35.1359H20.988V35.2771Z" fill="#EDEDED"/>
<path d="M16.3827 35.2771H19.9603V35.1359H16.3827V35.2771Z" fill="#EDEDED"/>
<path d="M9.79065 35.2771H15.3542V35.1359H9.79065V35.2771Z" fill="#EDEDED"/>
<path d="M1.69067 35.2771H8.76256V35.1359H1.69067V35.2771Z" fill="#EDEDED"/>
<path d="M1.69066 35.136V35.8265H1V2.66146H1.69066V3.02812" fill="#EDEDED"/>
<path d="M8.76268 3.02814H1.69067V2.66147H3.28268V1.08387H33.0533V2.66147H34.644V3.02814H27.5787V2.49067H26.5507V3.02814H20.988V2.49067H19.96V3.02814H16.3827V2.49067H15.3547V3.02814H9.79067V2.49067H8.76268" fill="#EDEDED"/>
<path d="M35.3347 35.8265V37.488H33.0533V35.8265H34.644" fill="#EDEDED"/>
<path d="M1 1H3.28229V2.66145H1V1Z" fill="#EDEDED"/>
<path d="M3.28267 37.2479V37.488H1V35.8265H1.69066H3.28267" fill="#EDEDED"/>
<path d="M33.0533 1H35.3347V2.66147H33.0533V1.08387" fill="#EDEDED"/>
<path d="M1.944 3.28119H3.35181V34.9812H1.944V3.28119Z" fill="#EDEDED"/>
<path d="M3.35202 18.188H8.76294V13.4693H3.35202V18.188Z" fill="white"/>
<path d="M3.35202 24.7921V20.0745H8.76268V21.2427H4.17868V22.2708H8.76268V24.7921" fill="white"/>
<path d="M3.35202 20.0745H8.76294V18.1881H3.35202V20.0745Z" fill="#EDEDED"/>
<path d="M3.35202 26.6803H8.76294V24.7922H3.35202V26.6803Z" fill="#EDEDED"/>
<path d="M3.35202 13.4693H8.76294V11.5829H3.35202V13.4693Z" fill="#EDEDED"/>
<path d="M3.35202 11.5828H8.76294V5.39321H3.35202V11.5828Z" fill="white"/>
<path d="M3.35202 32.8693H8.76294V26.6803H3.35202V32.8693Z" fill="white"/>
<path d="M3.35202 34.9812H8.76294V32.8692H3.35202V34.9812Z" fill="#EDEDED"/>
<path d="M3.35202 5.3932H8.76294V3.28123H3.35202V5.3932Z" fill="#EDEDED"/>
<path d="M16.3827 5.3932H16.6322V3.28123H16.3827V5.3932Z" fill="#EDEDED"/>
<path d="M16.3827 11.5828H16.6322V5.39321H16.3827V11.5828Z" fill="white"/>
<path d="M16.632 11.5828V3.28119H18.0413V34.9812H16.632V32.8693V26.6803V24.7921V20.0745V18.188V13.4693" fill="#EDEDED"/>
<path d="M16.3827 20.0745H16.6322V18.1881H16.3827V20.0745Z" fill="#EDEDED"/>
<path d="M16.3827 24.7921H16.6322V20.0744H16.3827V24.7921Z" fill="white"/>
<path d="M16.3827 26.6803H16.6322V24.7922H16.3827V26.6803Z" fill="#EDEDED"/>
<path d="M16.3827 13.4693H16.6322V11.5829H16.3827V13.4693Z" fill="#EDEDED"/>
<path d="M16.3827 18.188H16.6322V13.4693H16.3827V18.188Z" fill="white"/>
<path d="M16.3827 32.8693H16.6322V26.6803H16.3827V32.8693Z" fill="white"/>
<path d="M16.3827 34.9812H16.6322V32.8692H16.3827V34.9812Z" fill="#EDEDED"/>
<path d="M9.79065 5.3932H15.3542V3.28123H9.79065V5.3932Z" fill="#EDEDED"/>
<path d="M9.79065 11.5828H15.3542V5.39321H9.79065V11.5828Z" fill="white"/>
<path d="M9.79065 13.4693H15.3542V11.5829H9.79065V13.4693Z" fill="#EDEDED"/>
<path d="M9.79065 18.188H15.3542V13.4693H9.79065V18.188Z" fill="white"/>
<path d="M9.79065 20.0745H15.3542V18.1881H9.79065V20.0745Z" fill="#EDEDED"/>
<path d="M9.79065 20.0745H15.3546V21.2427H10.7706V22.2708H15.3546V24.7921H9.79065" fill="white"/>
<path d="M9.79065 26.6803H15.3542V24.7922H9.79065V26.6803Z" fill="#EDEDED"/>
<path d="M9.79065 32.8693H15.3542V26.6803H9.79065V32.8693Z" fill="white"/>
<path d="M9.79065 34.9812H15.3542V32.8692H9.79065V34.9812Z" fill="#EDEDED"/>
<path d="M10.7707 22.2708V21.2427H15.3547V2.49067H16.3827V3.02814V3.2812V5.3932V11.5828V13.4693V18.188V20.0745V24.7921V26.6803V32.8693V34.9812V35.136V35.2771V35.8401H15.3547V35.2771V35.136V34.9812V32.8693V26.6803V24.7921V22.2708" fill="white"/>
<path d="M4.17868 22.2708V21.2427H8.76268V2.49067H9.79068V3.02814V3.2812V5.3932V11.5828V13.4693V18.188V20.0745V24.7921V26.6803V32.8693V34.9812V35.136V35.2771V35.8401H8.76268V35.2771V35.136V34.9812V32.8693V26.6803V24.7921V22.2708" fill="white"/>
<path d="M20.988 35.8401H19.96V2.49067H20.988V3.02814V3.2812V5.3932V11.5828V13.4693V18.188V20.0745V21.2427H25.572V22.2708H20.988V24.7921V26.6803V32.8693V34.9812V35.136V35.2771" fill="white"/>
<path d="M25.572 22.2708V21.2427H20.988V20.0745H26.5507V24.7921H20.988V22.2708" fill="white"/>
<path d="M27.5787 35.8401H26.5507V2.49067H27.5787V3.02814V3.2812V5.3932V11.5828V13.4693V18.188V20.0745V21.2427H32.1627V22.2708H27.5787V24.7921V26.6803V32.8693V34.9812V35.136V35.2771" fill="white"/>
<path d="M32.1627 22.2708V21.2427H27.5787V20.0745H32.9827V24.7921H27.5787V22.2708" fill="white"/>
<path d="M20.988 20.0745H26.5505V18.1881H20.988V20.0745Z" fill="#EDEDED"/>
<path d="M27.5787 20.0745H32.9823V18.1881H27.5787V20.0745Z" fill="#EDEDED"/>
<path d="M32.9827 24.7921V3.28119H34.3907V34.9812H32.9827V32.8693V26.6803" fill="#EDEDED"/>
<path d="M27.5787 18.188H32.9823V13.4693H27.5787V18.188Z" fill="white"/>
<path d="M27.5787 26.6803H32.9823V24.7922H27.5787V26.6803Z" fill="#EDEDED"/>
<path d="M20.988 26.6803H26.5505V24.7922H20.988V26.6803Z" fill="#EDEDED"/>
<path d="M27.5787 13.4693H32.9823V11.5829H27.5787V13.4693Z" fill="#EDEDED"/>
<path d="M20.988 18.188H26.5505V13.4693H20.988V18.188Z" fill="white"/>
<path d="M20.988 13.4693H26.5505V11.5829H20.988V13.4693Z" fill="#EDEDED"/>
<path d="M27.5787 11.5828H32.9823V5.39321H27.5787V11.5828Z" fill="white"/>
<path d="M20.988 11.5828H26.5505V5.39321H20.988V11.5828Z" fill="white"/>
<path d="M20.988 32.8693H26.5505V26.6803H20.988V32.8693Z" fill="white"/>
<path d="M27.5787 32.8693H32.9823V26.6803H27.5787V32.8693Z" fill="white"/>
<path d="M27.5787 34.9812H32.9823V32.8692H27.5787V34.9812Z" fill="#EDEDED"/>
<path d="M20.988 34.9812H26.5505V32.8692H20.988V34.9812Z" fill="#EDEDED"/>
<path d="M27.5787 5.3932H32.9823V3.28123H27.5787V5.3932Z" fill="#EDEDED"/>
<path d="M20.988 5.3932H26.5505V3.28123H20.988V5.3932Z" fill="#EDEDED"/>
<path d="M19.7027 5.3932H19.96V3.28123H19.7027V5.3932Z" fill="#EDEDED"/>
<path d="M19.7027 11.5828H19.96V5.39321H19.7027V11.5828Z" fill="white"/>
<path d="M19.7027 5.39318V34.9812H18.2947V3.28119H19.7027" fill="#EDEDED"/>
<path d="M19.7027 20.0745H19.96V18.1881H19.7027V20.0745Z" fill="#EDEDED"/>
<path d="M19.7027 24.7921H19.96V20.0744H19.7027V24.7921Z" fill="white"/>
<path d="M19.7027 26.6803H19.96V24.7922H19.7027V26.6803Z" fill="#EDEDED"/>
<path d="M19.7027 13.4693H19.96V11.5829H19.7027V13.4693Z" fill="#EDEDED"/>
<path d="M19.7027 18.188H19.96V13.4693H19.7027V18.188Z" fill="white"/>
<path d="M19.7027 32.8693H19.96V26.6803H19.7027V32.8693Z" fill="white"/>
<path d="M19.7027 34.9812H19.96V32.8692H19.7027V34.9812Z" fill="#EDEDED"/>
<path d="M34.644 35.136V35.2771" stroke="black" stroke-width="0.004" stroke-miterlimit="10"/>
<path d="M34.644 3.02814V35.136" stroke="black" stroke-width="0.00933333" stroke-miterlimit="10"/>
<path d="M35.3347 35.8265V37.488" stroke="black" stroke-width="0.00933333" stroke-miterlimit="10"/>
<path d="M33.0533 37.488V37.2479" stroke="black" stroke-width="0.00933333" stroke-miterlimit="10"/>
<path d="M35.3347 37.488H33.0533" stroke="black" stroke-width="0.00933333" stroke-miterlimit="10"/>
<path d="M1 1H3.28267" stroke="black" stroke-width="0.00933333" stroke-miterlimit="10"/>
<path d="M1.69067 35.2771V35.136" stroke="black" stroke-width="0.004" stroke-miterlimit="10"/>
<path d="M1.69067 35.136H8.76268" stroke="black" stroke-width="0.00933333" stroke-miterlimit="10"/>
<path d="M9.79065 35.136H15.3546" stroke="black" stroke-width="0.00933333" stroke-miterlimit="10"/>
<path d="M16.3827 35.136H19.96" stroke="black" stroke-width="0.00933333" stroke-miterlimit="10"/>
<path d="M20.988 35.136H26.5507" stroke="black" stroke-width="0.00933333" stroke-miterlimit="10"/>
<path d="M27.5787 35.136H34.644" stroke="black" stroke-width="0.00933333" stroke-miterlimit="10"/>
<path d="M34.644 35.2771H27.5787" stroke="black" stroke-width="0.004" stroke-miterlimit="10"/>
<path d="M26.5507 35.2771H20.988" stroke="black" stroke-width="0.004" stroke-miterlimit="10"/>
<path d="M19.96 35.2771H16.3827" stroke="black" stroke-width="0.004" stroke-miterlimit="10"/>
<path d="M15.3546 35.2771H9.79065" stroke="black" stroke-width="0.004" stroke-miterlimit="10"/>
<path d="M8.76268 35.2771H1.69067" stroke="black" stroke-width="0.004" stroke-miterlimit="10"/>
<path d="M3.28268 1.08388H33.0533" stroke="black" stroke-width="0.00933333" stroke-miterlimit="10"/>
<path d="M1.69067 35.136V3.02814" stroke="black" stroke-width="0.00933333" stroke-miterlimit="10"/>
<path d="M1.69067 3.02814H8.76268" stroke="black" stroke-width="0.00933333" stroke-miterlimit="10"/>
<path d="M9.79065 3.02814H15.3546" stroke="black" stroke-width="0.00933333" stroke-miterlimit="10"/>
<path d="M16.3827 3.02814H19.96" stroke="black" stroke-width="0.00933333" stroke-miterlimit="10"/>
<path d="M20.988 3.02814H26.5507" stroke="black" stroke-width="0.00933333" stroke-miterlimit="10"/>
<path d="M27.5787 3.02814H34.644" stroke="black" stroke-width="0.00933333" stroke-miterlimit="10"/>
<path d="M3.28268 37.488V37.2479" stroke="black" stroke-width="0.00933333" stroke-miterlimit="10"/>
<path d="M1 37.488H3.28267" stroke="black" stroke-width="0.00933333" stroke-miterlimit="10"/>
<path d="M1 35.8265V37.488" stroke="black" stroke-width="0.00933333" stroke-miterlimit="10"/>
<path d="M33.0533 1H35.3347" stroke="black" stroke-width="0.00933333" stroke-miterlimit="10"/>
<path d="M3.28268 37.2479H33.0533" stroke="black" stroke-width="0.00933333" stroke-miterlimit="10"/>
<path d="M3.28268 37.2479V35.8265" stroke="black" stroke-width="0.004" stroke-miterlimit="10"/>
<path d="M1 1V2.66147" stroke="black" stroke-width="0.00933333" stroke-miterlimit="10"/>
<path d="M1.69066 35.8265H1" stroke="black" stroke-width="0.004" stroke-miterlimit="10"/>
<path d="M1.69067 35.8265V35.2771" stroke="black" stroke-width="0.004" stroke-miterlimit="10"/>
<path d="M3.28268 35.8265H1.69067" stroke="black" stroke-width="0.004" stroke-miterlimit="10"/>
<path d="M33.0533 37.2479V35.8265" stroke="black" stroke-width="0.004" stroke-miterlimit="10"/>
<path d="M35.3347 1V2.66147" stroke="black" stroke-width="0.00933333" stroke-miterlimit="10"/>
<path d="M33.0533 35.8265H34.644" stroke="black" stroke-width="0.004" stroke-miterlimit="10"/>
<path d="M34.644 35.8265H35.3347" stroke="black" stroke-width="0.004" stroke-miterlimit="10"/>
<path d="M34.644 35.2771V35.8265" stroke="black" stroke-width="0.004" stroke-miterlimit="10"/>
<path d="M33.0533 2.66147V1.08387" stroke="black" stroke-width="0.004" stroke-miterlimit="10"/>
<path d="M35.3347 2.66146V35.8265" stroke="black" stroke-width="0.00933333" stroke-miterlimit="10"/>
<path d="M35.3347 2.66147H34.644" stroke="black" stroke-width="0.004" stroke-miterlimit="10"/>
<path d="M34.644 2.66147H33.0533" stroke="black" stroke-width="0.004" stroke-miterlimit="10"/>
<path d="M34.644 2.66147V3.02814" stroke="black" stroke-width="0.004" stroke-miterlimit="10"/>
<path d="M1 2.66146V35.8265" stroke="black" stroke-width="0.00933333" stroke-miterlimit="10"/>
<path d="M1 2.66147H1.69066" stroke="black" stroke-width="0.004" stroke-miterlimit="10"/>
<path d="M1.69067 2.66147H3.28268" stroke="black" stroke-width="0.004" stroke-miterlimit="10"/>
<path d="M1.69067 3.02814V2.66147" stroke="black" stroke-width="0.004" stroke-miterlimit="10"/>
<path d="M3.28268 2.66147V1.08387" stroke="black" stroke-width="0.004" stroke-miterlimit="10"/>
<path d="M16.632 20.0745H16.3827" stroke="black" stroke-width="0.004" stroke-miterlimit="10"/>
<path d="M15.3546 20.0745H9.79065" stroke="black" stroke-width="0.004" stroke-miterlimit="10"/>
<path d="M8.76268 20.0745H3.35202" stroke="black" stroke-width="0.004" stroke-miterlimit="10"/>
<path d="M3.35202 13.4693V18.188" stroke="black" stroke-width="0.004" stroke-miterlimit="10"/>
<path d="M16.632 11.5828V5.39319" stroke="black" stroke-width="0.004" stroke-miterlimit="10"/>
<path d="M16.632 20.0745V18.188" stroke="black" stroke-width="0.004" stroke-miterlimit="10"/>
<path d="M3.35202 20.0745V24.7921" stroke="black" stroke-width="0.004" stroke-miterlimit="10"/>
<path d="M16.632 24.7921V20.0745" stroke="black" stroke-width="0.004" stroke-miterlimit="10"/>
<path d="M3.35202 24.7921H8.76268" stroke="black" stroke-width="0.004" stroke-miterlimit="10"/>
<path d="M9.79065 24.7921H15.3546" stroke="black" stroke-width="0.004" stroke-miterlimit="10"/>
<path d="M16.3827 24.7921H16.632" stroke="black" stroke-width="0.004" stroke-miterlimit="10"/>
<path d="M16.632 13.4693V11.5828" stroke="black" stroke-width="0.004" stroke-miterlimit="10"/>
<path d="M16.632 13.4693H16.3827" stroke="black" stroke-width="0.004" stroke-miterlimit="10"/>
<path d="M15.3546 13.4693H9.79065" stroke="black" stroke-width="0.004" stroke-miterlimit="10"/>
<path d="M8.76268 13.4693H3.35202" stroke="black" stroke-width="0.004" stroke-miterlimit="10"/>
<path d="M16.632 18.188V13.4693" stroke="black" stroke-width="0.004" stroke-miterlimit="10"/>
<path d="M3.35202 18.188H8.76268" stroke="black" stroke-width="0.004" stroke-miterlimit="10"/>
<path d="M9.79065 18.188H15.3546" stroke="black" stroke-width="0.004" stroke-miterlimit="10"/>
<path d="M16.3827 18.188H16.632" stroke="black" stroke-width="0.004" stroke-miterlimit="10"/>
<path d="M3.35202 11.5828V13.4693" stroke="black" stroke-width="0.004" stroke-miterlimit="10"/>
<path d="M3.35202 11.5828H8.76268" stroke="black" stroke-width="0.004" stroke-miterlimit="10"/>
<path d="M9.79065 11.5828H15.3546" stroke="black" stroke-width="0.004" stroke-miterlimit="10"/>
<path d="M16.3827 11.5828H16.632" stroke="black" stroke-width="0.004" stroke-miterlimit="10"/>
<path d="M3.35202 18.188V20.0745" stroke="black" stroke-width="0.004" stroke-miterlimit="10"/>
<path d="M16.632 26.6803H16.3827" stroke="black" stroke-width="0.004" stroke-miterlimit="10"/>
<path d="M15.3546 26.6803H9.79065" stroke="black" stroke-width="0.004" stroke-miterlimit="10"/>
<path d="M8.76268 26.6803H3.35202" stroke="black" stroke-width="0.004" stroke-miterlimit="10"/>
<path d="M3.35202 26.6803V32.8693" stroke="black" stroke-width="0.004" stroke-miterlimit="10"/>
<path d="M16.632 32.8693V26.6803" stroke="black" stroke-width="0.004" stroke-miterlimit="10"/>
<path d="M3.35202 32.8693H8.76268" stroke="black" stroke-width="0.004" stroke-miterlimit="10"/>
<path d="M9.79065 32.8693H15.3546" stroke="black" stroke-width="0.004" stroke-miterlimit="10"/>
<path d="M16.3827 32.8693H16.632" stroke="black" stroke-width="0.004" stroke-miterlimit="10"/>
<path d="M3.35202 24.7921V26.6803" stroke="black" stroke-width="0.004" stroke-miterlimit="10"/>
<path d="M3.35202 5.39319V11.5828" stroke="black" stroke-width="0.004" stroke-miterlimit="10"/>
<path d="M3.35202 5.3932H8.76268" stroke="black" stroke-width="0.004" stroke-miterlimit="10"/>
<path d="M9.79065 5.3932H15.3546" stroke="black" stroke-width="0.004" stroke-miterlimit="10"/>
<path d="M16.3827 5.3932H16.632" stroke="black" stroke-width="0.004" stroke-miterlimit="10"/>
<path d="M1.944 34.9812V3.28119" stroke="black" stroke-width="0.00933333" stroke-miterlimit="10"/>
<path d="M1.944 3.2812H3.35201" stroke="black" stroke-width="0.00933333" stroke-miterlimit="10"/>
<path d="M3.35202 3.28121V5.3932" stroke="black" stroke-width="0.004" stroke-miterlimit="10"/>
<path d="M3.35202 32.8693V34.9812" stroke="black" stroke-width="0.004" stroke-miterlimit="10"/>
<path d="M3.35201 34.9812H1.944" stroke="black" stroke-width="0.00933333" stroke-miterlimit="10"/>
<path d="M16.632 3.2812H16.3827" stroke="black" stroke-width="0.00933333" stroke-miterlimit="10"/>
<path d="M15.3546 3.2812H9.79065" stroke="black" stroke-width="0.00933333" stroke-miterlimit="10"/>
<path d="M8.76268 3.2812H3.35202" stroke="black" stroke-width="0.00933333" stroke-miterlimit="10"/>
<path d="M16.632 34.9812H16.3827" stroke="black" stroke-width="0.00933333" stroke-miterlimit="10"/>
<path d="M15.3546 34.9812H9.79065" stroke="black" stroke-width="0.00933333" stroke-miterlimit="10"/>
<path d="M8.76268 34.9812H3.35202" stroke="black" stroke-width="0.00933333" stroke-miterlimit="10"/>
<path d="M16.632 26.6803V24.7921" stroke="black" stroke-width="0.004" stroke-miterlimit="10"/>
<path d="M16.632 34.9812V32.8693" stroke="black" stroke-width="0.004" stroke-miterlimit="10"/>
<path d="M18.0413 34.9812H16.632" stroke="black" stroke-width="0.00933333" stroke-miterlimit="10"/>
<path d="M18.0413 3.28119V34.9812" stroke="black" stroke-width="0.00933333" stroke-miterlimit="10"/>
<path d="M16.632 3.2812H18.0413" stroke="black" stroke-width="0.00933333" stroke-miterlimit="10"/>
<path d="M16.632 5.3932V3.28121" stroke="black" stroke-width="0.004" stroke-miterlimit="10"/>
<path d="M10.7707 21.2427V22.2708" stroke="black" stroke-width="0.00933333" stroke-miterlimit="10"/>
<path d="M4.17868 21.2427V22.2708" stroke="black" stroke-width="0.00933333" stroke-miterlimit="10"/>
<path d="M16.3827 35.8401H15.3547" stroke="black" stroke-width="0.00933333" stroke-miterlimit="10"/>
<path d="M15.3547 2.49068H16.3827" stroke="black" stroke-width="0.00933333" stroke-miterlimit="10"/>
<path d="M9.79066 35.8401H8.76266" stroke="black" stroke-width="0.00933333" stroke-miterlimit="10"/>
<path d="M25.572 21.2427V22.2708" stroke="black" stroke-width="0.00933333" stroke-miterlimit="10"/>
<path d="M32.1627 21.2427V22.2708" stroke="black" stroke-width="0.00933333" stroke-miterlimit="10"/>
<path d="M19.96 35.8401H20.988" stroke="black" stroke-width="0.00933333" stroke-miterlimit="10"/>
<path d="M20.988 2.49068H19.96" stroke="black" stroke-width="0.00933333" stroke-miterlimit="10"/>
<path d="M26.5507 35.8401H27.5787" stroke="black" stroke-width="0.00933333" stroke-miterlimit="10"/>
<path d="M19.7027 20.0745H19.96" stroke="black" stroke-width="0.004" stroke-miterlimit="10"/>
<path d="M20.988 20.0745H26.5507" stroke="black" stroke-width="0.004" stroke-miterlimit="10"/>
<path d="M27.5787 20.0745H32.9827" stroke="black" stroke-width="0.004" stroke-miterlimit="10"/>
<path d="M32.9827 13.4693V18.188" stroke="black" stroke-width="0.004" stroke-miterlimit="10"/>
<path d="M19.7027 11.5828V5.39319" stroke="black" stroke-width="0.004" stroke-miterlimit="10"/>
<path d="M19.7027 20.0745V18.188" stroke="black" stroke-width="0.004" stroke-miterlimit="10"/>
<path d="M32.9827 20.0745V24.7921" stroke="black" stroke-width="0.004" stroke-miterlimit="10"/>
<path d="M19.7027 24.7921V20.0745" stroke="black" stroke-width="0.004" stroke-miterlimit="10"/>
<path d="M32.9827 24.7921H27.5787" stroke="black" stroke-width="0.004" stroke-miterlimit="10"/>
<path d="M26.5507 24.7921H20.988" stroke="black" stroke-width="0.004" stroke-miterlimit="10"/>
<path d="M19.96 24.7921H19.7027" stroke="black" stroke-width="0.004" stroke-miterlimit="10"/>
<path d="M19.7027 13.4693V11.5828" stroke="black" stroke-width="0.004" stroke-miterlimit="10"/>
<path d="M19.7027 13.4693H19.96" stroke="black" stroke-width="0.004" stroke-miterlimit="10"/>
<path d="M20.988 13.4693H26.5507" stroke="black" stroke-width="0.004" stroke-miterlimit="10"/>
<path d="M27.5787 13.4693H32.9827" stroke="black" stroke-width="0.004" stroke-miterlimit="10"/>
<path d="M19.7027 18.188V13.4693" stroke="black" stroke-width="0.004" stroke-miterlimit="10"/>
<path d="M32.9827 18.188H27.5787" stroke="black" stroke-width="0.004" stroke-miterlimit="10"/>
<path d="M26.5507 18.188H20.988" stroke="black" stroke-width="0.004" stroke-miterlimit="10"/>
<path d="M19.96 18.188H19.7027" stroke="black" stroke-width="0.004" stroke-miterlimit="10"/>
<path d="M32.9827 11.5828V13.4693" stroke="black" stroke-width="0.004" stroke-miterlimit="10"/>
<path d="M32.9827 11.5828H27.5787" stroke="black" stroke-width="0.004" stroke-miterlimit="10"/>
<path d="M26.5507 11.5828H20.988" stroke="black" stroke-width="0.004" stroke-miterlimit="10"/>
<path d="M19.96 11.5828H19.7027" stroke="black" stroke-width="0.004" stroke-miterlimit="10"/>
<path d="M32.9827 18.188V20.0745" stroke="black" stroke-width="0.004" stroke-miterlimit="10"/>
<path d="M19.7027 26.6803H19.96" stroke="black" stroke-width="0.004" stroke-miterlimit="10"/>
<path d="M20.988 26.6803H26.5507" stroke="black" stroke-width="0.004" stroke-miterlimit="10"/>
<path d="M27.5787 26.6803H32.9827" stroke="black" stroke-width="0.004" stroke-miterlimit="10"/>
<path d="M32.9827 26.6803V32.8693" stroke="black" stroke-width="0.004" stroke-miterlimit="10"/>
<path d="M19.7027 32.8693V26.6803" stroke="black" stroke-width="0.004" stroke-miterlimit="10"/>
<path d="M32.9827 32.8693H27.5787" stroke="black" stroke-width="0.004" stroke-miterlimit="10"/>
<path d="M26.5507 32.8693H20.988" stroke="black" stroke-width="0.004" stroke-miterlimit="10"/>
<path d="M19.96 32.8693H19.7027" stroke="black" stroke-width="0.004" stroke-miterlimit="10"/>
<path d="M32.9827 24.7921V26.6803" stroke="black" stroke-width="0.004" stroke-miterlimit="10"/>
<path d="M32.9827 5.39319V11.5828" stroke="black" stroke-width="0.004" stroke-miterlimit="10"/>
<path d="M32.9827 5.3932H27.5787" stroke="black" stroke-width="0.004" stroke-miterlimit="10"/>
<path d="M26.5507 5.3932H20.988" stroke="black" stroke-width="0.004" stroke-miterlimit="10"/>
<path d="M19.96 5.3932H19.7027" stroke="black" stroke-width="0.004" stroke-miterlimit="10"/>
<path d="M34.3907 34.9812V3.28119" stroke="black" stroke-width="0.00933333" stroke-miterlimit="10"/>
<path d="M34.3907 3.2812H32.9827" stroke="black" stroke-width="0.00933333" stroke-miterlimit="10"/>
<path d="M32.9827 3.28121V5.3932" stroke="black" stroke-width="0.004" stroke-miterlimit="10"/>
<path d="M32.9827 32.8693V34.9812" stroke="black" stroke-width="0.004" stroke-miterlimit="10"/>
<path d="M32.9827 34.9812H34.3907" stroke="black" stroke-width="0.00933333" stroke-miterlimit="10"/>
<path d="M19.7027 3.2812H19.96" stroke="black" stroke-width="0.00933333" stroke-miterlimit="10"/>
<path d="M20.988 3.2812H26.5507" stroke="black" stroke-width="0.00933333" stroke-miterlimit="10"/>
<path d="M27.5787 3.2812H32.9827" stroke="black" stroke-width="0.00933333" stroke-miterlimit="10"/>
<path d="M19.7027 34.9812H19.96" stroke="black" stroke-width="0.00933333" stroke-miterlimit="10"/>
<path d="M20.988 34.9812H26.5507" stroke="black" stroke-width="0.00933333" stroke-miterlimit="10"/>
<path d="M27.5787 34.9812H32.9827" stroke="black" stroke-width="0.00933333" stroke-miterlimit="10"/>
<path d="M19.7027 26.6803V24.7921" stroke="black" stroke-width="0.004" stroke-miterlimit="10"/>
<path d="M19.7027 34.9812V32.8693" stroke="black" stroke-width="0.004" stroke-miterlimit="10"/>
<path d="M18.2947 34.9812H19.7027" stroke="black" stroke-width="0.00933333" stroke-miterlimit="10"/>
<path d="M18.2947 3.28119V34.9812" stroke="black" stroke-width="0.00933333" stroke-miterlimit="10"/>
<path d="M19.7027 3.2812H18.2947" stroke="black" stroke-width="0.00933333" stroke-miterlimit="10"/>
<path d="M19.7027 5.3932V3.28121" stroke="black" stroke-width="0.004" stroke-miterlimit="10"/>
<path d="M8.76266 2.49067V3.02814" stroke="black" stroke-width="0.00933333" stroke-miterlimit="10"/>
<path d="M9.79065 3.02814V2.49067" stroke="black" stroke-width="0.00933333" stroke-miterlimit="10"/>
<path d="M15.3547 2.49067V3.02814" stroke="black" stroke-width="0.00933333" stroke-miterlimit="10"/>
<path d="M16.3827 3.02814V2.49067" stroke="black" stroke-width="0.00933333" stroke-miterlimit="10"/>
<path d="M27.5787 2.49067V3.02814" stroke="black" stroke-width="0.00933333" stroke-miterlimit="10"/>
<path d="M27.5787 35.2771V35.8401" stroke="black" stroke-width="0.00933333" stroke-miterlimit="10"/>
<path d="M26.5507 3.02814V2.49067" stroke="black" stroke-width="0.00933333" stroke-miterlimit="10"/>
<path d="M20.988 2.49067V3.02814" stroke="black" stroke-width="0.00933333" stroke-miterlimit="10"/>
<path d="M20.988 35.2771V35.8401" stroke="black" stroke-width="0.00933333" stroke-miterlimit="10"/>
<path d="M19.96 3.02814V2.49067" stroke="black" stroke-width="0.00933333" stroke-miterlimit="10"/>
<path d="M8.76266 3.02814V3.2812" stroke="black" stroke-width="0.00933333" stroke-miterlimit="10"/>
<path d="M8.76266 34.9812V35.136" stroke="black" stroke-width="0.00933333" stroke-miterlimit="10"/>
<path d="M8.76266 35.136V35.2771" stroke="black" stroke-width="0.00933333" stroke-miterlimit="10"/>
<path d="M8.76266 35.2771V35.8401" stroke="black" stroke-width="0.00933333" stroke-miterlimit="10"/>
<path d="M9.79065 35.8401V35.2771" stroke="black" stroke-width="0.00933333" stroke-miterlimit="10"/>
<path d="M9.79065 35.2771V35.136" stroke="black" stroke-width="0.00933333" stroke-miterlimit="10"/>
<path d="M9.79065 35.136V34.9812" stroke="black" stroke-width="0.00933333" stroke-miterlimit="10"/>
<path d="M9.79065 3.2812V3.02814" stroke="black" stroke-width="0.00933333" stroke-miterlimit="10"/>
<path d="M15.3547 3.02814V3.2812" stroke="black" stroke-width="0.00933333" stroke-miterlimit="10"/>
<path d="M15.3547 34.9812V35.136" stroke="black" stroke-width="0.00933333" stroke-miterlimit="10"/>
<path d="M15.3547 35.136V35.2771" stroke="black" stroke-width="0.00933333" stroke-miterlimit="10"/>
<path d="M15.3547 35.2771V35.8401" stroke="black" stroke-width="0.00933333" stroke-miterlimit="10"/>
<path d="M16.3827 35.8401V35.2771" stroke="black" stroke-width="0.00933333" stroke-miterlimit="10"/>
<path d="M16.3827 35.2771V35.136" stroke="black" stroke-width="0.00933333" stroke-miterlimit="10"/>
<path d="M16.3827 35.136V34.9812" stroke="black" stroke-width="0.00933333" stroke-miterlimit="10"/>
<path d="M16.3827 3.2812V3.02814" stroke="black" stroke-width="0.00933333" stroke-miterlimit="10"/>
<path d="M27.5787 3.02814V3.2812" stroke="black" stroke-width="0.00933333" stroke-miterlimit="10"/>
<path d="M27.5787 35.136V35.2771" stroke="black" stroke-width="0.00933333" stroke-miterlimit="10"/>
<path d="M26.5507 35.8401V35.2771" stroke="black" stroke-width="0.00933333" stroke-miterlimit="10"/>
<path d="M26.5507 35.2771V35.136" stroke="black" stroke-width="0.00933333" stroke-miterlimit="10"/>
<path d="M26.5507 35.136V34.9812" stroke="black" stroke-width="0.00933333" stroke-miterlimit="10"/>
<path d="M26.5507 3.2812V3.02814" stroke="black" stroke-width="0.00933333" stroke-miterlimit="10"/>
<path d="M20.988 3.02814V3.2812" stroke="black" stroke-width="0.00933333" stroke-miterlimit="10"/>
<path d="M20.988 35.136V35.2771" stroke="black" stroke-width="0.00933333" stroke-miterlimit="10"/>
<path d="M19.96 35.8401V35.2771" stroke="black" stroke-width="0.00933333" stroke-miterlimit="10"/>
<path d="M19.96 35.2771V35.136" stroke="black" stroke-width="0.00933333" stroke-miterlimit="10"/>
<path d="M19.96 35.136V34.9812" stroke="black" stroke-width="0.00933333" stroke-miterlimit="10"/>
<path d="M19.96 3.2812V3.02814" stroke="black" stroke-width="0.00933333" stroke-miterlimit="10"/>
<path d="M27.5787 34.9812V35.136" stroke="black" stroke-width="0.00933333" stroke-miterlimit="10"/>
<path d="M20.988 34.9812V35.136" stroke="black" stroke-width="0.00933333" stroke-miterlimit="10"/>
<path d="M8.76266 2.49068H9.79066" stroke="black" stroke-width="0.00933333" stroke-miterlimit="10"/>
<path d="M8.76266 21.2427V20.0745" stroke="black" stroke-width="0.00933333" stroke-miterlimit="10"/>
<path d="M8.76266 18.188V20.0745" stroke="black" stroke-width="0.00933333" stroke-miterlimit="10"/>
<path d="M8.76266 18.188V13.4693" stroke="black" stroke-width="0.00933333" stroke-miterlimit="10"/>
<path d="M8.76266 11.5828V5.39319" stroke="black" stroke-width="0.00933333" stroke-miterlimit="10"/>
<path d="M8.76266 5.3932V3.28121" stroke="black" stroke-width="0.00933333" stroke-miterlimit="10"/>
<path d="M8.76266 13.4693V11.5828" stroke="black" stroke-width="0.00933333" stroke-miterlimit="10"/>
<path d="M4.17868 21.2427H8.76268" stroke="black" stroke-width="0.00933333" stroke-miterlimit="10"/>
<path d="M8.76268 22.2708H4.17868" stroke="black" stroke-width="0.00933333" stroke-miterlimit="10"/>
<path d="M8.76266 34.9812V32.8693" stroke="black" stroke-width="0.00933333" stroke-miterlimit="10"/>
<path d="M8.76266 24.7921V26.6803" stroke="black" stroke-width="0.00933333" stroke-miterlimit="10"/>
<path d="M8.76266 24.7921V22.2708" stroke="black" stroke-width="0.00933333" stroke-miterlimit="10"/>
<path d="M8.76266 26.6803V32.8693" stroke="black" stroke-width="0.00933333" stroke-miterlimit="10"/>
<path d="M9.79065 13.4693V11.5828" stroke="black" stroke-width="0.00933333" stroke-miterlimit="10"/>
<path d="M9.79065 18.188V13.4693" stroke="black" stroke-width="0.00933333" stroke-miterlimit="10"/>
<path d="M9.79065 20.0745V18.188" stroke="black" stroke-width="0.00933333" stroke-miterlimit="10"/>
<path d="M9.79065 24.7921V20.0745" stroke="black" stroke-width="0.00933333" stroke-miterlimit="10"/>
<path d="M9.79065 26.6803V24.7921" stroke="black" stroke-width="0.00933333" stroke-miterlimit="10"/>
<path d="M9.79065 32.8693V26.6803" stroke="black" stroke-width="0.00933333" stroke-miterlimit="10"/>
<path d="M9.79065 32.8693V34.9812" stroke="black" stroke-width="0.00933333" stroke-miterlimit="10"/>
<path d="M9.79065 5.3932V3.28121" stroke="black" stroke-width="0.00933333" stroke-miterlimit="10"/>
<path d="M9.79065 11.5828V5.39319" stroke="black" stroke-width="0.00933333" stroke-miterlimit="10"/>
<path d="M15.3547 20.0745V18.188" stroke="black" stroke-width="0.00933333" stroke-miterlimit="10"/>
<path d="M15.3547 21.2427V20.0745" stroke="black" stroke-width="0.00933333" stroke-miterlimit="10"/>
<path d="M15.3547 13.4693V18.188" stroke="black" stroke-width="0.00933333" stroke-miterlimit="10"/>
<path d="M15.3547 13.4693V11.5828" stroke="black" stroke-width="0.00933333" stroke-miterlimit="10"/>
<path d="M15.3547 5.39319V11.5828" stroke="black" stroke-width="0.00933333" stroke-miterlimit="10"/>
<path d="M15.3547 5.3932V3.28121" stroke="black" stroke-width="0.00933333" stroke-miterlimit="10"/>
<path d="M10.7707 21.2427H15.3547" stroke="black" stroke-width="0.00933333" stroke-miterlimit="10"/>
<path d="M15.3547 22.2708H10.7707" stroke="black" stroke-width="0.00933333" stroke-miterlimit="10"/>
<path d="M15.3547 32.8693V34.9812" stroke="black" stroke-width="0.00933333" stroke-miterlimit="10"/>
<path d="M15.3547 26.6803V32.8693" stroke="black" stroke-width="0.00933333" stroke-miterlimit="10"/>
<path d="M15.3547 24.7921V26.6803" stroke="black" stroke-width="0.00933333" stroke-miterlimit="10"/>
<path d="M15.3547 24.7921V22.2708" stroke="black" stroke-width="0.00933333" stroke-miterlimit="10"/>
<path d="M16.3827 13.4693V11.5828" stroke="black" stroke-width="0.00933333" stroke-miterlimit="10"/>
<path d="M16.3827 18.188V13.4693" stroke="black" stroke-width="0.00933333" stroke-miterlimit="10"/>
<path d="M16.3827 20.0745V18.188" stroke="black" stroke-width="0.00933333" stroke-miterlimit="10"/>
<path d="M16.3827 24.7921V20.0745" stroke="black" stroke-width="0.00933333" stroke-miterlimit="10"/>
<path d="M16.3827 26.6803V24.7921" stroke="black" stroke-width="0.00933333" stroke-miterlimit="10"/>
<path d="M16.3827 32.8693V26.6803" stroke="black" stroke-width="0.00933333" stroke-miterlimit="10"/>
<path d="M16.3827 32.8693V34.9812" stroke="black" stroke-width="0.00933333" stroke-miterlimit="10"/>
<path d="M16.3827 5.3932V3.28121" stroke="black" stroke-width="0.00933333" stroke-miterlimit="10"/>
<path d="M16.3827 11.5828V5.39319" stroke="black" stroke-width="0.00933333" stroke-miterlimit="10"/>
<path d="M27.5787 2.49068H26.5507" stroke="black" stroke-width="0.00933333" stroke-miterlimit="10"/>
<path d="M27.5787 21.2427V20.0745" stroke="black" stroke-width="0.00933333" stroke-miterlimit="10"/>
<path d="M27.5787 18.188V20.0745" stroke="black" stroke-width="0.00933333" stroke-miterlimit="10"/>
<path d="M27.5787 18.188V13.4693" stroke="black" stroke-width="0.00933333" stroke-miterlimit="10"/>
<path d="M27.5787 11.5828V5.39319" stroke="black" stroke-width="0.00933333" stroke-miterlimit="10"/>
<path d="M27.5787 5.3932V3.28121" stroke="black" stroke-width="0.00933333" stroke-miterlimit="10"/>
<path d="M27.5787 13.4693V11.5828" stroke="black" stroke-width="0.00933333" stroke-miterlimit="10"/>
<path d="M32.1627 21.2427H27.5787" stroke="black" stroke-width="0.00933333" stroke-miterlimit="10"/>
<path d="M27.5787 22.2708H32.1627" stroke="black" stroke-width="0.00933333" stroke-miterlimit="10"/>
<path d="M27.5787 34.9812V32.8693" stroke="black" stroke-width="0.00933333" stroke-miterlimit="10"/>
<path d="M27.5787 24.7921V26.6803" stroke="black" stroke-width="0.00933333" stroke-miterlimit="10"/>
<path d="M27.5787 24.7921V22.2708" stroke="black" stroke-width="0.00933333" stroke-miterlimit="10"/>
<path d="M27.5787 26.6803V32.8693" stroke="black" stroke-width="0.00933333" stroke-miterlimit="10"/>
<path d="M26.5507 13.4693V11.5828" stroke="black" stroke-width="0.00933333" stroke-miterlimit="10"/>
<path d="M26.5507 18.188V13.4693" stroke="black" stroke-width="0.00933333" stroke-miterlimit="10"/>
<path d="M26.5507 20.0745V18.188" stroke="black" stroke-width="0.00933333" stroke-miterlimit="10"/>
<path d="M26.5507 24.7921V20.0745" stroke="black" stroke-width="0.00933333" stroke-miterlimit="10"/>
<path d="M26.5507 26.6803V24.7921" stroke="black" stroke-width="0.00933333" stroke-miterlimit="10"/>
<path d="M26.5507 32.8693V26.6803" stroke="black" stroke-width="0.00933333" stroke-miterlimit="10"/>
<path d="M26.5507 32.8693V34.9812" stroke="black" stroke-width="0.00933333" stroke-miterlimit="10"/>
<path d="M26.5507 5.3932V3.28121" stroke="black" stroke-width="0.00933333" stroke-miterlimit="10"/>
<path d="M26.5507 11.5828V5.39319" stroke="black" stroke-width="0.00933333" stroke-miterlimit="10"/>
<path d="M20.988 20.0745V18.188" stroke="black" stroke-width="0.00933333" stroke-miterlimit="10"/>
<path d="M20.988 21.2427V20.0745" stroke="black" stroke-width="0.00933333" stroke-miterlimit="10"/>
<path d="M20.988 13.4693V18.188" stroke="black" stroke-width="0.00933333" stroke-miterlimit="10"/>
<path d="M20.988 13.4693V11.5828" stroke="black" stroke-width="0.00933333" stroke-miterlimit="10"/>
<path d="M20.988 5.39319V11.5828" stroke="black" stroke-width="0.00933333" stroke-miterlimit="10"/>
<path d="M20.988 5.3932V3.28121" stroke="black" stroke-width="0.00933333" stroke-miterlimit="10"/>
<path d="M25.572 21.2427H20.988" stroke="black" stroke-width="0.00933333" stroke-miterlimit="10"/>
<path d="M20.988 22.2708H25.572" stroke="black" stroke-width="0.00933333" stroke-miterlimit="10"/>
<path d="M20.988 32.8693V34.9812" stroke="black" stroke-width="0.00933333" stroke-miterlimit="10"/>
<path d="M20.988 26.6803V32.8693" stroke="black" stroke-width="0.00933333" stroke-miterlimit="10"/>
<path d="M20.988 24.7921V26.6803" stroke="black" stroke-width="0.00933333" stroke-miterlimit="10"/>
<path d="M20.988 24.7921V22.2708" stroke="black" stroke-width="0.00933333" stroke-miterlimit="10"/>
<path d="M19.96 13.4693V11.5828" stroke="black" stroke-width="0.00933333" stroke-miterlimit="10"/>
<path d="M19.96 18.188V13.4693" stroke="black" stroke-width="0.00933333" stroke-miterlimit="10"/>
<path d="M19.96 20.0745V18.188" stroke="black" stroke-width="0.00933333" stroke-miterlimit="10"/>
<path d="M19.96 24.7921V20.0745" stroke="black" stroke-width="0.00933333" stroke-miterlimit="10"/>
<path d="M19.96 26.6803V24.7921" stroke="black" stroke-width="0.00933333" stroke-miterlimit="10"/>
<path d="M19.96 32.8693V26.6803" stroke="black" stroke-width="0.00933333" stroke-miterlimit="10"/>
<path d="M19.96 32.8693V34.9812" stroke="black" stroke-width="0.00933333" stroke-miterlimit="10"/>
<path d="M19.96 5.3932V3.28121" stroke="black" stroke-width="0.00933333" stroke-miterlimit="10"/>
<path d="M19.96 11.5828V5.39319" stroke="black" stroke-width="0.00933333" stroke-miterlimit="10"/>
</svg>
