<svg width="87" height="38" viewBox="0 0 87 38" fill="none" xmlns="http://www.w3.org/2000/svg">
<path d="M48.6133 35.1213H82.5107L82.5387 37.3052H3.95734V35.1213H5.436H6.44933H9.35066H10.3653H13.2653H14.28H17.1813H18.1947H19.6453H21.152H22.1667H25.0667H26.0813H28.9827H29.996H32.8973H33.9107H35.3613H36.868H37.8827H40.784H41.7973H44.6987H45.712" fill="#EDEDED"/>
<path d="M48.6133 35.1213H49.6279V2.28119H48.6133V35.1213Z" fill="white"/>
<path d="M35.4187 35.1213L35.3893 2.2812Z" fill="white"/>
<path d="M35.4187 2.2812H3.98533L3.95734 1.43587H82.5387V2.2812H81.06H80.0467H77.1453H76.1307H73.2307H72.216H69.3147H68.3013H66.8507H65.344H64.3293H61.4293H60.4147H57.5133H56.5H53.5987H52.5853H51.1347H49.628H48.6133H45.712H44.6987H41.7973H40.784H37.8827H36.868" fill="#EDEDED"/>
<path d="M35.3894 2.2812V35.1213L35.3614 2.2812" fill="white"/>
<path d="M35.4187 35.1213H36.8681V2.28119H35.4187V35.1213Z" fill="#EDEDED"/>
<path d="M36.868 35.1213H37.8826V2.28119H36.868V35.1213Z" fill="white"/>
<path d="M44.6987 35.1213H45.7122V2.28119H44.6987V35.1213Z" fill="white"/>
<path d="M51.0787 2.2812L51.1067 35.1213Z" fill="white"/>
<path d="M49.628 35.1213H51.0791V2.28119H49.628V35.1213Z" fill="#EDEDED"/>
<path d="M51.1067 35.1213V2.2812L51.1347 35.1213" fill="white"/>
<path d="M40.784 35.1213H41.797V2.28119H40.784V35.1213Z" fill="white"/>
<path d="M37.8827 35.1213H40.7842V2.28119H37.8827V35.1213Z" fill="#EDEDED"/>
<path d="M41.7973 35.1213H44.6989V2.28119H41.7973V35.1213Z" fill="#EDEDED"/>
<path d="M45.712 35.1213H48.613V2.28119H45.712V35.1213Z" fill="#EDEDED"/>
<path d="M80.0467 35.1213H81.0602V2.28119H80.0467V35.1213Z" fill="white"/>
<path d="M66.8227 2.2812L66.8507 35.1213Z" fill="white"/>
<path d="M66.8227 2.2812V35.1213L66.7947 2.2812" fill="white"/>
<path d="M66.8507 35.1213H68.3012V2.28119H66.8507V35.1213Z" fill="#EDEDED"/>
<path d="M68.3013 35.1213H69.3149V2.28119H68.3013V35.1213Z" fill="white"/>
<path d="M76.1307 35.1213H77.1458V2.28119H76.1307V35.1213Z" fill="white"/>
<path d="M82.5107 2.2812L82.5387 35.1213Z" fill="white"/>
<path d="M81.06 35.1213H82.5105V2.28119H81.06V35.1213Z" fill="#EDEDED"/>
<path d="M82.5387 35.1213V1.00001H86.3134V3.8224H85.468V4.97707H86.3134V13.6812H85.468V14.8359H86.3134V23.5385H85.468V24.6932H86.3134V33.3974H85.468V34.5521H86.3134V37.488H82.5387V37.3052" fill="#EDEDED"/>
<path d="M72.216 35.1213H73.2306V2.28119H72.216V35.1213Z" fill="white"/>
<path d="M69.3147 35.1213H72.2157V2.28119H69.3147V35.1213Z" fill="#EDEDED"/>
<path d="M73.2307 35.1213H76.1307V2.28119H73.2307V35.1213Z" fill="#EDEDED"/>
<path d="M77.1454 35.1213H80.0464V2.28119H77.1454V35.1213Z" fill="#EDEDED"/>
<path d="M32.8974 35.1213H33.9109V2.28119H32.8974V35.1213Z" fill="white"/>
<path d="M19.6733 2.2812L19.7013 35.1213Z" fill="white"/>
<path d="M19.6734 2.2812V35.1213L19.6454 2.2812" fill="white"/>
<path d="M19.7013 35.1213H21.1518V2.28119H19.7013V35.1213Z" fill="#EDEDED"/>
<path d="M33.9107 35.1213H35.3612V2.28119H33.9107V35.1213Z" fill="#EDEDED"/>
<path d="M21.152 35.1213H22.1671V2.28119H21.152V35.1213Z" fill="white"/>
<path d="M28.9827 35.1213H29.9962V2.28119H28.9827V35.1213Z" fill="white"/>
<path d="M25.0667 35.1213H26.0818V2.28119H25.0667V35.1213Z" fill="white"/>
<path d="M22.1667 35.1213H25.0661V2.28119H22.1667V35.1213Z" fill="#EDEDED"/>
<path d="M26.0813 35.1213H28.9824V2.28119H26.0813V35.1213Z" fill="#EDEDED"/>
<path d="M29.996 35.1213H32.897V2.28119H29.996V35.1213Z" fill="#EDEDED"/>
<path d="M17.1813 35.1213H18.1944V2.28119H17.1813V35.1213Z" fill="white"/>
<path d="M3.95734 2.2812L3.98533 35.1213Z" fill="white"/>
<path d="M3.95734 2.28121V37.488H1V1.00001H3.95734V1.43587" fill="#EDEDED"/>
<path d="M3.98532 35.1213H5.43636V2.28119H3.98532V35.1213Z" fill="#EDEDED"/>
<path d="M18.1947 35.1213H19.6457V2.28119H18.1947V35.1213Z" fill="#EDEDED"/>
<path d="M5.436 35.1213H6.44904V2.28119H5.436V35.1213Z" fill="white"/>
<path d="M13.2654 35.1213H14.2799V2.28119H13.2654V35.1213Z" fill="white"/>
<path d="M9.35068 35.1213H10.3653V2.28119H9.35068V35.1213Z" fill="white"/>
<path d="M6.44934 35.1213H9.3509V2.28119H6.44934V35.1213Z" fill="#EDEDED"/>
<path d="M10.3653 35.1213H13.2653V2.28119H10.3653V35.1213Z" fill="#EDEDED"/>
<path d="M14.28 35.1213H17.1815V2.28119H14.28V35.1213Z" fill="#EDEDED"/>
<path d="M64.3293 35.1213H65.3439V2.28119H64.3293V35.1213Z" fill="white"/>
<path d="M51.1347 35.1213H52.5852V2.28119H51.1347V35.1213Z" fill="#EDEDED"/>
<path d="M65.344 35.1213H66.7945V2.28119H65.344V35.1213Z" fill="#EDEDED"/>
<path d="M52.5853 35.1213H53.5989V2.28119H52.5853V35.1213Z" fill="white"/>
<path d="M60.4147 35.1213H61.4293V2.28119H60.4147V35.1213Z" fill="white"/>
<path d="M56.5 35.1213H57.5136V2.28119H56.5V35.1213Z" fill="white"/>
<path d="M53.5987 35.1213H56.4997V2.28119H53.5987V35.1213Z" fill="#EDEDED"/>
<path d="M57.5133 35.1213H60.4149V2.28119H57.5133V35.1213Z" fill="#EDEDED"/>
<path d="M61.4294 35.1213H64.3294V2.28119H61.4294V35.1213Z" fill="#EDEDED"/>
<path d="M48.6133 35.1213H49.628" stroke="black" stroke-width="0.00933333" stroke-miterlimit="10"/>
<path d="M35.3893 35.1213V2.2812" stroke="black" stroke-width="0.00933333" stroke-miterlimit="10"/>
<path d="M35.4187 35.1213V2.2812" stroke="black" stroke-width="0.004" stroke-miterlimit="10"/>
<path d="M51.0787 2.2812V35.1213" stroke="black" stroke-width="0.004" stroke-miterlimit="10"/>
<path d="M51.1067 2.2812V35.1213" stroke="black" stroke-width="0.00933333" stroke-miterlimit="10"/>
<path d="M36.868 35.1213H37.8827" stroke="black" stroke-width="0.00933333" stroke-miterlimit="10"/>
<path d="M35.4187 2.2812H36.868" stroke="black" stroke-width="0.00933333" stroke-miterlimit="10"/>
<path d="M44.6987 35.1213H45.712" stroke="black" stroke-width="0.00933333" stroke-miterlimit="10"/>
<path d="M49.628 2.2812H48.6133" stroke="black" stroke-width="0.00933333" stroke-miterlimit="10"/>
<path d="M45.712 2.2812H44.6987" stroke="black" stroke-width="0.00933333" stroke-miterlimit="10"/>
<path d="M51.0787 35.1213H49.628" stroke="black" stroke-width="0.00933333" stroke-miterlimit="10"/>
<path d="M41.7973 2.2812H40.784" stroke="black" stroke-width="0.00933333" stroke-miterlimit="10"/>
<path d="M36.868 35.1213H35.4187" stroke="black" stroke-width="0.00933333" stroke-miterlimit="10"/>
<path d="M36.868 2.2812H37.8827" stroke="black" stroke-width="0.00933333" stroke-miterlimit="10"/>
<path d="M36.868 35.1213V2.2812" stroke="black" stroke-width="0.004" stroke-miterlimit="10"/>
<path d="M37.8827 35.1213H40.784" stroke="black" stroke-width="0.00933333" stroke-miterlimit="10"/>
<path d="M37.8827 2.2812V35.1213" stroke="black" stroke-width="0.004" stroke-miterlimit="10"/>
<path d="M40.784 35.1213V2.2812" stroke="black" stroke-width="0.004" stroke-miterlimit="10"/>
<path d="M41.7973 2.2812V35.1213" stroke="black" stroke-width="0.004" stroke-miterlimit="10"/>
<path d="M41.7973 35.1213H40.784" stroke="black" stroke-width="0.00933333" stroke-miterlimit="10"/>
<path d="M40.784 2.2812H37.8827" stroke="black" stroke-width="0.00933333" stroke-miterlimit="10"/>
<path d="M45.712 2.2812V35.1213" stroke="black" stroke-width="0.004" stroke-miterlimit="10"/>
<path d="M44.6987 35.1213V2.2812" stroke="black" stroke-width="0.004" stroke-miterlimit="10"/>
<path d="M45.712 35.1213H48.6133" stroke="black" stroke-width="0.00933333" stroke-miterlimit="10"/>
<path d="M44.6987 35.1213H41.7973" stroke="black" stroke-width="0.00933333" stroke-miterlimit="10"/>
<path d="M44.6987 2.2812H41.7973" stroke="black" stroke-width="0.00933333" stroke-miterlimit="10"/>
<path d="M48.6133 35.1213V2.2812" stroke="black" stroke-width="0.004" stroke-miterlimit="10"/>
<path d="M49.628 2.2812V35.1213" stroke="black" stroke-width="0.004" stroke-miterlimit="10"/>
<path d="M48.6133 2.2812H45.712" stroke="black" stroke-width="0.00933333" stroke-miterlimit="10"/>
<path d="M49.628 2.2812H51.0787" stroke="black" stroke-width="0.00933333" stroke-miterlimit="10"/>
<path d="M80.0467 35.1213H81.06" stroke="black" stroke-width="0.00933333" stroke-miterlimit="10"/>
<path d="M66.8227 35.1213V2.2812" stroke="black" stroke-width="0.00933333" stroke-miterlimit="10"/>
<path d="M66.8507 35.1213V2.2812" stroke="black" stroke-width="0.004" stroke-miterlimit="10"/>
<path d="M82.5107 2.2812V35.1213" stroke="black" stroke-width="0.004" stroke-miterlimit="10"/>
<path d="M82.5387 2.2812V35.1213" stroke="black" stroke-width="0.00933333" stroke-miterlimit="10"/>
<path d="M68.3013 35.1213H69.3147" stroke="black" stroke-width="0.00933333" stroke-miterlimit="10"/>
<path d="M66.8507 2.2812H68.3013" stroke="black" stroke-width="0.00933333" stroke-miterlimit="10"/>
<path d="M76.1307 35.1213H77.1453" stroke="black" stroke-width="0.00933333" stroke-miterlimit="10"/>
<path d="M81.06 2.2812H80.0467" stroke="black" stroke-width="0.00933333" stroke-miterlimit="10"/>
<path d="M77.1453 2.2812H76.1307" stroke="black" stroke-width="0.00933333" stroke-miterlimit="10"/>
<path d="M82.5107 35.1213H81.06" stroke="black" stroke-width="0.00933333" stroke-miterlimit="10"/>
<path d="M73.2307 2.2812H72.216" stroke="black" stroke-width="0.00933333" stroke-miterlimit="10"/>
<path d="M68.3013 35.1213H66.8507" stroke="black" stroke-width="0.00933333" stroke-miterlimit="10"/>
<path d="M68.3013 2.2812H69.3147" stroke="black" stroke-width="0.00933333" stroke-miterlimit="10"/>
<path d="M68.3013 35.1213V2.2812" stroke="black" stroke-width="0.004" stroke-miterlimit="10"/>
<path d="M69.3147 35.1213H72.216" stroke="black" stroke-width="0.00933333" stroke-miterlimit="10"/>
<path d="M69.3147 2.2812V35.1213" stroke="black" stroke-width="0.004" stroke-miterlimit="10"/>
<path d="M72.216 35.1213V2.2812" stroke="black" stroke-width="0.004" stroke-miterlimit="10"/>
<path d="M73.2307 2.2812V35.1213" stroke="black" stroke-width="0.004" stroke-miterlimit="10"/>
<path d="M73.2307 35.1213H72.216" stroke="black" stroke-width="0.00933333" stroke-miterlimit="10"/>
<path d="M72.216 2.2812H69.3147" stroke="black" stroke-width="0.00933333" stroke-miterlimit="10"/>
<path d="M77.1454 2.2812V35.1213" stroke="black" stroke-width="0.004" stroke-miterlimit="10"/>
<path d="M76.1307 35.1213V2.2812" stroke="black" stroke-width="0.004" stroke-miterlimit="10"/>
<path d="M77.1454 35.1213H80.0467" stroke="black" stroke-width="0.00933333" stroke-miterlimit="10"/>
<path d="M76.1307 35.1213H73.2307" stroke="black" stroke-width="0.00933333" stroke-miterlimit="10"/>
<path d="M76.1307 2.2812H73.2307" stroke="black" stroke-width="0.00933333" stroke-miterlimit="10"/>
<path d="M80.0467 35.1213V2.2812" stroke="black" stroke-width="0.004" stroke-miterlimit="10"/>
<path d="M81.06 2.2812V35.1213" stroke="black" stroke-width="0.004" stroke-miterlimit="10"/>
<path d="M80.0467 2.2812H77.1454" stroke="black" stroke-width="0.00933333" stroke-miterlimit="10"/>
<path d="M81.06 2.2812H82.5107" stroke="black" stroke-width="0.00933333" stroke-miterlimit="10"/>
<path d="M32.8974 35.1213H33.9107" stroke="black" stroke-width="0.00933333" stroke-miterlimit="10"/>
<path d="M19.6733 35.1213V2.2812" stroke="black" stroke-width="0.00933333" stroke-miterlimit="10"/>
<path d="M19.7013 35.1213V2.2812" stroke="black" stroke-width="0.004" stroke-miterlimit="10"/>
<path d="M35.3614 2.2812V35.1213" stroke="black" stroke-width="0.004" stroke-miterlimit="10"/>
<path d="M21.152 35.1213H22.1667" stroke="black" stroke-width="0.00933333" stroke-miterlimit="10"/>
<path d="M19.7013 2.2812H21.152" stroke="black" stroke-width="0.00933333" stroke-miterlimit="10"/>
<path d="M28.9827 35.1213H29.996" stroke="black" stroke-width="0.00933333" stroke-miterlimit="10"/>
<path d="M33.9107 2.2812H32.8974" stroke="black" stroke-width="0.00933333" stroke-miterlimit="10"/>
<path d="M29.996 2.2812H28.9827" stroke="black" stroke-width="0.00933333" stroke-miterlimit="10"/>
<path d="M35.3613 35.1213H33.9107" stroke="black" stroke-width="0.00933333" stroke-miterlimit="10"/>
<path d="M26.0813 2.2812H25.0667" stroke="black" stroke-width="0.00933333" stroke-miterlimit="10"/>
<path d="M21.152 35.1213H19.7013" stroke="black" stroke-width="0.00933333" stroke-miterlimit="10"/>
<path d="M21.152 2.2812H22.1667" stroke="black" stroke-width="0.00933333" stroke-miterlimit="10"/>
<path d="M21.152 35.1213V2.2812" stroke="black" stroke-width="0.004" stroke-miterlimit="10"/>
<path d="M22.1667 35.1213H25.0667" stroke="black" stroke-width="0.00933333" stroke-miterlimit="10"/>
<path d="M22.1667 2.2812V35.1213" stroke="black" stroke-width="0.004" stroke-miterlimit="10"/>
<path d="M25.0667 35.1213V2.2812" stroke="black" stroke-width="0.004" stroke-miterlimit="10"/>
<path d="M26.0813 2.2812V35.1213" stroke="black" stroke-width="0.004" stroke-miterlimit="10"/>
<path d="M26.0813 35.1213H25.0667" stroke="black" stroke-width="0.00933333" stroke-miterlimit="10"/>
<path d="M25.0667 2.2812H22.1667" stroke="black" stroke-width="0.00933333" stroke-miterlimit="10"/>
<path d="M29.996 2.2812V35.1213" stroke="black" stroke-width="0.004" stroke-miterlimit="10"/>
<path d="M28.9827 35.1213V2.2812" stroke="black" stroke-width="0.004" stroke-miterlimit="10"/>
<path d="M29.996 35.1213H32.8973" stroke="black" stroke-width="0.00933333" stroke-miterlimit="10"/>
<path d="M28.9827 35.1213H26.0813" stroke="black" stroke-width="0.00933333" stroke-miterlimit="10"/>
<path d="M28.9827 2.2812H26.0813" stroke="black" stroke-width="0.00933333" stroke-miterlimit="10"/>
<path d="M32.8974 35.1213V2.2812" stroke="black" stroke-width="0.004" stroke-miterlimit="10"/>
<path d="M33.9107 2.2812V35.1213" stroke="black" stroke-width="0.004" stroke-miterlimit="10"/>
<path d="M32.8973 2.2812H29.996" stroke="black" stroke-width="0.00933333" stroke-miterlimit="10"/>
<path d="M33.9107 2.2812H35.3613" stroke="black" stroke-width="0.00933333" stroke-miterlimit="10"/>
<path d="M17.1813 35.1213H18.1947" stroke="black" stroke-width="0.00933333" stroke-miterlimit="10"/>
<path d="M3.95734 35.1213V2.2812" stroke="black" stroke-width="0.00933333" stroke-miterlimit="10"/>
<path d="M3.98532 35.1213V2.2812" stroke="black" stroke-width="0.004" stroke-miterlimit="10"/>
<path d="M19.6454 2.2812V35.1213" stroke="black" stroke-width="0.004" stroke-miterlimit="10"/>
<path d="M5.436 35.1213H6.44933" stroke="black" stroke-width="0.00933333" stroke-miterlimit="10"/>
<path d="M3.98532 2.2812H5.43599" stroke="black" stroke-width="0.00933333" stroke-miterlimit="10"/>
<path d="M13.2654 35.1213H14.28" stroke="black" stroke-width="0.00933333" stroke-miterlimit="10"/>
<path d="M18.1947 2.2812H17.1813" stroke="black" stroke-width="0.00933333" stroke-miterlimit="10"/>
<path d="M14.28 2.2812H13.2654" stroke="black" stroke-width="0.00933333" stroke-miterlimit="10"/>
<path d="M19.6453 35.1213H18.1947" stroke="black" stroke-width="0.00933333" stroke-miterlimit="10"/>
<path d="M10.3653 2.2812H9.35068" stroke="black" stroke-width="0.00933333" stroke-miterlimit="10"/>
<path d="M5.43599 35.1213H3.98532" stroke="black" stroke-width="0.00933333" stroke-miterlimit="10"/>
<path d="M5.436 2.2812H6.44933" stroke="black" stroke-width="0.00933333" stroke-miterlimit="10"/>
<path d="M5.436 35.1213V2.2812" stroke="black" stroke-width="0.004" stroke-miterlimit="10"/>
<path d="M6.44934 35.1213H9.35068" stroke="black" stroke-width="0.00933333" stroke-miterlimit="10"/>
<path d="M6.44934 2.2812V35.1213" stroke="black" stroke-width="0.004" stroke-miterlimit="10"/>
<path d="M9.35068 35.1213V2.2812" stroke="black" stroke-width="0.004" stroke-miterlimit="10"/>
<path d="M10.3653 2.2812V35.1213" stroke="black" stroke-width="0.004" stroke-miterlimit="10"/>
<path d="M10.3653 35.1213H9.35068" stroke="black" stroke-width="0.00933333" stroke-miterlimit="10"/>
<path d="M9.35068 2.2812H6.44934" stroke="black" stroke-width="0.00933333" stroke-miterlimit="10"/>
<path d="M14.28 2.2812V35.1213" stroke="black" stroke-width="0.004" stroke-miterlimit="10"/>
<path d="M13.2654 35.1213V2.2812" stroke="black" stroke-width="0.004" stroke-miterlimit="10"/>
<path d="M14.28 35.1213H17.1813" stroke="black" stroke-width="0.00933333" stroke-miterlimit="10"/>
<path d="M13.2653 35.1213H10.3653" stroke="black" stroke-width="0.00933333" stroke-miterlimit="10"/>
<path d="M13.2653 2.2812H10.3653" stroke="black" stroke-width="0.00933333" stroke-miterlimit="10"/>
<path d="M17.1813 35.1213V2.2812" stroke="black" stroke-width="0.004" stroke-miterlimit="10"/>
<path d="M18.1947 2.2812V35.1213" stroke="black" stroke-width="0.004" stroke-miterlimit="10"/>
<path d="M17.1813 2.2812H14.28" stroke="black" stroke-width="0.00933333" stroke-miterlimit="10"/>
<path d="M18.1947 2.2812H19.6453" stroke="black" stroke-width="0.00933333" stroke-miterlimit="10"/>
<path d="M64.3293 35.1213H65.344" stroke="black" stroke-width="0.00933333" stroke-miterlimit="10"/>
<path d="M51.1347 35.1213V2.2812" stroke="black" stroke-width="0.004" stroke-miterlimit="10"/>
<path d="M66.7947 2.2812V35.1213" stroke="black" stroke-width="0.004" stroke-miterlimit="10"/>
<path d="M52.5853 35.1213H53.5987" stroke="black" stroke-width="0.00933333" stroke-miterlimit="10"/>
<path d="M51.1347 2.2812H52.5853" stroke="black" stroke-width="0.00933333" stroke-miterlimit="10"/>
<path d="M60.4147 35.1213H61.4294" stroke="black" stroke-width="0.00933333" stroke-miterlimit="10"/>
<path d="M65.344 2.2812H64.3293" stroke="black" stroke-width="0.00933333" stroke-miterlimit="10"/>
<path d="M61.4294 2.2812H60.4147" stroke="black" stroke-width="0.00933333" stroke-miterlimit="10"/>
<path d="M66.7947 35.1213H65.344" stroke="black" stroke-width="0.00933333" stroke-miterlimit="10"/>
<path d="M57.5133 2.2812H56.5" stroke="black" stroke-width="0.00933333" stroke-miterlimit="10"/>
<path d="M52.5853 35.1213H51.1347" stroke="black" stroke-width="0.00933333" stroke-miterlimit="10"/>
<path d="M52.5853 2.2812H53.5987" stroke="black" stroke-width="0.00933333" stroke-miterlimit="10"/>
<path d="M52.5853 35.1213V2.2812" stroke="black" stroke-width="0.004" stroke-miterlimit="10"/>
<path d="M53.5987 35.1213H56.5" stroke="black" stroke-width="0.00933333" stroke-miterlimit="10"/>
<path d="M53.5987 2.2812V35.1213" stroke="black" stroke-width="0.004" stroke-miterlimit="10"/>
<path d="M56.5 35.1213V2.2812" stroke="black" stroke-width="0.004" stroke-miterlimit="10"/>
<path d="M57.5133 2.2812V35.1213" stroke="black" stroke-width="0.004" stroke-miterlimit="10"/>
<path d="M57.5133 35.1213H56.5" stroke="black" stroke-width="0.00933333" stroke-miterlimit="10"/>
<path d="M56.5 2.2812H53.5987" stroke="black" stroke-width="0.00933333" stroke-miterlimit="10"/>
<path d="M61.4294 2.2812V35.1213" stroke="black" stroke-width="0.004" stroke-miterlimit="10"/>
<path d="M60.4147 35.1213V2.2812" stroke="black" stroke-width="0.004" stroke-miterlimit="10"/>
<path d="M61.4294 35.1213H64.3294" stroke="black" stroke-width="0.00933333" stroke-miterlimit="10"/>
<path d="M60.4147 35.1213H57.5133" stroke="black" stroke-width="0.00933333" stroke-miterlimit="10"/>
<path d="M60.4147 2.2812H57.5133" stroke="black" stroke-width="0.00933333" stroke-miterlimit="10"/>
<path d="M64.3293 35.1213V2.2812" stroke="black" stroke-width="0.004" stroke-miterlimit="10"/>
<path d="M65.344 2.2812V35.1213" stroke="black" stroke-width="0.004" stroke-miterlimit="10"/>
<path d="M64.3294 2.2812H61.4294" stroke="black" stroke-width="0.00933333" stroke-miterlimit="10"/>
<path d="M65.344 2.2812H66.7947" stroke="black" stroke-width="0.00933333" stroke-miterlimit="10"/>
<path d="M3.95734 1.43587H82.5387" stroke="black" stroke-width="0.00933333" stroke-miterlimit="10"/>
<path d="M82.5387 1.43587V2.2812" stroke="black" stroke-width="0.00933333" stroke-miterlimit="10"/>
<path d="M3.95734 2.2812V1.43587" stroke="black" stroke-width="0.00933333" stroke-miterlimit="10"/>
<path d="M3.95734 37.488H1" stroke="black" stroke-width="0.00933333" stroke-miterlimit="10"/>
<path d="M1 37.488V1.00001" stroke="black" stroke-width="0.00933333" stroke-miterlimit="10"/>
<path d="M1 1H3.95734" stroke="black" stroke-width="0.00933333" stroke-miterlimit="10"/>
<path d="M82.5387 37.488H86.3134" stroke="black" stroke-width="0.00933333" stroke-miterlimit="10"/>
<path d="M86.3134 1H82.5387" stroke="black" stroke-width="0.00933333" stroke-miterlimit="10"/>
<path d="M86.3134 37.488V34.5521" stroke="black" stroke-width="0.00933333" stroke-miterlimit="10"/>
<path d="M86.3134 3.8224V1" stroke="black" stroke-width="0.00933333" stroke-miterlimit="10"/>
<path d="M86.3134 3.8224H85.468" stroke="black" stroke-width="0.00933333" stroke-miterlimit="10"/>
<path d="M85.468 3.8224V4.97707" stroke="black" stroke-width="0.00933333" stroke-miterlimit="10"/>
<path d="M85.468 4.97707H86.3134" stroke="black" stroke-width="0.00933333" stroke-miterlimit="10"/>
<path d="M85.468 13.6812V14.8359" stroke="black" stroke-width="0.00933333" stroke-miterlimit="10"/>
<path d="M85.468 14.8359H86.3134" stroke="black" stroke-width="0.00933333" stroke-miterlimit="10"/>
<path d="M86.3134 13.6812H85.468" stroke="black" stroke-width="0.00933333" stroke-miterlimit="10"/>
<path d="M86.3134 13.6812V4.97706" stroke="black" stroke-width="0.00933333" stroke-miterlimit="10"/>
<path d="M86.3134 23.5385H85.468" stroke="black" stroke-width="0.00933333" stroke-miterlimit="10"/>
<path d="M85.468 23.5385V24.6932" stroke="black" stroke-width="0.00933333" stroke-miterlimit="10"/>
<path d="M85.468 24.6932H86.3134" stroke="black" stroke-width="0.00933333" stroke-miterlimit="10"/>
<path d="M86.3134 23.5385V14.8359" stroke="black" stroke-width="0.00933333" stroke-miterlimit="10"/>
<path d="M85.468 33.3974V34.5521" stroke="black" stroke-width="0.00933333" stroke-miterlimit="10"/>
<path d="M85.468 34.5521H86.3134" stroke="black" stroke-width="0.00933333" stroke-miterlimit="10"/>
<path d="M86.3134 33.3974H85.468" stroke="black" stroke-width="0.00933333" stroke-miterlimit="10"/>
<path d="M86.3134 33.3974V24.6932" stroke="black" stroke-width="0.00933333" stroke-miterlimit="10"/>
<path d="M3.95734 37.3052V35.1213" stroke="black" stroke-width="0.00933333" stroke-miterlimit="10"/>
<path d="M82.5387 35.1213V37.3052" stroke="black" stroke-width="0.00933333" stroke-miterlimit="10"/>
<path d="M82.5387 37.3052H3.95734" stroke="black" stroke-width="0.00933333" stroke-miterlimit="10"/>
<path d="M3.95734 37.3052V37.488" stroke="black" stroke-width="0.00933333" stroke-miterlimit="10"/>
<path d="M82.5387 37.3052V37.488" stroke="black" stroke-width="0.00933333" stroke-miterlimit="10"/>
<path d="M3.95734 0.999999V1.43587" stroke="black" stroke-width="0.00933333" stroke-miterlimit="10"/>
<path d="M82.5387 0.999999V1.43587" stroke="black" stroke-width="0.00933333" stroke-miterlimit="10"/>
</svg>
