<svg width="87" height="36" viewBox="0 0 87 36" fill="none" xmlns="http://www.w3.org/2000/svg">
<path d="M86.3093 33.0505V35.3317H83.8027V33.0505H85.5067" fill="#EDEDED"/>
<path d="M83.8027 34.4453V35.2907H3.50681V34.4453H6.86414V34.712H21.5797H36.2975H51.0133H65.7293H80.4467V34.4453" fill="#EDEDED"/>
<path d="M6.86415 34.4453H3.50681V33.0505H1.04282V3.28119H3.50681V1.888H6.86415" fill="#EDEDED"/>
<path d="M83.8027 34.4453H80.4467V1.888H83.8027V3.28119H85.5067V33.0505H83.8027" fill="#EDEDED"/>
<path d="M3.5068 34.4453V35.2907L1 35.3317V33.0505H3.5068" fill="#EDEDED"/>
<path d="M36.2975 34.712H21.5797V1.6188H36.2975V34.712ZM22.2387 2.38653L22.2215 2.53332V33.7975L22.2387 33.9437L22.2933 34.0812L22.3829 34.1984L22.5011 34.288L22.6376 34.3427L22.7839 34.3599H23.3199L23.4667 34.3427L23.6027 34.288L23.7199 34.1984L23.8105 34.0812L23.8652 33.9437L23.8829 33.7975V2.53332L23.8652 2.38653L23.8105 2.24892L23.7199 2.13173L23.6027 2.04266L23.4667 1.98799L23.3199 1.97026H22.7839L22.6376 1.98799L22.5011 2.04266L22.3829 2.13173L22.2933 2.24892L22.2387 2.38653ZM31.0505 2.53332V33.7975L31.0677 33.9437L31.124 34.0812L31.2131 34.1984L31.3308 34.288L31.4677 34.3427L31.6147 34.3599H32.1496L32.2959 34.3427L32.4333 34.288L32.5505 34.1984L32.6401 34.0812L32.6959 33.9437L32.7131 33.7975V2.53332L32.6959 2.38653L32.6401 2.24892L32.5505 2.13173L32.4333 2.04266L32.2959 1.98799L32.1496 1.97026H31.6147L31.4677 1.98799L31.3308 2.04266L31.2131 2.13173L31.124 2.24892L31.0677 2.38653L31.0505 2.53332ZM34.1079 2.18799L34.0344 2.31559L33.9975 2.45986L33.9948 33.7975L34.012 33.9437L34.0667 34.0812L34.1557 34.1984L34.2735 34.288L34.4105 34.3427L34.5573 34.3599H35.0933L35.2401 34.3427L35.3761 34.288L35.4933 34.1984L35.5839 34.0812L35.6387 33.9437L35.6557 33.7975V2.53332L35.6387 2.38653L35.5839 2.24892L35.4933 2.13173L35.3761 2.04266L35.2401 1.98799L35.0933 1.97026H34.5573L34.4105 1.98799L34.2735 2.04266L34.1557 2.13173L34.1079 2.18799ZM28.1079 33.7975L28.1256 33.9437L28.1797 34.0812L28.2693 34.1984L28.3865 34.288L28.524 34.3427L28.6709 34.3599H29.2068L29.3532 34.3427L29.4891 34.288L29.6068 34.1984L29.6975 34.0812L29.7521 33.9437L29.7693 33.7975V2.53332L29.7521 2.38653L29.6975 2.24892L29.6068 2.13173L29.4891 2.04266L29.3532 1.98799L29.2068 1.97026H28.6709L28.524 1.98799L28.3865 2.04266L28.2693 2.13173L28.1797 2.24892L28.1256 2.38653L28.1079 2.53332V33.7975ZM25.6532 34.3573L26.2625 34.3599L26.4095 34.3427L26.5464 34.288L26.6641 34.1984L26.7532 34.0812L26.8095 33.9437L26.8267 33.7975V2.53332L26.8095 2.38653L26.7532 2.24892L26.6641 2.13173L26.5464 2.04266L26.4095 1.98799L26.2625 1.97026H25.7281L25.5813 1.98799L25.4439 2.04266L25.3267 2.13173L25.2376 2.24892L25.1813 2.38653L25.1641 2.53332V33.7975L25.1813 33.9437L25.2376 34.0812L25.3267 34.1984L25.4439 34.288L25.5813 34.3427" fill="#EDEDED"/>
<path d="M36.2975 1.61882H6.86414V1.88802H3.50681V1.04268H83.8027V1.88802H80.4467V1.61882H65.7293H51.0133" fill="#EDEDED"/>
<path d="M21.5797 34.712H6.86414V1.6188H21.5797V34.712ZM7.52147 2.38653L7.50427 2.53332V33.7975L7.52147 33.9437L7.57721 34.0812L7.66667 34.1984L7.78387 34.288L7.92147 34.3427L8.06773 34.3599H8.60267L8.7496 34.3427L8.88654 34.288L9.00427 34.1984L9.09333 34.0812L9.1496 33.9437L9.16667 33.7975V2.53332L9.1496 2.38653L9.09333 2.24892L9.00427 2.13173L8.88654 2.04266L8.7496 1.98799L8.60267 1.97026H8.06773L7.92147 1.98799L7.78387 2.04266L7.66667 2.13173L7.57721 2.24892L7.52147 2.38653ZM16.3344 2.53332V33.7975L16.3521 33.9437L16.4068 34.0812L16.4959 34.1984L16.6147 34.288L16.7505 34.3427L16.8975 34.3599H17.4333L17.5797 34.3427L17.7163 34.288L17.8344 34.1984L17.924 34.0812L17.9787 33.9437L17.9959 33.7975V2.53332L17.9787 2.38653L17.924 2.24892L17.8344 2.13173L17.7163 2.04266L17.5797 1.98799L17.4333 1.97026H16.8975L16.7505 1.98799L16.6147 2.04266L16.4959 2.13173L16.4068 2.24892L16.3521 2.38653L16.3344 2.53332ZM19.3907 2.18799L19.3188 2.31559L19.2813 2.45986L19.2772 33.7975L19.2948 33.9437L19.3505 34.0812L19.4401 34.1984L19.5573 34.288L19.6948 34.3427L19.8412 34.3599H20.3761L20.5224 34.3427L20.66 34.288L20.7772 34.1984L20.8667 34.0812L20.9224 33.9437L20.9401 33.7975V2.53332L20.9224 2.38653L20.8667 2.24892L20.7772 2.13173L20.66 2.04266L20.5224 1.98799L20.3761 1.97026H19.8412L19.6948 1.98799L19.5573 2.04266L19.4401 2.13173L19.3907 2.18799ZM13.3907 33.7975L13.4079 33.9437L13.4641 34.0812L13.5532 34.1984L13.6709 34.288L13.8079 34.3427L13.9548 34.3599H14.4891L14.636 34.3427L14.7735 34.288L14.8907 34.1984L14.9797 34.0812L15.036 33.9437L15.0532 33.7975V2.53332L15.036 2.38653L14.9797 2.24892L14.8907 2.13173L14.7735 2.04266L14.636 1.98799L14.4891 1.97026H13.9548L13.8079 1.98799L13.6709 2.04266L13.5532 2.13173L13.4641 2.24892L13.4079 2.38653L13.3907 2.53332V33.7975ZM10.9376 34.3573L11.5464 34.3599L11.6933 34.3427L11.8308 34.288L11.948 34.1984L12.0376 34.0812L12.0923 33.9437L12.1095 33.7975V2.53332L12.0923 2.38653L12.0376 2.24892L11.948 2.13173L11.8308 2.04266L11.6933 1.98799L11.5464 1.97026H11.0105L10.8641 1.98799L10.7281 2.04266L10.6105 2.13173L10.5199 2.24892L10.4652 2.38653L10.448 2.53332V33.7975L10.4652 33.9437L10.5199 34.0812L10.6105 34.1984L10.7281 34.288L10.8641 34.3427" fill="#EDEDED"/>
<path d="M36.2975 1.6188H51.0136V34.712H36.2975V1.6188ZM36.9548 2.38653L36.9376 2.53332V33.7975L36.9548 33.9437L37.0105 34.0812L37.1 34.1984L37.2172 34.288L37.3548 34.3427L37.5011 34.3599H38.036L38.1829 34.3427L38.3199 34.288L38.4376 34.1984L38.5267 34.0812L38.5829 33.9437L38.5985 33.7975V2.53332L38.5829 2.38653L38.5267 2.24892L38.4376 2.13173L38.3199 2.04266L38.1829 1.98799L38.036 1.97026H37.5011L37.3548 1.98799L37.2172 2.04266L37.1 2.13173L37.0105 2.24892L36.9548 2.38653ZM45.768 2.53332V33.7975L45.784 33.9437L45.84 34.0812L45.9293 34.1984L46.0467 34.288L46.184 34.3427L46.3307 34.3599H46.8653L47.012 34.3427L47.1493 34.288L47.2667 34.1984L47.356 34.0812L47.412 33.9437L47.4293 33.7975V2.53332L47.412 2.38653L47.356 2.24892L47.2667 2.13173L47.1493 2.04266L47.012 1.98799L46.8653 1.97026H46.3307L46.184 1.98799L46.0467 2.04266L45.9293 2.13173L45.84 2.24892L45.784 2.38653L45.768 2.53332ZM48.824 2.18799L48.7507 2.31559L48.7147 2.45986L48.7107 33.7975L48.728 33.9437L48.7827 34.0812L48.8733 34.1984L48.9907 34.288L49.1267 34.3427L49.2733 34.3599H49.8093L49.956 34.3427L50.0933 34.288L50.2107 34.1984L50.3 34.0812L50.3547 33.9437L50.372 33.7975V2.53332L50.3547 2.38653L50.3 2.24892L50.2107 2.13173L50.0933 2.04266L49.956 1.98799L49.8093 1.97026H49.2733L49.1267 1.98799L48.9907 2.04266L48.8733 2.13173L48.824 2.18799ZM42.824 33.7975L42.8412 33.9437L42.8959 34.0812L42.9865 34.1984L43.1043 34.288L43.2412 34.3427L43.3881 34.3599H43.9224L44.0693 34.3427L44.2067 34.288L44.324 34.1984L44.4133 34.0812L44.468 33.9437L44.4853 33.7975V2.53332L44.468 2.38653L44.4133 2.24892L44.324 2.13173L44.2067 2.04266L44.0693 1.98799L43.9224 1.97026H43.3881L43.2412 1.98799L43.1043 2.04266L42.9865 2.13173L42.8959 2.24892L42.8412 2.38653L42.824 2.53332V33.7975ZM40.3709 34.3573L40.9787 34.3599L41.1256 34.3427L41.2625 34.288L41.3797 34.1984L41.4709 34.0812L41.5256 33.9437L41.5428 33.7975V2.53332L41.5256 2.38653L41.4709 2.24892L41.3797 2.13173L41.2625 2.04266L41.1256 1.98799L40.9787 1.97026H40.4439L40.2975 1.98799L40.16 2.04266L40.0428 2.13173L39.9532 2.24892L39.8975 2.38653L39.8813 2.53332V33.7975L39.8975 33.9437L39.9532 34.0812L40.0428 34.1984L40.16 34.288L40.2975 34.3427" fill="#EDEDED"/>
<path d="M1 1H3.5068V3.2812H1.04281L1 1Z" fill="#EDEDED"/>
<path d="M83.8027 1.88801V1.04267L86.3093 1V3.2812H85.5067H83.8027" fill="#EDEDED"/>
<path d="M51.0133 1.6188H65.7289V34.712H51.0133V1.6188ZM51.6707 2.38653L51.6533 2.53332V33.7975L51.6707 33.9437L51.7267 34.0812L51.816 34.1984L51.9333 34.288L52.0707 34.3427L52.2173 34.3599H52.752L52.8987 34.3427L53.036 34.288L53.1533 34.1984L53.2427 34.0812L53.2987 33.9437L53.316 33.7975V2.53332L53.2987 2.38653L53.2427 2.24892L53.1533 2.13173L53.036 2.04266L52.8987 1.98799L52.752 1.97026H52.2173L52.0707 1.98799L51.9333 2.04266L51.816 2.13173L51.7267 2.24892L51.6707 2.38653ZM60.484 2.53332V33.7975L60.5013 33.9437L60.556 34.0812L60.6453 34.1984L60.764 34.288L60.9 34.3427L61.0467 34.3599H61.5827L61.7293 34.3427L61.8653 34.288L61.984 34.1984L62.0733 34.0812L62.128 33.9437L62.1453 33.7975V2.53332L62.128 2.38653L62.0733 2.24892L61.984 2.13173L61.8653 2.04266L61.7293 1.98799L61.5827 1.97026H61.0467L60.9 1.98799L60.764 2.04266L60.6453 2.13173L60.556 2.24892L60.5013 2.38653L60.484 2.53332ZM63.54 2.18799L63.468 2.31559L63.4307 2.45986L63.4267 33.7975L63.444 33.9437L63.5 34.0812L63.5893 34.1984L63.7067 34.288L63.844 34.3427L63.9907 34.3599H64.5253L64.672 34.3427L64.8093 34.288L64.9267 34.1984L65.016 34.0812L65.072 33.9437L65.0893 33.7975V2.53332L65.072 2.38653L65.016 2.24892L64.9267 2.13173L64.8093 2.04266L64.672 1.98799L64.5253 1.97026H63.9907L63.844 1.98799L63.7067 2.04266L63.5893 2.13173L63.54 2.18799ZM57.54 33.7975L57.5573 33.9437L57.6133 34.0812L57.7027 34.1984L57.82 34.288L57.9573 34.3427L58.104 34.3599H58.6387L58.7853 34.3427L58.9227 34.288L59.04 34.1984L59.1293 34.0812L59.1853 33.9437L59.2027 33.7975V2.53332L59.1853 2.38653L59.1293 2.24892L59.04 2.13173L58.9227 2.04266L58.7853 1.98799L58.6387 1.97026H58.104L57.9573 1.98799L57.82 2.04266L57.7027 2.13173L57.6133 2.24892L57.5573 2.38653L57.54 2.53332V33.7975ZM55.0867 34.3573L55.696 34.3599L55.8427 34.3427L55.98 34.288L56.0973 34.1984L56.1867 34.0812L56.2413 33.9437L56.2587 33.7975V2.53332L56.2413 2.38653L56.1867 2.24892L56.0973 2.13173L55.98 2.04266L55.8427 1.98799L55.696 1.97026H55.16L55.0133 1.98799L54.8773 2.04266L54.76 2.13173L54.6693 2.24892L54.6147 2.38653L54.5973 2.53332V33.7975L54.6147 33.9437L54.6693 34.0812L54.76 34.1984L54.8773 34.288L55.0133 34.3427" fill="#EDEDED"/>
<path d="M65.7293 1.6188H80.4465V34.712H65.7293V1.6188ZM66.388 2.38653L66.3707 2.53332V33.7975L66.388 33.9437L66.4427 34.0812L66.532 34.1984L66.6507 34.288L66.7867 34.3427L66.9333 34.3599H67.4693L67.616 34.3427L67.752 34.288L67.8707 34.1984L67.96 34.0812L68.0147 33.9437L68.032 33.7975V2.53332L68.0147 2.38653L67.96 2.24892L67.8707 2.13173L67.752 2.04266L67.616 1.98799L67.4693 1.97026H66.9333L66.7867 1.98799L66.6507 2.04266L66.532 2.13173L66.4427 2.24892L66.388 2.38653ZM75.2 2.53332V33.7975L75.2173 33.9437L75.2733 34.0812L75.3627 34.1984L75.48 34.288L75.6173 34.3427L75.764 34.3599H76.2987L76.4453 34.3427L76.5827 34.288L76.7 34.1984L76.7893 34.0812L76.8453 33.9437L76.8627 33.7975V2.53332L76.8453 2.38653L76.7893 2.24892L76.7 2.13173L76.5827 2.04266L76.4453 1.98799L76.2987 1.97026H75.764L75.6173 1.98799L75.48 2.04266L75.3627 2.13173L75.2733 2.24892L75.2173 2.38653L75.2 2.53332ZM78.2573 2.18799L78.184 2.31559L78.1467 2.45986L78.144 33.7975L78.1613 33.9437L78.216 34.0812L78.3053 34.1984L78.4227 34.288L78.56 34.3427L78.7067 34.3599H79.2427L79.3893 34.3427L79.5254 34.288L79.6427 34.1984L79.7333 34.0812L79.788 33.9437L79.8053 33.7975V2.53332L79.788 2.38653L79.7333 2.24892L79.6427 2.13173L79.5254 2.04266L79.3893 1.98799L79.2427 1.97026H78.7067L78.56 1.98799L78.4227 2.04266L78.3053 2.13173L78.2573 2.18799ZM72.2574 33.7975L72.2747 33.9437L72.3293 34.0812L72.4187 34.1984L72.536 34.288L72.6733 34.3427L72.82 34.3599H73.356L73.5027 34.3427L73.6387 34.288L73.756 34.1984L73.8467 34.0812L73.9013 33.9437L73.9187 33.7975V2.53332L73.9013 2.38653L73.8467 2.24892L73.756 2.13173L73.6387 2.04266L73.5027 1.98799L73.356 1.97026H72.82L72.6733 1.98799L72.536 2.04266L72.4187 2.13173L72.3293 2.24892L72.2747 2.38653L72.2574 2.53332V33.7975ZM69.8027 34.3573L70.412 34.3599L70.5587 34.3427L70.696 34.288L70.8133 34.1984L70.9027 34.0812L70.9587 33.9437L70.976 33.7975V2.53332L70.9587 2.38653L70.9027 2.24892L70.8133 2.13173L70.696 2.04266L70.5587 1.98799L70.412 1.97026H69.8774L69.7307 1.98799L69.5934 2.04266L69.476 2.13173L69.3867 2.24892L69.3307 2.38653L69.3133 2.53332V33.7975L69.3307 33.9437L69.3867 34.0812L69.476 34.1984L69.5934 34.288L69.7307 34.3427" fill="#EDEDED"/>
<path d="M22.2256 2.45987L22.2615 2.31559L22.3344 2.188L22.4387 2.08386L22.5667 2.01039L22.7105 1.97346L23.3199 1.97027L23.4667 1.988L23.6027 2.04266L23.7199 2.13173L23.8105 2.24893L23.8652 2.38653L23.8829 2.53333V33.7975L23.8652 33.9437L23.8105 34.0812L23.7199 34.1984L23.6027 34.288L23.4667 34.3427L23.3199 34.3599H22.7839L22.6376 34.3427L22.5011 34.288L22.3829 34.1984L22.2933 34.0812L22.2387 33.9437L22.2215 33.7975V2.53333L22.2256 2.45987ZM23.4787 33.8427L23.5401 33.7188L23.6933 32.924V3.4068L23.5496 2.65573L23.5053 2.52653L23.4147 2.4224L23.2907 2.36253L22.9043 2.35053L22.7693 2.37706L22.6548 2.4532L22.5787 2.56773L22.4105 3.4068V32.924L22.5548 33.6745L22.5985 33.8036L22.6891 33.9079L22.8131 33.9677L23.2 33.9797L23.3344 33.9532L23.4496 33.8771" fill="#EDEDED"/>
<path d="M23.5054 33.8036L23.4147 33.9079L23.2907 33.9677L22.9043 33.9797L22.7694 33.9532L22.6548 33.8771L22.5787 33.7625L22.4106 32.924V3.40681L22.5548 2.65574L22.5985 2.52654L22.6891 2.42241L22.8131 2.36254L23.2 2.35054L23.3344 2.37707L23.4496 2.45321L23.5256 2.56774L23.6933 3.40681V32.924L23.5496 33.6745" fill="white"/>
<path d="M31.0505 33.7975V2.53333L31.0677 2.38653L31.124 2.24893L31.2131 2.13173L31.3308 2.04266L31.4677 1.988L31.6147 1.97027H32.1496L32.2959 1.988L32.4333 2.04266L32.5505 2.13173L32.6401 2.24893L32.6959 2.38653L32.7131 2.53333V33.7975L32.6959 33.9437L32.6401 34.0812L32.5505 34.1984L32.4333 34.288L32.2959 34.3427L32.1496 34.3599H31.6147L31.4677 34.3427L31.3308 34.288L31.2131 34.1984L31.124 34.0812L31.0677 33.9437L31.0505 33.7975ZM31.3855 2.65573L31.2412 3.4068V32.924L31.3855 33.6745L31.4292 33.8036L31.5199 33.9079L31.6428 33.9677L32.0292 33.9797L32.1641 33.9532L32.2787 33.8771L32.3548 33.7625L32.5224 32.924V3.4068L32.3787 2.65573L32.3344 2.52653L32.2439 2.4224L32.1215 2.36253L31.7333 2.35053L31.5985 2.37706L31.4855 2.4532L31.4095 2.56773" fill="#EDEDED"/>
<path d="M34.0666 2.24893L34.1557 2.13173L34.2735 2.04266L34.4105 1.988L34.5573 1.97027H35.0933L35.2401 1.988L35.3761 2.04266L35.4933 2.13173L35.5839 2.24893L35.6387 2.38653L35.6557 2.53333V33.7975L35.6387 33.9437L35.5839 34.0812L35.4933 34.1984L35.3761 34.288L35.2401 34.3427L35.0933 34.3599H34.5573L34.4105 34.3427L34.2735 34.288L34.1557 34.1984L34.0666 34.0812L34.012 33.9437L33.9948 33.7975V2.53333L34.012 2.38653L34.0666 2.24893ZM35.3131 33.7188L35.4652 32.924V3.4068L35.3224 2.65573L35.2772 2.52653L35.1865 2.4224L35.0641 2.36253L34.6772 2.35053L34.5428 2.37706L34.4281 2.4532L34.3521 2.56773L34.1839 3.4068V32.924L34.3281 33.6745L34.372 33.8036L34.4625 33.9079L34.5865 33.9677L34.9735 33.9797L35.1079 33.9532L35.2214 33.8771L35.2985 33.7625" fill="#EDEDED"/>
<path d="M31.2412 3.40681L31.3855 2.65574L31.4292 2.52654L31.5199 2.42241L31.6428 2.36254L32.0292 2.35054L32.1641 2.37707L32.2787 2.45321L32.3548 2.56774L32.5224 3.40681V32.924L32.3787 33.6745L32.3344 33.8036L32.2439 33.9079L32.1215 33.9677L31.7333 33.9797L31.5985 33.9532L31.4855 33.8771L31.4095 33.7625L31.2412 32.924" fill="white"/>
<path d="M35.3224 33.6745L35.2772 33.8036L35.1865 33.9079L35.0641 33.9677L34.6772 33.9797L34.5428 33.9532L34.4281 33.8771L34.3521 33.7625L34.1839 32.924V3.40681L34.3281 2.65574L34.372 2.52654L34.4625 2.42241L34.5865 2.36254L34.9735 2.35054L35.1079 2.37707L35.2215 2.45321L35.2985 2.56774L35.4652 3.40681V32.924" fill="white"/>
<path d="M29.3907 2.52654L29.436 2.65574L29.5787 3.40681V32.924L29.436 33.6745L29.3907 33.8036L29.3011 33.9079L29.1772 33.9677L28.7907 33.9797L28.6557 33.9532L28.5412 33.8771L28.4652 33.7625L28.2975 32.924V3.40681L28.4412 2.65574L28.4855 2.52654L28.5761 2.42241L28.7 2.36254L29.0865 2.35054L29.2215 2.37707L29.336 2.45321" fill="white"/>
<path d="M28.1105 33.8703L28.1079 2.53333L28.1256 2.38653L28.1797 2.24893L28.2693 2.13173L28.3865 2.04266L28.524 1.988L28.6709 1.97027H29.2068L29.3532 1.988L29.4891 2.04266L29.6068 2.13173L29.6975 2.24893L29.7521 2.38653L29.7693 2.53333V33.7975L29.7521 33.9437L29.6975 34.0812L29.6068 34.1984L29.4891 34.288L29.3532 34.3427L29.2068 34.3599H28.6709L28.524 34.3427L28.3865 34.288L28.2693 34.1984L28.1797 34.0812L28.1256 33.9437L28.1105 33.8703ZM29.412 2.56773L29.336 2.4532L29.2215 2.37706L29.0865 2.35053H28.7907L28.6557 2.37706L28.5412 2.4532L28.4652 2.56773L28.2975 3.4068V32.924L28.4412 33.6745L28.4855 33.8036L28.5761 33.9079L28.7 33.9677L29.0865 33.9797L29.2215 33.9532L29.336 33.8771L29.412 33.7625L29.5787 32.924V3.4068L29.436 2.65573" fill="#EDEDED"/>
<path d="M26.3573 33.9079L26.2344 33.9677L25.848 33.9797L25.712 33.9532L25.5985 33.8771L25.5224 33.7625L25.3548 32.924V3.40681L25.4985 2.65574L25.5428 2.52654L25.6333 2.42241L25.7557 2.36254L26.1428 2.35054L26.2772 2.37707L26.3923 2.45321L26.4677 2.56774L26.636 3.40681V32.924L26.4923 33.6745L26.448 33.8036" fill="white"/>
<path d="M25.7282 34.3599L25.5814 34.3427L25.4439 34.288L25.3267 34.1984L25.2376 34.0812L25.1814 33.9437L25.1642 33.7975V2.53333L25.1814 2.38653L25.2376 2.24893L25.3267 2.13173L25.4439 2.04266L25.5814 1.988L25.7282 1.97027H26.2626L26.4095 1.988L26.5464 2.04266L26.6642 2.13173L26.7532 2.24893L26.8095 2.38653L26.8267 2.53333V33.7975L26.8095 33.9437L26.7532 34.0812L26.6642 34.1984L26.5464 34.288L26.4095 34.3427L26.2626 34.3599H25.7282ZM26.3188 33.9333L26.4224 33.8427L26.483 33.7188L26.636 32.924V3.4068L26.4923 2.65573L26.448 2.52653L26.3574 2.4224L26.2344 2.36253L25.848 2.35053L25.712 2.37706L25.5986 2.4532L25.5224 2.56773L25.3548 3.4068V32.924L25.4986 33.6745L25.5428 33.8036L25.6334 33.9079L25.7558 33.9677L26.1428 33.9797L26.2772 33.9532" fill="#EDEDED"/>
<path d="M7.50787 2.45987L7.54534 2.31559L7.6188 2.188L7.7224 2.08386L7.85054 2.01039L7.99333 1.97346L8.60267 1.97027L8.7496 1.988L8.88654 2.04266L9.00427 2.13173L9.09333 2.24893L9.1496 2.38653L9.16667 2.53333V33.7975L9.1496 33.9437L9.09333 34.0812L9.00427 34.1984L8.88654 34.288L8.7496 34.3427L8.60267 34.3599H8.06773L7.92147 34.3427L7.78387 34.288L7.66667 34.1984L7.57721 34.0812L7.52147 33.9437L7.50427 33.7975V2.53333L7.50787 2.45987ZM8.76253 33.8427L8.824 33.7188L8.97614 32.924V3.4068L8.83187 2.65573L8.78813 2.52653L8.69747 2.4224L8.57454 2.36253L8.18813 2.35053L8.05321 2.37706L7.93867 2.4532L7.86253 2.56773L7.6948 3.4068V32.924L7.83867 33.6745L7.88293 33.8036L7.97347 33.9079L8.09587 33.9677L8.48387 33.9797L8.6188 33.9532L8.73187 33.8771" fill="#EDEDED"/>
<path d="M8.78813 33.8036L8.69746 33.9079L8.57453 33.9677L8.18813 33.9797L8.0532 33.9532L7.93867 33.8771L7.86253 33.7625L7.69479 32.924V3.40681L7.83867 2.65574L7.88293 2.52654L7.97346 2.42241L8.09586 2.36254L8.48386 2.35054L8.61879 2.37707L8.73186 2.45321L8.80786 2.56774L8.97613 3.40681V32.924L8.83186 33.6745" fill="white"/>
<path d="M16.3344 33.7975V2.53333L16.3521 2.38653L16.4068 2.24893L16.4958 2.13173L16.6147 2.04266L16.7505 1.988L16.8975 1.97027H17.4333L17.5797 1.988L17.7162 2.04266L17.8344 2.13173L17.924 2.24893L17.9787 2.38653L17.9958 2.53333V33.7975L17.9787 33.9437L17.924 34.0812L17.8344 34.1984L17.7162 34.288L17.5797 34.3427L17.4333 34.3599H16.8975L16.7505 34.3427L16.6147 34.288L16.4958 34.1984L16.4068 34.0812L16.3521 33.9437L16.3344 33.7975ZM16.6677 2.65573L16.524 3.4068V32.924L16.6677 33.6745L16.712 33.8036L16.8027 33.9079L16.9266 33.9677L17.3131 33.9797L17.448 33.9532L17.5625 33.8771L17.6387 33.7625L17.8068 32.924V3.4068L17.6625 2.65573L17.6188 2.52653L17.5281 2.4224L17.4043 2.36253L17.0172 2.35053L16.8829 2.37706L16.7677 2.4532L16.6923 2.56773" fill="#EDEDED"/>
<path d="M19.3505 2.24893L19.4401 2.13173L19.5573 2.04266L19.6948 1.988L19.8412 1.97027H20.3761L20.5224 1.988L20.66 2.04266L20.7772 2.13173L20.8667 2.24893L20.9224 2.38653L20.9401 2.53333V33.7975L20.9224 33.9437L20.8667 34.0812L20.7772 34.1984L20.66 34.288L20.5224 34.3427L20.3761 34.3599H19.8412L19.6948 34.3427L19.5573 34.288L19.4401 34.1984L19.3505 34.0812L19.2948 33.9437L19.2772 33.7975V2.53333L19.2948 2.38653L19.3505 2.24893ZM20.5959 33.7188L20.7496 32.924V3.4068L20.6053 2.65573L20.5615 2.52653L20.4709 2.4224L20.348 2.36253L19.9615 2.35053L19.8267 2.37706L19.712 2.4532L19.636 2.56773L19.4677 3.4068V32.924L19.612 33.6745L19.6557 33.8036L19.7464 33.9079L19.8693 33.9677L20.2557 33.9797L20.3907 33.9532L20.5053 33.8771L20.5813 33.7625" fill="#EDEDED"/>
<path d="M16.524 3.40681L16.6678 2.65574L16.712 2.52654L16.8027 2.42241L16.9267 2.36254L17.3131 2.35054L17.448 2.37707L17.5626 2.45321L17.6387 2.56774L17.8068 3.40681V32.924L17.6626 33.6745L17.6188 33.8036L17.5282 33.9079L17.4043 33.9677L17.0172 33.9797L16.883 33.9532L16.7678 33.8771L16.6923 33.7625L16.524 32.924" fill="white"/>
<path d="M20.6053 33.6745L20.5615 33.8036L20.4709 33.9079L20.348 33.9677L19.9615 33.9797L19.8267 33.9532L19.712 33.8771L19.636 33.7625L19.4677 32.924V3.40681L19.612 2.65574L19.6557 2.52654L19.7464 2.42241L19.8693 2.36254L20.2557 2.35054L20.3907 2.37707L20.5053 2.45321L20.5813 2.56774L20.7496 3.40681V32.924" fill="white"/>
<path d="M14.6745 2.52654L14.7188 2.65574L14.8625 3.40681V32.924L14.7188 33.6745L14.6745 33.8036L14.5839 33.9079L14.4615 33.9677L14.0745 33.9797L13.9401 33.9532L13.8256 33.8771L13.7496 33.7625L13.5813 32.924V3.40681L13.7256 2.65574L13.7693 2.52654L13.86 2.42241L13.9829 2.36254L14.3693 2.35054L14.5043 2.37707L14.6188 2.45321" fill="white"/>
<path d="M13.3948 33.8703L13.3907 2.53333L13.4079 2.38653L13.4641 2.24893L13.5532 2.13173L13.6709 2.04266L13.8079 1.988L13.9548 1.97027H14.4891L14.636 1.988L14.7735 2.04266L14.8907 2.13173L14.9797 2.24893L15.036 2.38653L15.0532 2.53333V33.7975L15.036 33.9437L14.9797 34.0812L14.8907 34.1984L14.7735 34.288L14.636 34.3427L14.4891 34.3599H13.9548L13.8079 34.3427L13.6709 34.288L13.5532 34.1984L13.4641 34.0812L13.4079 33.9437L13.3948 33.8703ZM14.6948 2.56773L14.6188 2.4532L14.5043 2.37706L14.3693 2.35053H14.0745L13.9401 2.37706L13.8256 2.4532L13.7496 2.56773L13.5813 3.4068V32.924L13.7256 33.6745L13.7693 33.8036L13.86 33.9079L13.9829 33.9677L14.3693 33.9797L14.5043 33.9532L14.6188 33.8771L14.6948 33.7625L14.8625 32.924V3.4068L14.7188 2.65573" fill="#EDEDED"/>
<path d="M11.6412 33.9079L11.5172 33.9677L11.1308 33.9797L10.9959 33.9532L10.8813 33.8771L10.8053 33.7625L10.6387 32.924V3.40681L10.7813 2.65574L10.8267 2.52654L10.9163 2.42241L11.0401 2.36254L11.4267 2.35054L11.5615 2.37707L11.6761 2.45321L11.7521 2.56774L11.9199 3.40681V32.924L11.7761 33.6745L11.7319 33.8036" fill="white"/>
<path d="M11.0105 34.3599L10.8641 34.3427L10.7281 34.288L10.6105 34.1984L10.5199 34.0812L10.4652 33.9437L10.448 33.7975V2.53333L10.4652 2.38653L10.5199 2.24893L10.6105 2.13173L10.7281 2.04266L10.8641 1.988L11.0105 1.97027H11.5464L11.6933 1.988L11.8308 2.04266L11.948 2.13173L12.0376 2.24893L12.0923 2.38653L12.1095 2.53333V33.7975L12.0923 33.9437L12.0376 34.0812L11.948 34.1984L11.8308 34.288L11.6933 34.3427L11.5464 34.3599H11.0105ZM11.6027 33.9333L11.7053 33.8427L11.7667 33.7188L11.9199 32.924V3.4068L11.7761 2.65573L11.7319 2.52653L11.6412 2.4224L11.5172 2.36253L11.1308 2.35053L10.9959 2.37706L10.8813 2.4532L10.8053 2.56773L10.6387 3.4068V32.924L10.7813 33.6745L10.8267 33.8036L10.9163 33.9079L11.0401 33.9677L11.4267 33.9797L11.5615 33.9532" fill="#EDEDED"/>
<path d="M36.9412 2.45987L36.9772 2.31559L37.0505 2.188L37.1557 2.08386L37.2839 2.01039L37.4267 1.97346L38.036 1.97027L38.1829 1.988L38.3199 2.04266L38.4376 2.13173L38.5267 2.24893L38.5829 2.38653L38.5985 2.53333V33.7975L38.5829 33.9437L38.5267 34.0812L38.4376 34.1984L38.3199 34.288L38.1829 34.3427L38.036 34.3599H37.5011L37.3548 34.3427L37.2172 34.288L37.1 34.1984L37.0105 34.0812L36.9548 33.9437L36.9376 33.7975V2.53333L36.9412 2.45987ZM38.1959 33.8427L38.2557 33.7188L38.4095 32.924V3.4068L38.2652 2.65573L38.2215 2.52653L38.1308 2.4224L38.0079 2.36253L37.6199 2.35053L37.4855 2.37706L37.372 2.4532L37.2948 2.56773L37.1281 3.4068V32.924L37.272 33.6745L37.3163 33.8036L37.4068 33.9079L37.5292 33.9677L37.9163 33.9797L38.0505 33.9532L38.1652 33.8771" fill="#EDEDED"/>
<path d="M38.2215 33.8036L38.1308 33.9079L38.0079 33.9677L37.6199 33.9797L37.4855 33.9532L37.372 33.8771L37.2948 33.7625L37.1281 32.924V3.40681L37.272 2.65574L37.3163 2.52654L37.4068 2.42241L37.5292 2.36254L37.9163 2.35054L38.0505 2.37707L38.1652 2.45321L38.2412 2.56774L38.4095 3.40681V32.924L38.2652 33.6745" fill="white"/>
<path d="M45.768 33.7975V2.53333L45.784 2.38653L45.84 2.24893L45.9293 2.13173L46.0467 2.04266L46.184 1.988L46.3307 1.97027H46.8653L47.012 1.988L47.1493 2.04266L47.2667 2.13173L47.356 2.24893L47.412 2.38653L47.4293 2.53333V33.7975L47.412 33.9437L47.356 34.0812L47.2667 34.1984L47.1493 34.288L47.012 34.3427L46.8653 34.3599H46.3307L46.184 34.3427L46.0467 34.288L45.9293 34.1984L45.84 34.0812L45.784 33.9437L45.768 33.7975ZM46.1013 2.65573L45.9573 3.4068V32.924L46.1013 33.6745L46.1453 33.8036L46.236 33.9079L46.3587 33.9677L46.7467 33.9797L46.8813 33.9532L46.9947 33.8771L47.072 33.7625L47.2387 32.924V3.4068L47.0947 2.65573L47.0507 2.52653L46.96 2.4224L46.8373 2.36253L46.4507 2.35053L46.316 2.37706L46.2013 2.4532L46.1253 2.56773" fill="#EDEDED"/>
<path d="M48.7827 2.24893L48.8733 2.13173L48.9907 2.04266L49.1267 1.988L49.2733 1.97027H49.8093L49.956 1.988L50.0933 2.04266L50.2107 2.13173L50.3 2.24893L50.3547 2.38653L50.372 2.53333V33.7975L50.3547 33.9437L50.3 34.0812L50.2107 34.1984L50.0933 34.288L49.956 34.3427L49.8093 34.3599H49.2733L49.1267 34.3427L48.9907 34.288L48.8733 34.1984L48.7827 34.0812L48.728 33.9437L48.7107 33.7975V2.53333L48.728 2.38653L48.7827 2.24893ZM50.0293 33.7188L50.1827 32.924V3.4068L50.0387 2.65573L49.9946 2.52653L49.904 2.4224L49.78 2.36253L49.3933 2.35053L49.2587 2.37706L49.1453 2.4532L49.068 2.56773L48.9013 3.4068V32.924L49.044 33.6745L49.0893 33.8036L49.18 33.9079L49.3027 33.9677L49.6893 33.9797L49.824 33.9532L49.9387 33.8771L50.0147 33.7625" fill="#EDEDED"/>
<path d="M45.9573 3.40681L46.1013 2.65574L46.1453 2.52654L46.236 2.42241L46.3587 2.36254L46.7467 2.35054L46.8813 2.37707L46.9947 2.45321L47.072 2.56774L47.2387 3.40681V32.924L47.0947 33.6745L47.0507 33.8036L46.96 33.9079L46.8373 33.9677L46.4507 33.9797L46.316 33.9532L46.2013 33.8771L46.1253 33.7625L45.9573 32.924" fill="white"/>
<path d="M50.0387 33.6745L49.9947 33.8036L49.904 33.9079L49.78 33.9677L49.3933 33.9797L49.2587 33.9532L49.1453 33.8771L49.068 33.7625L48.9013 32.924V3.40681L49.044 2.65574L49.0893 2.52654L49.18 2.42241L49.3027 2.36254L49.6893 2.35054L49.824 2.37707L49.9387 2.45321L50.0147 2.56774L50.1827 3.40681V32.924" fill="white"/>
<path d="M44.108 2.52654L44.152 2.65574L44.296 3.40681V32.924L44.152 33.6745L44.108 33.8036L44.0173 33.9079L43.8933 33.9677L43.5068 33.9797L43.372 33.9532L43.2589 33.8771L43.1813 33.7625L43.0147 32.924V3.40681L43.1589 2.65574L43.2027 2.52654L43.2933 2.42241L43.4163 2.36254L43.8027 2.35054L43.9376 2.37707L44.052 2.45321" fill="white"/>
<path d="M42.8281 33.8703L42.824 2.53333L42.8412 2.38653L42.8959 2.24893L42.9865 2.13173L43.1043 2.04266L43.2412 1.988L43.3881 1.97027H43.9224L44.0693 1.988L44.2067 2.04266L44.324 2.13173L44.4133 2.24893L44.468 2.38653L44.4853 2.53333V33.7975L44.468 33.9437L44.4133 34.0812L44.324 34.1984L44.2067 34.288L44.0693 34.3427L43.9224 34.3599H43.3881L43.2412 34.3427L43.1043 34.288L42.9865 34.1984L42.8959 34.0812L42.8412 33.9437L42.8281 33.8703ZM44.128 2.56773L44.052 2.4532L43.9376 2.37706L43.8027 2.35053H43.5068L43.372 2.37706L43.2589 2.4532L43.1813 2.56773L43.0147 3.4068V32.924L43.1589 33.6745L43.2027 33.8036L43.2933 33.9079L43.4163 33.9677L43.8027 33.9797L43.9376 33.9532L44.052 33.8771L44.128 33.7625L44.296 32.924V3.4068L44.152 2.65573" fill="#EDEDED"/>
<path d="M41.0735 33.9079L40.9506 33.9677L40.5641 33.9797L40.4292 33.9532L40.3147 33.8771L40.2387 33.7625L40.071 32.924V3.40681L40.2147 2.65574L40.2589 2.52654L40.3496 2.42241L40.4735 2.36254L40.86 2.35054L40.9948 2.37707L41.1079 2.45321L41.1855 2.56774L41.3521 3.40681V32.924L41.2079 33.6745L41.1641 33.8036" fill="white"/>
<path d="M40.4439 34.3599L40.2975 34.3427L40.16 34.288L40.0428 34.1984L39.9532 34.0812L39.8975 33.9437L39.8813 33.7975V2.53333L39.8975 2.38653L39.9532 2.24893L40.0428 2.13173L40.16 2.04266L40.2975 1.988L40.4439 1.97027H40.9787L41.1256 1.988L41.2625 2.04266L41.3797 2.13173L41.4709 2.24893L41.5256 2.38653L41.5428 2.53333V33.7975L41.5256 33.9437L41.4709 34.0812L41.3797 34.1984L41.2625 34.288L41.1256 34.3427L40.9787 34.3599H40.4439ZM41.036 33.9333L41.1387 33.8427L41.2 33.7188L41.3521 32.924V3.4068L41.2079 2.65573L41.1641 2.52653L41.0735 2.4224L40.9505 2.36253L40.5641 2.35053L40.4292 2.37706L40.3147 2.4532L40.2387 2.56773L40.0709 3.4068V32.924L40.2147 33.6745L40.2589 33.8036L40.3496 33.9079L40.4735 33.9677L40.86 33.9797L40.9948 33.9532" fill="#EDEDED"/>
<path d="M51.6574 2.45987L51.6947 2.31559L51.768 2.188L51.872 2.08386L52 2.01039L52.144 1.97346L52.752 1.97027L52.8987 1.988L53.036 2.04266L53.1534 2.13173L53.2427 2.24893L53.2987 2.38653L53.316 2.53333V33.7975L53.2987 33.9437L53.2427 34.0812L53.1534 34.1984L53.036 34.288L52.8987 34.3427L52.752 34.3599H52.2173L52.0707 34.3427L51.9333 34.288L51.816 34.1984L51.7267 34.0812L51.6707 33.9437L51.6534 33.7975V2.53333L51.6574 2.45987ZM52.912 33.8427L52.9734 33.7188L53.1254 32.924V3.4068L52.9813 2.65573L52.9374 2.52653L52.8467 2.4224L52.724 2.36253L52.3374 2.35053L52.2027 2.37706L52.088 2.4532L52.012 2.56773L51.844 3.4068V32.924L51.988 33.6745L52.032 33.8036L52.1227 33.9079L52.2453 33.9677L52.6333 33.9797L52.768 33.9532L52.8813 33.8771" fill="#EDEDED"/>
<path d="M52.9374 33.8036L52.8467 33.9079L52.724 33.9677L52.3374 33.9797L52.2027 33.9532L52.088 33.8771L52.012 33.7625L51.844 32.924V3.40681L51.988 2.65574L52.032 2.52654L52.1227 2.42241L52.2453 2.36254L52.6333 2.35054L52.768 2.37707L52.8813 2.45321L52.9574 2.56774L53.1254 3.40681V32.924L52.9813 33.6745" fill="white"/>
<path d="M60.484 33.7975V2.53333L60.5013 2.38653L60.556 2.24893L60.6453 2.13173L60.764 2.04266L60.9 1.988L61.0467 1.97027H61.5827L61.7293 1.988L61.8653 2.04266L61.984 2.13173L62.0733 2.24893L62.128 2.38653L62.1453 2.53333V33.7975L62.128 33.9437L62.0733 34.0812L61.984 34.1984L61.8653 34.288L61.7293 34.3427L61.5827 34.3599H61.0467L60.9 34.3427L60.764 34.288L60.6453 34.1984L60.556 34.0812L60.5013 33.9437L60.484 33.7975ZM60.8173 2.65573L60.6733 3.4068V32.924L60.8173 33.6745L60.8613 33.8036L60.952 33.9079L61.076 33.9677L61.4627 33.9797L61.5973 33.9532L61.712 33.8771L61.788 33.7625L61.956 32.924V3.4068L61.812 2.65573L61.768 2.52653L61.6774 2.4224L61.5533 2.36253L61.1667 2.35053L61.032 2.37706L60.9173 2.4532L60.8413 2.56773" fill="#EDEDED"/>
<path d="M63.5 2.24893L63.5893 2.13173L63.7067 2.04266L63.844 1.988L63.9907 1.97027H64.5253L64.672 1.988L64.8093 2.04266L64.9267 2.13173L65.016 2.24893L65.072 2.38653L65.0893 2.53333V33.7975L65.072 33.9437L65.016 34.0812L64.9267 34.1984L64.8093 34.288L64.672 34.3427L64.5253 34.3599H63.9907L63.844 34.3427L63.7067 34.288L63.5893 34.1984L63.5 34.0812L63.444 33.9437L63.4267 33.7975V2.53333L63.444 2.38653L63.5 2.24893ZM64.7453 33.7188L64.8987 32.924V3.4068L64.7547 2.65573L64.7107 2.52653L64.62 2.4224L64.4973 2.36253L64.1107 2.35053L63.976 2.37706L63.8613 2.4532L63.7853 2.56773L63.6173 3.4068V32.924L63.7613 33.6745L63.8053 33.8036L63.896 33.9079L64.0187 33.9677L64.4053 33.9797L64.54 33.9532L64.6547 33.8771L64.7307 33.7625" fill="#EDEDED"/>
<path d="M60.6733 3.40681L60.8173 2.65574L60.8613 2.52654L60.952 2.42241L61.076 2.36254L61.4627 2.35054L61.5973 2.37707L61.712 2.45321L61.788 2.56774L61.956 3.40681V32.924L61.812 33.6745L61.768 33.8036L61.6773 33.9079L61.5533 33.9677L61.1667 33.9797L61.032 33.9532L60.9173 33.8771L60.8413 33.7625L60.6733 32.924" fill="white"/>
<path d="M64.7547 33.6745L64.7107 33.8036L64.62 33.9079L64.4973 33.9677L64.1107 33.9797L63.976 33.9532L63.8613 33.8771L63.7853 33.7625L63.6173 32.924V3.40681L63.7613 2.65574L63.8053 2.52654L63.896 2.42241L64.0187 2.36254L64.4053 2.35054L64.54 2.37707L64.6547 2.45321L64.7307 2.56774L64.8987 3.40681V32.924" fill="white"/>
<path d="M58.824 2.52654L58.868 2.65574L59.012 3.40681V32.924L58.868 33.6745L58.824 33.8036L58.7334 33.9079L58.6107 33.9677L58.224 33.9797L58.0894 33.9532L57.9747 33.8771L57.8987 33.7625L57.7307 32.924V3.40681L57.8747 2.65574L57.9187 2.52654L58.0094 2.42241L58.132 2.36254L58.5187 2.35054L58.6547 2.37707L58.768 2.45321" fill="white"/>
<path d="M57.544 33.8703L57.54 2.53333L57.5573 2.38653L57.6133 2.24893L57.7027 2.13173L57.82 2.04266L57.9573 1.988L58.104 1.97027H58.6387L58.7853 1.988L58.9227 2.04266L59.04 2.13173L59.1293 2.24893L59.1853 2.38653L59.2027 2.53333V33.7975L59.1853 33.9437L59.1293 34.0812L59.04 34.1984L58.9227 34.288L58.7853 34.3427L58.6387 34.3599H58.104L57.9573 34.3427L57.82 34.288L57.7027 34.1984L57.6133 34.0812L57.5573 33.9437L57.544 33.8703ZM58.844 2.56773L58.768 2.4532L58.6547 2.37706L58.5187 2.35053H58.224L58.0893 2.37706L57.9747 2.4532L57.8987 2.56773L57.7307 3.4068V32.924L57.8747 33.6745L57.9187 33.8036L58.0093 33.9079L58.132 33.9677L58.5187 33.9797L58.6547 33.9532L58.768 33.8771L58.844 33.7625L59.012 32.924V3.4068L58.868 2.65573" fill="#EDEDED"/>
<path d="M55.7907 33.9079L55.6667 33.9677L55.28 33.9797L55.1453 33.9532L55.0307 33.8771L54.9547 33.7625L54.788 32.924V3.40681L54.9307 2.65574L54.976 2.52654L55.0653 2.42241L55.1893 2.36254L55.576 2.35054L55.7107 2.37707L55.8253 2.45321L55.9013 2.56774L56.0693 3.40681V32.924L55.9253 33.6745L55.8813 33.8036" fill="white"/>
<path d="M55.16 34.3599L55.0133 34.3427L54.8773 34.288L54.76 34.1984L54.6693 34.0812L54.6147 33.9437L54.5973 33.7975V2.53333L54.6147 2.38653L54.6693 2.24893L54.76 2.13173L54.8773 2.04266L55.0133 1.988L55.16 1.97027H55.696L55.8427 1.988L55.98 2.04266L56.0973 2.13173L56.1867 2.24893L56.2413 2.38653L56.2587 2.53333V33.7975L56.2413 33.9437L56.1867 34.0812L56.0973 34.1984L55.98 34.288L55.8427 34.3427L55.696 34.3599H55.16ZM55.752 33.9333L55.8547 33.8427L55.916 33.7188L56.0693 32.924V3.4068L55.9253 2.65573L55.8813 2.52653L55.7907 2.4224L55.6667 2.36253L55.28 2.35053L55.1453 2.37706L55.0307 2.4532L54.9547 2.56773L54.788 3.4068V32.924L54.9307 33.6745L54.976 33.8036L55.0653 33.9079L55.1893 33.9677L55.576 33.9797L55.7107 33.9532" fill="#EDEDED"/>
<path d="M66.3747 2.45987L66.4107 2.31559L66.484 2.188L66.588 2.08386L66.716 2.01039L66.86 1.97346L67.4693 1.97027L67.616 1.988L67.752 2.04266L67.8707 2.13173L67.96 2.24893L68.0147 2.38653L68.032 2.53333V33.7975L68.0147 33.9437L67.96 34.0812L67.8707 34.1984L67.752 34.288L67.616 34.3427L67.4693 34.3599H66.9333L66.7867 34.3427L66.6507 34.288L66.532 34.1984L66.4427 34.0812L66.388 33.9437L66.3707 33.7975V2.53333L66.3747 2.45987ZM67.628 33.8427L67.6893 33.7188L67.8427 32.924V3.4068L67.6987 2.65573L67.6547 2.52653L67.564 2.4224L67.44 2.36253L67.0533 2.35053L66.9187 2.37706L66.804 2.4532L66.728 2.56773L66.56 3.4068V32.924L66.704 33.6745L66.748 33.8036L66.8387 33.9079L66.9627 33.9677L67.3493 33.9797L67.484 33.9532L67.5987 33.8771" fill="#EDEDED"/>
<path d="M67.6547 33.8036L67.564 33.9079L67.44 33.9677L67.0534 33.9797L66.9187 33.9532L66.804 33.8771L66.728 33.7625L66.56 32.924V3.40681L66.704 2.65574L66.748 2.52654L66.8387 2.42241L66.9627 2.36254L67.3494 2.35054L67.484 2.37707L67.5987 2.45321L67.6747 2.56774L67.8427 3.40681V32.924L67.6987 33.6745" fill="white"/>
<path d="M75.2 33.7975V2.53333L75.2173 2.38653L75.2733 2.24893L75.3626 2.13173L75.48 2.04266L75.6173 1.988L75.764 1.97027H76.2986L76.4453 1.988L76.5826 2.04266L76.7 2.13173L76.7893 2.24893L76.8453 2.38653L76.8626 2.53333V33.7975L76.8453 33.9437L76.7893 34.0812L76.7 34.1984L76.5826 34.288L76.4453 34.3427L76.2986 34.3599H75.764L75.6173 34.3427L75.48 34.288L75.3626 34.1984L75.2733 34.0812L75.2173 33.9437L75.2 33.7975ZM75.5346 2.65573L75.3907 3.4068V32.924L75.5346 33.6745L75.5786 33.8036L75.6693 33.9079L75.792 33.9677L76.1786 33.9797L76.3133 33.9532L76.428 33.8771L76.504 33.7625L76.672 32.924V3.4068L76.528 2.65573L76.484 2.52653L76.3933 2.4224L76.2707 2.36253L75.8826 2.35053L75.748 2.37706L75.6346 2.4532L75.5587 2.56773" fill="#EDEDED"/>
<path d="M78.216 2.24893L78.3053 2.13173L78.4227 2.04266L78.56 1.988L78.7067 1.97027H79.2427L79.3893 1.988L79.5253 2.04266L79.6427 2.13173L79.7333 2.24893L79.788 2.38653L79.8053 2.53333V33.7975L79.788 33.9437L79.7333 34.0812L79.6427 34.1984L79.5253 34.288L79.3893 34.3427L79.2427 34.3599H78.7067L78.56 34.3427L78.4227 34.288L78.3053 34.1984L78.216 34.0812L78.1613 33.9437L78.144 33.7975V2.53333L78.1613 2.38653L78.216 2.24893ZM79.4627 33.7188L79.6147 32.924V3.4068L79.472 2.65573L79.4267 2.52653L79.336 2.4224L79.2133 2.36253L78.8267 2.35053L78.692 2.37706L78.5773 2.4532L78.5013 2.56773L78.3333 3.4068V32.924L78.4773 33.6745L78.5213 33.8036L78.612 33.9079L78.736 33.9677L79.1227 33.9797L79.2573 33.9532L79.3707 33.8771L79.448 33.7625" fill="#EDEDED"/>
<path d="M75.3907 3.40681L75.5346 2.65574L75.5786 2.52654L75.6693 2.42241L75.792 2.36254L76.1786 2.35054L76.3133 2.37707L76.428 2.45321L76.504 2.56774L76.672 3.40681V32.924L76.528 33.6745L76.484 33.8036L76.3933 33.9079L76.2707 33.9677L75.8826 33.9797L75.748 33.9532L75.6346 33.8771L75.5587 33.7625L75.3907 32.924" fill="white"/>
<path d="M79.472 33.6745L79.4267 33.8036L79.336 33.9079L79.2133 33.9677L78.8267 33.9797L78.692 33.9532L78.5774 33.8771L78.5013 33.7625L78.3333 32.924V3.40681L78.4774 2.65574L78.5213 2.52654L78.612 2.42241L78.736 2.36254L79.1227 2.35054L79.2574 2.37707L79.3707 2.45321L79.448 2.56774L79.6147 3.40681V32.924" fill="white"/>
<path d="M73.54 2.52654L73.5853 2.65574L73.728 3.40681V32.924L73.5853 33.6745L73.54 33.8036L73.4507 33.9079L73.3267 33.9677L72.94 33.9797L72.8053 33.9532L72.6907 33.8771L72.6147 33.7625L72.4467 32.924V3.40681L72.5907 2.65574L72.6347 2.52654L72.7253 2.42241L72.8493 2.36254L73.236 2.35054L73.3707 2.37707L73.4853 2.45321" fill="white"/>
<path d="M72.2613 33.8703L72.2574 2.53333L72.2747 2.38653L72.3293 2.24893L72.4187 2.13173L72.536 2.04266L72.6734 1.988L72.82 1.97027H73.356L73.5027 1.988L73.6387 2.04266L73.756 2.13173L73.8467 2.24893L73.9013 2.38653L73.9187 2.53333V33.7975L73.9013 33.9437L73.8467 34.0812L73.756 34.1984L73.6387 34.288L73.5027 34.3427L73.356 34.3599H72.82L72.6734 34.3427L72.536 34.288L72.4187 34.1984L72.3293 34.0812L72.2747 33.9437L72.2613 33.8703ZM73.5613 2.56773L73.4853 2.4532L73.3707 2.37706L73.236 2.35053H72.94L72.8054 2.37706L72.6907 2.4532L72.6147 2.56773L72.4467 3.4068V32.924L72.5907 33.6745L72.6347 33.8036L72.7254 33.9079L72.8493 33.9677L73.236 33.9797L73.3707 33.9532L73.4853 33.8771L73.5613 33.7625L73.728 32.924V3.4068L73.5853 2.65573" fill="#EDEDED"/>
<path d="M70.5067 33.9079L70.384 33.9677L69.9973 33.9797L69.8613 33.9532L69.748 33.8771L69.672 33.7625L69.504 32.924V3.40681L69.648 2.65574L69.692 2.52654L69.7827 2.42241L69.9053 2.36254L70.292 2.35054L70.4267 2.37707L70.5413 2.45321L70.6173 2.56774L70.7853 3.40681V32.924L70.6413 33.6745L70.5973 33.8036" fill="white"/>
<path d="M69.8773 34.3599L69.7307 34.3427L69.5933 34.288L69.476 34.1984L69.3867 34.0812L69.3307 33.9437L69.3133 33.7975V2.53333L69.3307 2.38653L69.3867 2.24893L69.476 2.13173L69.5933 2.04266L69.7307 1.988L69.8773 1.97027H70.412L70.5587 1.988L70.696 2.04266L70.8133 2.13173L70.9027 2.24893L70.9587 2.38653L70.976 2.53333V33.7975L70.9587 33.9437L70.9027 34.0812L70.8133 34.1984L70.696 34.288L70.5587 34.3427L70.412 34.3599H69.8773ZM70.468 33.9333L70.572 33.8427L70.632 33.7188L70.7853 32.924V3.4068L70.6413 2.65573L70.5973 2.52653L70.5067 2.4224L70.384 2.36253L69.9973 2.35053L69.8613 2.37706L69.748 2.4532L69.672 2.56773L69.504 3.4068V32.924L69.648 33.6745L69.692 33.8036L69.7827 33.9079L69.9053 33.9677L70.292 33.9797L70.4267 33.9532" fill="#EDEDED"/>
<path d="M86.3094 35.3317V33.0505" stroke="black" stroke-width="0.00933333" stroke-miterlimit="10"/>
<path d="M3.50681 34.4453H6.86414" stroke="black" stroke-width="0.004" stroke-miterlimit="10"/>
<path d="M83.8027 34.4453V35.2907" stroke="black" stroke-width="0.004" stroke-miterlimit="10"/>
<path d="M3.50681 35.2907H83.8027" stroke="black" stroke-width="0.00933333" stroke-miterlimit="10"/>
<path d="M80.4467 34.4453H83.8027" stroke="black" stroke-width="0.004" stroke-miterlimit="10"/>
<path d="M3.50681 35.2907V34.4453" stroke="black" stroke-width="0.004" stroke-miterlimit="10"/>
<path d="M31.0505 2.53334V33.7975" stroke="black" stroke-width="0.004" stroke-miterlimit="10"/>
<path d="M32.1496 34.3599H31.6147" stroke="black" stroke-width="0.004" stroke-miterlimit="10"/>
<path d="M32.7131 33.7975V2.53334" stroke="black" stroke-width="0.004" stroke-miterlimit="10"/>
<path d="M31.6147 1.97028H32.1496" stroke="black" stroke-width="0.004" stroke-miterlimit="10"/>
<path d="M31.3855 2.65575L31.2412 3.40681" stroke="black" stroke-width="0.004" stroke-miterlimit="10"/>
<path d="M32.0292 2.35054H31.7333" stroke="black" stroke-width="0.004" stroke-miterlimit="10"/>
<path d="M32.3787 2.65575L32.5224 3.40681" stroke="black" stroke-width="0.004" stroke-miterlimit="10"/>
<path d="M32.3787 33.6745L32.5224 32.924" stroke="black" stroke-width="0.004" stroke-miterlimit="10"/>
<path d="M31.7333 33.9797H32.0292" stroke="black" stroke-width="0.004" stroke-miterlimit="10"/>
<path d="M31.3855 33.6745L31.2412 32.924" stroke="black" stroke-width="0.004" stroke-miterlimit="10"/>
<path d="M23.2 2.35054H22.9043" stroke="black" stroke-width="0.004" stroke-miterlimit="10"/>
<path d="M23.5496 2.65575L23.6933 3.40681" stroke="black" stroke-width="0.004" stroke-miterlimit="10"/>
<path d="M22.9043 33.9797H23.2" stroke="black" stroke-width="0.004" stroke-miterlimit="10"/>
<path d="M23.5496 33.6745L23.6933 32.924" stroke="black" stroke-width="0.004" stroke-miterlimit="10"/>
<path d="M22.5548 33.6745L22.4106 32.924" stroke="black" stroke-width="0.004" stroke-miterlimit="10"/>
<path d="M23.3199 34.3599H22.7839" stroke="black" stroke-width="0.004" stroke-miterlimit="10"/>
<path d="M34.6772 33.9797H34.9735" stroke="black" stroke-width="0.004" stroke-miterlimit="10"/>
<path d="M22.7839 1.97028H23.3199" stroke="black" stroke-width="0.004" stroke-miterlimit="10"/>
<path d="M22.2215 2.53334V33.7975" stroke="black" stroke-width="0.004" stroke-miterlimit="10"/>
<path d="M33.9948 2.53334V33.7975" stroke="black" stroke-width="0.004" stroke-miterlimit="10"/>
<path d="M28.6709 1.97028H29.2068" stroke="black" stroke-width="0.004" stroke-miterlimit="10"/>
<path d="M29.436 33.6745L29.5787 32.924" stroke="black" stroke-width="0.004" stroke-miterlimit="10"/>
<path d="M28.4412 33.6745L28.2975 32.924" stroke="black" stroke-width="0.004" stroke-miterlimit="10"/>
<path d="M29.436 2.65575L29.5787 3.40681" stroke="black" stroke-width="0.004" stroke-miterlimit="10"/>
<path d="M28.7907 33.9797H29.0866" stroke="black" stroke-width="0.004" stroke-miterlimit="10"/>
<path d="M29.0866 2.35054H28.7907" stroke="black" stroke-width="0.004" stroke-miterlimit="10"/>
<path d="M35.0933 34.3599H34.5573" stroke="black" stroke-width="0.004" stroke-miterlimit="10"/>
<path d="M29.7693 33.7975V2.53334" stroke="black" stroke-width="0.004" stroke-miterlimit="10"/>
<path d="M28.4412 2.65575L28.2975 3.40681" stroke="black" stroke-width="0.004" stroke-miterlimit="10"/>
<path d="M28.1079 2.53334V33.7975" stroke="black" stroke-width="0.004" stroke-miterlimit="10"/>
<path d="M34.3281 33.6745L34.1839 32.924" stroke="black" stroke-width="0.004" stroke-miterlimit="10"/>
<path d="M29.2068 34.3599H28.6709" stroke="black" stroke-width="0.004" stroke-miterlimit="10"/>
<path d="M21.5797 34.712H36.2975" stroke="black" stroke-width="0.00933333" stroke-miterlimit="10"/>
<path d="M26.2625 34.3599H25.7281" stroke="black" stroke-width="0.004" stroke-miterlimit="10"/>
<path d="M25.848 33.9797H26.1428" stroke="black" stroke-width="0.004" stroke-miterlimit="10"/>
<path d="M26.4923 33.6745L26.636 32.924" stroke="black" stroke-width="0.004" stroke-miterlimit="10"/>
<path d="M25.4985 33.6745L25.3548 32.924" stroke="black" stroke-width="0.004" stroke-miterlimit="10"/>
<path d="M25.1642 2.53334V33.7975" stroke="black" stroke-width="0.004" stroke-miterlimit="10"/>
<path d="M35.3224 33.6745L35.4652 32.924" stroke="black" stroke-width="0.004" stroke-miterlimit="10"/>
<path d="M22.5548 2.65575L22.4106 3.40681" stroke="black" stroke-width="0.004" stroke-miterlimit="10"/>
<path d="M23.8829 33.7975V2.53334" stroke="black" stroke-width="0.004" stroke-miterlimit="10"/>
<path d="M36.2975 1.61882H21.5797" stroke="black" stroke-width="0.00933333" stroke-miterlimit="10"/>
<path d="M21.5797 1.6188V34.712" stroke="black" stroke-width="0.00933333" stroke-miterlimit="10"/>
<path d="M36.2975 34.712V1.6188" stroke="black" stroke-width="0.00933333" stroke-miterlimit="10"/>
<path d="M34.5573 1.97028H35.0933" stroke="black" stroke-width="0.004" stroke-miterlimit="10"/>
<path d="M35.6557 33.7975V2.53334" stroke="black" stroke-width="0.004" stroke-miterlimit="10"/>
<path d="M25.7281 1.97028H26.2625" stroke="black" stroke-width="0.004" stroke-miterlimit="10"/>
<path d="M26.8267 33.7975V2.53334" stroke="black" stroke-width="0.004" stroke-miterlimit="10"/>
<path d="M26.4923 2.65575L26.636 3.40681" stroke="black" stroke-width="0.004" stroke-miterlimit="10"/>
<path d="M26.1428 2.35054H25.848" stroke="black" stroke-width="0.004" stroke-miterlimit="10"/>
<path d="M35.3224 2.65575L35.4652 3.40681" stroke="black" stroke-width="0.004" stroke-miterlimit="10"/>
<path d="M34.9735 2.35054H34.6772" stroke="black" stroke-width="0.004" stroke-miterlimit="10"/>
<path d="M34.3281 2.65575L34.1839 3.40681" stroke="black" stroke-width="0.004" stroke-miterlimit="10"/>
<path d="M25.4985 2.65575L25.3548 3.40681" stroke="black" stroke-width="0.004" stroke-miterlimit="10"/>
<path d="M16.3344 2.53334V33.7975" stroke="black" stroke-width="0.004" stroke-miterlimit="10"/>
<path d="M17.4333 34.3599H16.8975" stroke="black" stroke-width="0.004" stroke-miterlimit="10"/>
<path d="M17.9959 33.7975V2.53334" stroke="black" stroke-width="0.004" stroke-miterlimit="10"/>
<path d="M16.8975 1.97028H17.4333" stroke="black" stroke-width="0.004" stroke-miterlimit="10"/>
<path d="M16.6678 2.65575L16.524 3.40681" stroke="black" stroke-width="0.004" stroke-miterlimit="10"/>
<path d="M17.3131 2.35054H17.0172" stroke="black" stroke-width="0.004" stroke-miterlimit="10"/>
<path d="M17.6625 2.65575L17.8068 3.40681" stroke="black" stroke-width="0.004" stroke-miterlimit="10"/>
<path d="M17.6625 33.6745L17.8068 32.924" stroke="black" stroke-width="0.004" stroke-miterlimit="10"/>
<path d="M17.0172 33.9797H17.3131" stroke="black" stroke-width="0.004" stroke-miterlimit="10"/>
<path d="M16.6678 33.6745L16.524 32.924" stroke="black" stroke-width="0.004" stroke-miterlimit="10"/>
<path d="M8.48388 2.35054H8.18814" stroke="black" stroke-width="0.004" stroke-miterlimit="10"/>
<path d="M8.83188 2.65575L8.97615 3.40681" stroke="black" stroke-width="0.004" stroke-miterlimit="10"/>
<path d="M8.18814 33.9797H8.48388" stroke="black" stroke-width="0.004" stroke-miterlimit="10"/>
<path d="M8.83188 33.6745L8.97615 32.924" stroke="black" stroke-width="0.004" stroke-miterlimit="10"/>
<path d="M7.83867 33.6745L7.69479 32.924" stroke="black" stroke-width="0.004" stroke-miterlimit="10"/>
<path d="M8.60265 34.3599H8.06772" stroke="black" stroke-width="0.004" stroke-miterlimit="10"/>
<path d="M19.9615 33.9797H20.2557" stroke="black" stroke-width="0.004" stroke-miterlimit="10"/>
<path d="M8.06772 1.97028H8.60265" stroke="black" stroke-width="0.004" stroke-miterlimit="10"/>
<path d="M7.50427 2.53334V33.7975" stroke="black" stroke-width="0.004" stroke-miterlimit="10"/>
<path d="M19.2772 2.53334V33.7975" stroke="black" stroke-width="0.004" stroke-miterlimit="10"/>
<path d="M13.9548 1.97028H14.4891" stroke="black" stroke-width="0.004" stroke-miterlimit="10"/>
<path d="M14.7188 33.6745L14.8625 32.924" stroke="black" stroke-width="0.004" stroke-miterlimit="10"/>
<path d="M13.7256 33.6745L13.5813 32.924" stroke="black" stroke-width="0.004" stroke-miterlimit="10"/>
<path d="M14.7188 2.65575L14.8625 3.40681" stroke="black" stroke-width="0.004" stroke-miterlimit="10"/>
<path d="M14.0746 33.9797H14.3694" stroke="black" stroke-width="0.004" stroke-miterlimit="10"/>
<path d="M14.3694 2.35054H14.0746" stroke="black" stroke-width="0.004" stroke-miterlimit="10"/>
<path d="M20.3762 34.3599H19.8412" stroke="black" stroke-width="0.004" stroke-miterlimit="10"/>
<path d="M15.0532 33.7975V2.53334" stroke="black" stroke-width="0.004" stroke-miterlimit="10"/>
<path d="M13.7256 2.65575L13.5813 3.40681" stroke="black" stroke-width="0.004" stroke-miterlimit="10"/>
<path d="M13.3907 2.53334V33.7975" stroke="black" stroke-width="0.004" stroke-miterlimit="10"/>
<path d="M19.612 33.6745L19.4677 32.924" stroke="black" stroke-width="0.004" stroke-miterlimit="10"/>
<path d="M14.4891 34.3599H13.9548" stroke="black" stroke-width="0.004" stroke-miterlimit="10"/>
<path d="M6.86414 34.712H21.5797" stroke="black" stroke-width="0.00933333" stroke-miterlimit="10"/>
<path d="M11.5464 34.3599H11.0105" stroke="black" stroke-width="0.004" stroke-miterlimit="10"/>
<path d="M11.1308 33.9797H11.4267" stroke="black" stroke-width="0.004" stroke-miterlimit="10"/>
<path d="M11.7762 33.6745L11.9199 32.924" stroke="black" stroke-width="0.004" stroke-miterlimit="10"/>
<path d="M10.7813 33.6745L10.6387 32.924" stroke="black" stroke-width="0.004" stroke-miterlimit="10"/>
<path d="M10.448 2.53334V33.7975" stroke="black" stroke-width="0.004" stroke-miterlimit="10"/>
<path d="M20.6053 33.6745L20.7496 32.924" stroke="black" stroke-width="0.004" stroke-miterlimit="10"/>
<path d="M7.83867 2.65575L7.69479 3.40681" stroke="black" stroke-width="0.004" stroke-miterlimit="10"/>
<path d="M9.16666 33.7975V2.53334" stroke="black" stroke-width="0.004" stroke-miterlimit="10"/>
<path d="M21.5797 1.61882H6.86414" stroke="black" stroke-width="0.00933333" stroke-miterlimit="10"/>
<path d="M19.8412 1.97028H20.3762" stroke="black" stroke-width="0.004" stroke-miterlimit="10"/>
<path d="M20.9402 33.7975V2.53334" stroke="black" stroke-width="0.004" stroke-miterlimit="10"/>
<path d="M11.0105 1.97028H11.5464" stroke="black" stroke-width="0.004" stroke-miterlimit="10"/>
<path d="M12.1095 33.7975V2.53334" stroke="black" stroke-width="0.004" stroke-miterlimit="10"/>
<path d="M11.7762 2.65575L11.9199 3.40681" stroke="black" stroke-width="0.004" stroke-miterlimit="10"/>
<path d="M11.4267 2.35054H11.1308" stroke="black" stroke-width="0.004" stroke-miterlimit="10"/>
<path d="M20.6053 2.65575L20.7496 3.40681" stroke="black" stroke-width="0.004" stroke-miterlimit="10"/>
<path d="M20.2557 2.35054H19.9615" stroke="black" stroke-width="0.004" stroke-miterlimit="10"/>
<path d="M19.612 2.65575L19.4677 3.40681" stroke="black" stroke-width="0.004" stroke-miterlimit="10"/>
<path d="M10.7813 2.65575L10.6387 3.40681" stroke="black" stroke-width="0.004" stroke-miterlimit="10"/>
<path d="M3.5068 1H1" stroke="black" stroke-width="0.00933333" stroke-miterlimit="10"/>
<path d="M3.50681 1.04268H83.8027" stroke="black" stroke-width="0.00933333" stroke-miterlimit="10"/>
<path d="M3.50681 1.88802H6.86414" stroke="black" stroke-width="0.004" stroke-miterlimit="10"/>
<path d="M83.8027 35.3317H86.3093" stroke="black" stroke-width="0.00933333" stroke-miterlimit="10"/>
<path d="M1.04282 3.2812V33.0505" stroke="black" stroke-width="0.00933333" stroke-miterlimit="10"/>
<path d="M83.8027 1.88802V1.04268" stroke="black" stroke-width="0.004" stroke-miterlimit="10"/>
<path d="M1 35.3317H3.5068" stroke="black" stroke-width="0.00933333" stroke-miterlimit="10"/>
<path d="M3.50681 1.04268V1.88802" stroke="black" stroke-width="0.004" stroke-miterlimit="10"/>
<path d="M80.4467 1.88802H83.8027" stroke="black" stroke-width="0.004" stroke-miterlimit="10"/>
<path d="M83.8027 1.88801V3.2812" stroke="black" stroke-width="0.004" stroke-miterlimit="10"/>
<path d="M83.8027 3.2812H85.5067" stroke="black" stroke-width="0.004" stroke-miterlimit="10"/>
<path d="M85.5067 3.2812H86.3094" stroke="black" stroke-width="0.00933333" stroke-miterlimit="10"/>
<path d="M86.3094 3.2812V1" stroke="black" stroke-width="0.00933333" stroke-miterlimit="10"/>
<path d="M86.3093 1H83.8027" stroke="black" stroke-width="0.00933333" stroke-miterlimit="10"/>
<path d="M45.768 2.53334V33.7975" stroke="black" stroke-width="0.004" stroke-miterlimit="10"/>
<path d="M46.8653 34.3599H46.3307" stroke="black" stroke-width="0.004" stroke-miterlimit="10"/>
<path d="M47.4293 33.7975V2.53334" stroke="black" stroke-width="0.004" stroke-miterlimit="10"/>
<path d="M46.3307 1.97028H46.8653" stroke="black" stroke-width="0.004" stroke-miterlimit="10"/>
<path d="M46.1013 2.65575L45.9573 3.40681" stroke="black" stroke-width="0.004" stroke-miterlimit="10"/>
<path d="M46.7467 2.35054H46.4507" stroke="black" stroke-width="0.004" stroke-miterlimit="10"/>
<path d="M47.0947 2.65575L47.2387 3.40681" stroke="black" stroke-width="0.004" stroke-miterlimit="10"/>
<path d="M47.0947 33.6745L47.2387 32.924" stroke="black" stroke-width="0.004" stroke-miterlimit="10"/>
<path d="M46.4507 33.9797H46.7467" stroke="black" stroke-width="0.004" stroke-miterlimit="10"/>
<path d="M46.1013 33.6745L45.9573 32.924" stroke="black" stroke-width="0.004" stroke-miterlimit="10"/>
<path d="M37.9163 2.35054H37.6199" stroke="black" stroke-width="0.004" stroke-miterlimit="10"/>
<path d="M38.2652 2.65575L38.4095 3.40681" stroke="black" stroke-width="0.004" stroke-miterlimit="10"/>
<path d="M37.6199 33.9797H37.9163" stroke="black" stroke-width="0.004" stroke-miterlimit="10"/>
<path d="M38.2652 33.6745L38.4095 32.924" stroke="black" stroke-width="0.004" stroke-miterlimit="10"/>
<path d="M37.272 33.6745L37.1281 32.924" stroke="black" stroke-width="0.004" stroke-miterlimit="10"/>
<path d="M38.036 34.3599H37.5011" stroke="black" stroke-width="0.004" stroke-miterlimit="10"/>
<path d="M49.3933 33.9797H49.6893" stroke="black" stroke-width="0.004" stroke-miterlimit="10"/>
<path d="M37.5011 1.97028H38.036" stroke="black" stroke-width="0.004" stroke-miterlimit="10"/>
<path d="M36.9376 2.53334V33.7975" stroke="black" stroke-width="0.004" stroke-miterlimit="10"/>
<path d="M48.7107 2.53334V33.7975" stroke="black" stroke-width="0.004" stroke-miterlimit="10"/>
<path d="M43.3882 1.97028H43.9224" stroke="black" stroke-width="0.004" stroke-miterlimit="10"/>
<path d="M44.152 33.6745L44.296 32.924" stroke="black" stroke-width="0.004" stroke-miterlimit="10"/>
<path d="M43.1589 33.6745L43.0147 32.924" stroke="black" stroke-width="0.004" stroke-miterlimit="10"/>
<path d="M44.152 2.65575L44.296 3.40681" stroke="black" stroke-width="0.004" stroke-miterlimit="10"/>
<path d="M43.5068 33.9797H43.8027" stroke="black" stroke-width="0.004" stroke-miterlimit="10"/>
<path d="M43.8027 2.35054H43.5068" stroke="black" stroke-width="0.004" stroke-miterlimit="10"/>
<path d="M49.8093 34.3599H49.2733" stroke="black" stroke-width="0.004" stroke-miterlimit="10"/>
<path d="M44.4853 33.7975V2.53334" stroke="black" stroke-width="0.004" stroke-miterlimit="10"/>
<path d="M43.1589 2.65575L43.0147 3.40681" stroke="black" stroke-width="0.004" stroke-miterlimit="10"/>
<path d="M42.824 2.53334V33.7975" stroke="black" stroke-width="0.004" stroke-miterlimit="10"/>
<path d="M49.044 33.6745L48.9013 32.924" stroke="black" stroke-width="0.004" stroke-miterlimit="10"/>
<path d="M43.9224 34.3599H43.3882" stroke="black" stroke-width="0.004" stroke-miterlimit="10"/>
<path d="M36.2975 34.712H51.0133" stroke="black" stroke-width="0.00933333" stroke-miterlimit="10"/>
<path d="M40.9787 34.3599H40.4439" stroke="black" stroke-width="0.004" stroke-miterlimit="10"/>
<path d="M40.5641 33.9797H40.86" stroke="black" stroke-width="0.004" stroke-miterlimit="10"/>
<path d="M41.2079 33.6745L41.3521 32.924" stroke="black" stroke-width="0.004" stroke-miterlimit="10"/>
<path d="M40.2147 33.6745L40.071 32.924" stroke="black" stroke-width="0.004" stroke-miterlimit="10"/>
<path d="M39.8813 2.53334V33.7975" stroke="black" stroke-width="0.004" stroke-miterlimit="10"/>
<path d="M50.0387 33.6745L50.1827 32.924" stroke="black" stroke-width="0.004" stroke-miterlimit="10"/>
<path d="M37.272 2.65575L37.1281 3.40681" stroke="black" stroke-width="0.004" stroke-miterlimit="10"/>
<path d="M38.5985 33.7975V2.53334" stroke="black" stroke-width="0.004" stroke-miterlimit="10"/>
<path d="M51.0133 1.61882H36.2975" stroke="black" stroke-width="0.00933333" stroke-miterlimit="10"/>
<path d="M51.0133 34.712V1.6188" stroke="black" stroke-width="0.00933333" stroke-miterlimit="10"/>
<path d="M49.2733 1.97028H49.8093" stroke="black" stroke-width="0.004" stroke-miterlimit="10"/>
<path d="M50.372 33.7975V2.53334" stroke="black" stroke-width="0.004" stroke-miterlimit="10"/>
<path d="M40.4439 1.97028H40.9787" stroke="black" stroke-width="0.004" stroke-miterlimit="10"/>
<path d="M41.5428 33.7975V2.53334" stroke="black" stroke-width="0.004" stroke-miterlimit="10"/>
<path d="M41.2079 2.65575L41.3521 3.40681" stroke="black" stroke-width="0.004" stroke-miterlimit="10"/>
<path d="M40.86 2.35054H40.5641" stroke="black" stroke-width="0.004" stroke-miterlimit="10"/>
<path d="M50.0387 2.65575L50.1827 3.40681" stroke="black" stroke-width="0.004" stroke-miterlimit="10"/>
<path d="M49.6893 2.35054H49.3933" stroke="black" stroke-width="0.004" stroke-miterlimit="10"/>
<path d="M49.044 2.65575L48.9013 3.40681" stroke="black" stroke-width="0.004" stroke-miterlimit="10"/>
<path d="M40.2147 2.65575L40.071 3.40681" stroke="black" stroke-width="0.004" stroke-miterlimit="10"/>
<path d="M60.484 2.53334V33.7975" stroke="black" stroke-width="0.004" stroke-miterlimit="10"/>
<path d="M61.5827 34.3599H61.0467" stroke="black" stroke-width="0.004" stroke-miterlimit="10"/>
<path d="M62.1453 33.7975V2.53334" stroke="black" stroke-width="0.004" stroke-miterlimit="10"/>
<path d="M61.0467 1.97028H61.5827" stroke="black" stroke-width="0.004" stroke-miterlimit="10"/>
<path d="M60.8173 2.65575L60.6733 3.40681" stroke="black" stroke-width="0.004" stroke-miterlimit="10"/>
<path d="M61.4627 2.35054H61.1667" stroke="black" stroke-width="0.004" stroke-miterlimit="10"/>
<path d="M61.812 2.65575L61.956 3.40681" stroke="black" stroke-width="0.004" stroke-miterlimit="10"/>
<path d="M61.812 33.6745L61.956 32.924" stroke="black" stroke-width="0.004" stroke-miterlimit="10"/>
<path d="M61.1667 33.9797H61.4627" stroke="black" stroke-width="0.004" stroke-miterlimit="10"/>
<path d="M60.8173 33.6745L60.6733 32.924" stroke="black" stroke-width="0.004" stroke-miterlimit="10"/>
<path d="M52.6333 2.35054H52.3373" stroke="black" stroke-width="0.004" stroke-miterlimit="10"/>
<path d="M52.9813 2.65575L53.1253 3.40681" stroke="black" stroke-width="0.004" stroke-miterlimit="10"/>
<path d="M52.3373 33.9797H52.6333" stroke="black" stroke-width="0.004" stroke-miterlimit="10"/>
<path d="M52.9813 33.6745L53.1253 32.924" stroke="black" stroke-width="0.004" stroke-miterlimit="10"/>
<path d="M51.988 33.6745L51.844 32.924" stroke="black" stroke-width="0.004" stroke-miterlimit="10"/>
<path d="M52.752 34.3599H52.2173" stroke="black" stroke-width="0.004" stroke-miterlimit="10"/>
<path d="M64.1107 33.9797H64.4053" stroke="black" stroke-width="0.004" stroke-miterlimit="10"/>
<path d="M52.2173 1.97028H52.752" stroke="black" stroke-width="0.004" stroke-miterlimit="10"/>
<path d="M51.6534 2.53334V33.7975" stroke="black" stroke-width="0.004" stroke-miterlimit="10"/>
<path d="M63.4267 2.53334V33.7975" stroke="black" stroke-width="0.004" stroke-miterlimit="10"/>
<path d="M58.104 1.97028H58.6387" stroke="black" stroke-width="0.004" stroke-miterlimit="10"/>
<path d="M58.868 33.6745L59.012 32.924" stroke="black" stroke-width="0.004" stroke-miterlimit="10"/>
<path d="M57.8747 33.6745L57.7307 32.924" stroke="black" stroke-width="0.004" stroke-miterlimit="10"/>
<path d="M58.868 2.65575L59.012 3.40681" stroke="black" stroke-width="0.004" stroke-miterlimit="10"/>
<path d="M58.224 33.9797H58.5187" stroke="black" stroke-width="0.004" stroke-miterlimit="10"/>
<path d="M58.5187 2.35054H58.224" stroke="black" stroke-width="0.004" stroke-miterlimit="10"/>
<path d="M64.5254 34.3599H63.9907" stroke="black" stroke-width="0.004" stroke-miterlimit="10"/>
<path d="M59.2027 33.7975V2.53334" stroke="black" stroke-width="0.004" stroke-miterlimit="10"/>
<path d="M57.8747 2.65575L57.7307 3.40681" stroke="black" stroke-width="0.004" stroke-miterlimit="10"/>
<path d="M57.54 2.53334V33.7975" stroke="black" stroke-width="0.004" stroke-miterlimit="10"/>
<path d="M63.7613 33.6745L63.6173 32.924" stroke="black" stroke-width="0.004" stroke-miterlimit="10"/>
<path d="M58.6387 34.3599H58.104" stroke="black" stroke-width="0.004" stroke-miterlimit="10"/>
<path d="M51.0133 34.712H65.7293" stroke="black" stroke-width="0.00933333" stroke-miterlimit="10"/>
<path d="M55.696 34.3599H55.16" stroke="black" stroke-width="0.004" stroke-miterlimit="10"/>
<path d="M55.28 33.9797H55.576" stroke="black" stroke-width="0.004" stroke-miterlimit="10"/>
<path d="M55.9253 33.6745L56.0693 32.924" stroke="black" stroke-width="0.004" stroke-miterlimit="10"/>
<path d="M54.9307 33.6745L54.788 32.924" stroke="black" stroke-width="0.004" stroke-miterlimit="10"/>
<path d="M54.5973 2.53334V33.7975" stroke="black" stroke-width="0.004" stroke-miterlimit="10"/>
<path d="M64.7547 33.6745L64.8987 32.924" stroke="black" stroke-width="0.004" stroke-miterlimit="10"/>
<path d="M51.988 2.65575L51.844 3.40681" stroke="black" stroke-width="0.004" stroke-miterlimit="10"/>
<path d="M53.316 33.7975V2.53334" stroke="black" stroke-width="0.004" stroke-miterlimit="10"/>
<path d="M65.7293 1.61882H51.0133" stroke="black" stroke-width="0.00933333" stroke-miterlimit="10"/>
<path d="M65.7293 34.712V1.6188" stroke="black" stroke-width="0.00933333" stroke-miterlimit="10"/>
<path d="M63.9907 1.97028H64.5254" stroke="black" stroke-width="0.004" stroke-miterlimit="10"/>
<path d="M65.0893 33.7975V2.53334" stroke="black" stroke-width="0.004" stroke-miterlimit="10"/>
<path d="M55.16 1.97028H55.696" stroke="black" stroke-width="0.004" stroke-miterlimit="10"/>
<path d="M56.2587 33.7975V2.53334" stroke="black" stroke-width="0.004" stroke-miterlimit="10"/>
<path d="M55.9253 2.65575L56.0693 3.40681" stroke="black" stroke-width="0.004" stroke-miterlimit="10"/>
<path d="M55.576 2.35054H55.28" stroke="black" stroke-width="0.004" stroke-miterlimit="10"/>
<path d="M64.7547 2.65575L64.8987 3.40681" stroke="black" stroke-width="0.004" stroke-miterlimit="10"/>
<path d="M64.4053 2.35054H64.1107" stroke="black" stroke-width="0.004" stroke-miterlimit="10"/>
<path d="M63.7613 2.65575L63.6173 3.40681" stroke="black" stroke-width="0.004" stroke-miterlimit="10"/>
<path d="M54.9307 2.65575L54.788 3.40681" stroke="black" stroke-width="0.004" stroke-miterlimit="10"/>
<path d="M75.2 2.53334V33.7975" stroke="black" stroke-width="0.004" stroke-miterlimit="10"/>
<path d="M76.2987 34.3599H75.764" stroke="black" stroke-width="0.004" stroke-miterlimit="10"/>
<path d="M76.8627 33.7975V2.53334" stroke="black" stroke-width="0.004" stroke-miterlimit="10"/>
<path d="M75.764 1.97028H76.2987" stroke="black" stroke-width="0.004" stroke-miterlimit="10"/>
<path d="M75.5346 2.65575L75.3907 3.40681" stroke="black" stroke-width="0.004" stroke-miterlimit="10"/>
<path d="M76.1787 2.35054H75.8827" stroke="black" stroke-width="0.004" stroke-miterlimit="10"/>
<path d="M76.528 2.65575L76.672 3.40681" stroke="black" stroke-width="0.004" stroke-miterlimit="10"/>
<path d="M76.528 33.6745L76.672 32.924" stroke="black" stroke-width="0.004" stroke-miterlimit="10"/>
<path d="M75.8827 33.9797H76.1787" stroke="black" stroke-width="0.004" stroke-miterlimit="10"/>
<path d="M75.5346 33.6745L75.3907 32.924" stroke="black" stroke-width="0.004" stroke-miterlimit="10"/>
<path d="M67.3493 2.35054H67.0533" stroke="black" stroke-width="0.004" stroke-miterlimit="10"/>
<path d="M67.6987 2.65575L67.8427 3.40681" stroke="black" stroke-width="0.004" stroke-miterlimit="10"/>
<path d="M67.0533 33.9797H67.3493" stroke="black" stroke-width="0.004" stroke-miterlimit="10"/>
<path d="M67.6987 33.6745L67.8427 32.924" stroke="black" stroke-width="0.004" stroke-miterlimit="10"/>
<path d="M66.704 33.6745L66.56 32.924" stroke="black" stroke-width="0.004" stroke-miterlimit="10"/>
<path d="M67.4693 34.3599H66.9333" stroke="black" stroke-width="0.004" stroke-miterlimit="10"/>
<path d="M78.8267 33.9797H79.1227" stroke="black" stroke-width="0.004" stroke-miterlimit="10"/>
<path d="M66.9333 1.97028H67.4693" stroke="black" stroke-width="0.004" stroke-miterlimit="10"/>
<path d="M66.3707 2.53334V33.7975" stroke="black" stroke-width="0.004" stroke-miterlimit="10"/>
<path d="M78.144 2.53334V33.7975" stroke="black" stroke-width="0.004" stroke-miterlimit="10"/>
<path d="M72.82 1.97028H73.356" stroke="black" stroke-width="0.004" stroke-miterlimit="10"/>
<path d="M73.5853 33.6745L73.728 32.924" stroke="black" stroke-width="0.004" stroke-miterlimit="10"/>
<path d="M72.5907 33.6745L72.4467 32.924" stroke="black" stroke-width="0.004" stroke-miterlimit="10"/>
<path d="M73.5853 2.65575L73.728 3.40681" stroke="black" stroke-width="0.004" stroke-miterlimit="10"/>
<path d="M72.94 33.9797H73.236" stroke="black" stroke-width="0.004" stroke-miterlimit="10"/>
<path d="M73.236 2.35054H72.94" stroke="black" stroke-width="0.004" stroke-miterlimit="10"/>
<path d="M79.2427 34.3599H78.7067" stroke="black" stroke-width="0.004" stroke-miterlimit="10"/>
<path d="M73.9187 33.7975V2.53334" stroke="black" stroke-width="0.004" stroke-miterlimit="10"/>
<path d="M72.5907 2.65575L72.4467 3.40681" stroke="black" stroke-width="0.004" stroke-miterlimit="10"/>
<path d="M72.2574 2.53334V33.7975" stroke="black" stroke-width="0.004" stroke-miterlimit="10"/>
<path d="M78.4774 33.6745L78.3333 32.924" stroke="black" stroke-width="0.004" stroke-miterlimit="10"/>
<path d="M73.356 34.3599H72.82" stroke="black" stroke-width="0.004" stroke-miterlimit="10"/>
<path d="M65.7293 34.712H80.4467" stroke="black" stroke-width="0.00933333" stroke-miterlimit="10"/>
<path d="M70.412 34.3599H69.8773" stroke="black" stroke-width="0.004" stroke-miterlimit="10"/>
<path d="M69.9973 33.9797H70.292" stroke="black" stroke-width="0.004" stroke-miterlimit="10"/>
<path d="M70.6413 33.6745L70.7853 32.924" stroke="black" stroke-width="0.004" stroke-miterlimit="10"/>
<path d="M69.648 33.6745L69.504 32.924" stroke="black" stroke-width="0.004" stroke-miterlimit="10"/>
<path d="M69.3133 2.53334V33.7975" stroke="black" stroke-width="0.004" stroke-miterlimit="10"/>
<path d="M79.472 33.6745L79.6147 32.924" stroke="black" stroke-width="0.004" stroke-miterlimit="10"/>
<path d="M66.704 2.65575L66.56 3.40681" stroke="black" stroke-width="0.004" stroke-miterlimit="10"/>
<path d="M68.032 33.7975V2.53334" stroke="black" stroke-width="0.004" stroke-miterlimit="10"/>
<path d="M80.4467 1.61882H65.7293" stroke="black" stroke-width="0.00933333" stroke-miterlimit="10"/>
<path d="M78.7067 1.97028H79.2427" stroke="black" stroke-width="0.004" stroke-miterlimit="10"/>
<path d="M79.8053 33.7975V2.53334" stroke="black" stroke-width="0.004" stroke-miterlimit="10"/>
<path d="M69.8773 1.97028H70.412" stroke="black" stroke-width="0.004" stroke-miterlimit="10"/>
<path d="M70.976 33.7975V2.53334" stroke="black" stroke-width="0.004" stroke-miterlimit="10"/>
<path d="M70.6413 2.65575L70.7853 3.40681" stroke="black" stroke-width="0.004" stroke-miterlimit="10"/>
<path d="M70.292 2.35054H69.9973" stroke="black" stroke-width="0.004" stroke-miterlimit="10"/>
<path d="M79.472 2.65575L79.6147 3.40681" stroke="black" stroke-width="0.004" stroke-miterlimit="10"/>
<path d="M79.1227 2.35054H78.8267" stroke="black" stroke-width="0.004" stroke-miterlimit="10"/>
<path d="M78.4774 2.65575L78.3333 3.40681" stroke="black" stroke-width="0.004" stroke-miterlimit="10"/>
<path d="M69.648 2.65575L69.504 3.40681" stroke="black" stroke-width="0.004" stroke-miterlimit="10"/>
<path d="M1 1V3.2812" stroke="black" stroke-width="0.00933333" stroke-miterlimit="10"/>
<path d="M85.5067 33.0505H86.3094" stroke="black" stroke-width="0.00933333" stroke-miterlimit="10"/>
<path d="M83.8027 34.4453V33.0505" stroke="black" stroke-width="0.004" stroke-miterlimit="10"/>
<path d="M3.50681 33.0505H1.04282" stroke="black" stroke-width="0.004" stroke-miterlimit="10"/>
<path d="M83.8027 33.0505H85.5067" stroke="black" stroke-width="0.004" stroke-miterlimit="10"/>
<path d="M3.50681 3.2812H1.04282" stroke="black" stroke-width="0.004" stroke-miterlimit="10"/>
<path d="M3.50681 1.88801V3.2812" stroke="black" stroke-width="0.004" stroke-miterlimit="10"/>
<path d="M1 33.0505V35.3317" stroke="black" stroke-width="0.00933333" stroke-miterlimit="10"/>
<path d="M3.50681 34.4453V33.0505" stroke="black" stroke-width="0.004" stroke-miterlimit="10"/>
<path d="M85.5067 33.0505V3.2812" stroke="black" stroke-width="0.00933333" stroke-miterlimit="10"/>
<path d="M6.86414 34.4453V34.712" stroke="black" stroke-width="0.00933333" stroke-miterlimit="10"/>
<path d="M80.4467 34.712V34.4453" stroke="black" stroke-width="0.00933333" stroke-miterlimit="10"/>
<path d="M6.86414 1.61882V1.88802" stroke="black" stroke-width="0.00933333" stroke-miterlimit="10"/>
<path d="M6.86414 1.888V34.4453" stroke="black" stroke-width="0.00933333" stroke-miterlimit="10"/>
<path d="M80.4467 34.4453V1.888" stroke="black" stroke-width="0.00933333" stroke-miterlimit="10"/>
<path d="M80.4467 1.88802V1.61882" stroke="black" stroke-width="0.00933333" stroke-miterlimit="10"/>
<path d="M31.2412 3.4068V32.924" stroke="black" stroke-width="0.004" stroke-miterlimit="10"/>
<path d="M32.5224 32.924V3.4068" stroke="black" stroke-width="0.004" stroke-miterlimit="10"/>
<path d="M34.1839 3.4068V32.924" stroke="black" stroke-width="0.004" stroke-miterlimit="10"/>
<path d="M22.4106 3.4068V32.924" stroke="black" stroke-width="0.004" stroke-miterlimit="10"/>
<path d="M23.6933 3.4068V32.924" stroke="black" stroke-width="0.004" stroke-miterlimit="10"/>
<path d="M28.2975 3.4068V32.924" stroke="black" stroke-width="0.004" stroke-miterlimit="10"/>
<path d="M29.5787 32.924V3.4068" stroke="black" stroke-width="0.004" stroke-miterlimit="10"/>
<path d="M25.3548 3.4068V32.924" stroke="black" stroke-width="0.004" stroke-miterlimit="10"/>
<path d="M26.636 3.4068V32.924" stroke="black" stroke-width="0.004" stroke-miterlimit="10"/>
<path d="M35.4652 3.4068V32.924" stroke="black" stroke-width="0.004" stroke-miterlimit="10"/>
<path d="M16.524 3.4068V32.924" stroke="black" stroke-width="0.004" stroke-miterlimit="10"/>
<path d="M17.8068 32.924V3.4068" stroke="black" stroke-width="0.004" stroke-miterlimit="10"/>
<path d="M19.4677 3.4068V32.924" stroke="black" stroke-width="0.004" stroke-miterlimit="10"/>
<path d="M7.69479 3.4068V32.924" stroke="black" stroke-width="0.004" stroke-miterlimit="10"/>
<path d="M8.97614 3.4068V32.924" stroke="black" stroke-width="0.004" stroke-miterlimit="10"/>
<path d="M13.5813 3.4068V32.924" stroke="black" stroke-width="0.004" stroke-miterlimit="10"/>
<path d="M14.8625 32.924V3.4068" stroke="black" stroke-width="0.004" stroke-miterlimit="10"/>
<path d="M10.6387 3.4068V32.924" stroke="black" stroke-width="0.004" stroke-miterlimit="10"/>
<path d="M11.9199 3.4068V32.924" stroke="black" stroke-width="0.004" stroke-miterlimit="10"/>
<path d="M20.7496 3.4068V32.924" stroke="black" stroke-width="0.004" stroke-miterlimit="10"/>
<path d="M45.9573 3.4068V32.924" stroke="black" stroke-width="0.004" stroke-miterlimit="10"/>
<path d="M47.2387 32.924V3.4068" stroke="black" stroke-width="0.004" stroke-miterlimit="10"/>
<path d="M48.9013 3.4068V32.924" stroke="black" stroke-width="0.004" stroke-miterlimit="10"/>
<path d="M37.1281 3.4068V32.924" stroke="black" stroke-width="0.004" stroke-miterlimit="10"/>
<path d="M38.4095 3.4068V32.924" stroke="black" stroke-width="0.004" stroke-miterlimit="10"/>
<path d="M43.0147 3.4068V32.924" stroke="black" stroke-width="0.004" stroke-miterlimit="10"/>
<path d="M44.296 32.924V3.4068" stroke="black" stroke-width="0.004" stroke-miterlimit="10"/>
<path d="M40.071 3.4068V32.924" stroke="black" stroke-width="0.004" stroke-miterlimit="10"/>
<path d="M41.3521 3.4068V32.924" stroke="black" stroke-width="0.004" stroke-miterlimit="10"/>
<path d="M50.1826 3.4068V32.924" stroke="black" stroke-width="0.004" stroke-miterlimit="10"/>
<path d="M60.6733 3.4068V32.924" stroke="black" stroke-width="0.004" stroke-miterlimit="10"/>
<path d="M61.956 32.924V3.4068" stroke="black" stroke-width="0.004" stroke-miterlimit="10"/>
<path d="M63.6173 3.4068V32.924" stroke="black" stroke-width="0.004" stroke-miterlimit="10"/>
<path d="M51.844 3.4068V32.924" stroke="black" stroke-width="0.004" stroke-miterlimit="10"/>
<path d="M53.1253 3.4068V32.924" stroke="black" stroke-width="0.004" stroke-miterlimit="10"/>
<path d="M57.7307 3.4068V32.924" stroke="black" stroke-width="0.004" stroke-miterlimit="10"/>
<path d="M59.012 32.924V3.4068" stroke="black" stroke-width="0.004" stroke-miterlimit="10"/>
<path d="M54.788 3.4068V32.924" stroke="black" stroke-width="0.004" stroke-miterlimit="10"/>
<path d="M56.0693 3.4068V32.924" stroke="black" stroke-width="0.004" stroke-miterlimit="10"/>
<path d="M64.8987 3.4068V32.924" stroke="black" stroke-width="0.004" stroke-miterlimit="10"/>
<path d="M75.3907 3.4068V32.924" stroke="black" stroke-width="0.004" stroke-miterlimit="10"/>
<path d="M76.672 32.924V3.4068" stroke="black" stroke-width="0.004" stroke-miterlimit="10"/>
<path d="M78.3333 3.4068V32.924" stroke="black" stroke-width="0.004" stroke-miterlimit="10"/>
<path d="M66.56 3.4068V32.924" stroke="black" stroke-width="0.004" stroke-miterlimit="10"/>
<path d="M67.8427 3.4068V32.924" stroke="black" stroke-width="0.004" stroke-miterlimit="10"/>
<path d="M72.4467 3.4068V32.924" stroke="black" stroke-width="0.004" stroke-miterlimit="10"/>
<path d="M73.728 32.924V3.4068" stroke="black" stroke-width="0.004" stroke-miterlimit="10"/>
<path d="M69.504 3.4068V32.924" stroke="black" stroke-width="0.004" stroke-miterlimit="10"/>
<path d="M70.7853 3.4068V32.924" stroke="black" stroke-width="0.004" stroke-miterlimit="10"/>
<path d="M79.6147 3.4068V32.924" stroke="black" stroke-width="0.004" stroke-miterlimit="10"/>
</svg>
